%TF.GenerationSoftware,KiCad,Pcbnew,6.99.0-1.20221101gitf80c150.fc36*%
%TF.CreationDate,2022-11-27T20:33:10+00:00*%
%TF.ProjectId,bugg-led-r4,62756767-2d6c-4656-942d-72342e6b6963,rev?*%
%TF.SameCoordinates,Original*%
%TF.FileFunction,Legend,Bot*%
%TF.FilePolarity,Positive*%
%FSLAX46Y46*%
G04 Gerber Fmt 4.6, Leading zero omitted, Abs format (unit mm)*
G04 Created by KiCad (PCBNEW 6.99.0-1.20221101gitf80c150.fc36) date 2022-11-27 20:33:10*
%MOMM*%
%LPD*%
G01*
G04 APERTURE LIST*
%ADD10C,0.150000*%
%ADD11C,0.120000*%
G04 APERTURE END LIST*
D10*
X10121428Y5606095D02*
X10578571Y5606095D01*
X10349999Y5606095D02*
X10349999Y6406095D01*
X10349999Y6406095D02*
X10426190Y6291809D01*
X10426190Y6291809D02*
X10502380Y6215619D01*
X10502380Y6215619D02*
X10578571Y6177523D01*
X7616666Y-14593904D02*
X7083332Y-14593904D01*
X7083332Y-14593904D02*
X7426190Y-15393904D01*
X7616666Y-10593904D02*
X7121428Y-10593904D01*
X7121428Y-10593904D02*
X7388094Y-10898666D01*
X7388094Y-10898666D02*
X7273809Y-10898666D01*
X7273809Y-10898666D02*
X7197618Y-10936761D01*
X7197618Y-10936761D02*
X7159523Y-10974857D01*
X7159523Y-10974857D02*
X7121428Y-11051047D01*
X7121428Y-11051047D02*
X7121428Y-11241523D01*
X7121428Y-11241523D02*
X7159523Y-11317714D01*
X7159523Y-11317714D02*
X7197618Y-11355809D01*
X7197618Y-11355809D02*
X7273809Y-11393904D01*
X7273809Y-11393904D02*
X7502380Y-11393904D01*
X7502380Y-11393904D02*
X7578571Y-11355809D01*
X7578571Y-11355809D02*
X7616666Y-11317714D01*
X7121428Y-9393904D02*
X7578571Y-9393904D01*
X7349999Y-9393904D02*
X7349999Y-8593904D01*
X7349999Y-8593904D02*
X7426190Y-8708190D01*
X7426190Y-8708190D02*
X7502380Y-8784380D01*
X7502380Y-8784380D02*
X7578571Y-8822476D01*
X7159523Y-12593904D02*
X7540475Y-12593904D01*
X7540475Y-12593904D02*
X7578571Y-12974857D01*
X7578571Y-12974857D02*
X7540475Y-12936761D01*
X7540475Y-12936761D02*
X7464285Y-12898666D01*
X7464285Y-12898666D02*
X7273809Y-12898666D01*
X7273809Y-12898666D02*
X7197618Y-12936761D01*
X7197618Y-12936761D02*
X7159523Y-12974857D01*
X7159523Y-12974857D02*
X7121428Y-13051047D01*
X7121428Y-13051047D02*
X7121428Y-13241523D01*
X7121428Y-13241523D02*
X7159523Y-13317714D01*
X7159523Y-13317714D02*
X7197618Y-13355809D01*
X7197618Y-13355809D02*
X7273809Y-13393904D01*
X7273809Y-13393904D02*
X7464285Y-13393904D01*
X7464285Y-13393904D02*
X7540475Y-13355809D01*
X7540475Y-13355809D02*
X7578571Y-13317714D01*
%TO.C,LED203*%
X-2782619Y-28728571D02*
X-2782619Y-28252381D01*
X-2782619Y-28252381D02*
X-3782619Y-28252381D01*
X-3306428Y-29061905D02*
X-3306428Y-29395238D01*
X-2782619Y-29538095D02*
X-2782619Y-29061905D01*
X-2782619Y-29061905D02*
X-3782619Y-29061905D01*
X-3782619Y-29061905D02*
X-3782619Y-29538095D01*
X-2782619Y-29966667D02*
X-3782619Y-29966667D01*
X-3782619Y-29966667D02*
X-3782619Y-30204762D01*
X-3782619Y-30204762D02*
X-3735000Y-30347619D01*
X-3735000Y-30347619D02*
X-3639761Y-30442857D01*
X-3639761Y-30442857D02*
X-3544523Y-30490476D01*
X-3544523Y-30490476D02*
X-3354047Y-30538095D01*
X-3354047Y-30538095D02*
X-3211190Y-30538095D01*
X-3211190Y-30538095D02*
X-3020714Y-30490476D01*
X-3020714Y-30490476D02*
X-2925476Y-30442857D01*
X-2925476Y-30442857D02*
X-2830238Y-30347619D01*
X-2830238Y-30347619D02*
X-2782619Y-30204762D01*
X-2782619Y-30204762D02*
X-2782619Y-29966667D01*
X-3687380Y-30919048D02*
X-3735000Y-30966667D01*
X-3735000Y-30966667D02*
X-3782619Y-31061905D01*
X-3782619Y-31061905D02*
X-3782619Y-31300000D01*
X-3782619Y-31300000D02*
X-3735000Y-31395238D01*
X-3735000Y-31395238D02*
X-3687380Y-31442857D01*
X-3687380Y-31442857D02*
X-3592142Y-31490476D01*
X-3592142Y-31490476D02*
X-3496904Y-31490476D01*
X-3496904Y-31490476D02*
X-3354047Y-31442857D01*
X-3354047Y-31442857D02*
X-2782619Y-30871429D01*
X-2782619Y-30871429D02*
X-2782619Y-31490476D01*
X-3782619Y-32109524D02*
X-3782619Y-32204762D01*
X-3782619Y-32204762D02*
X-3735000Y-32300000D01*
X-3735000Y-32300000D02*
X-3687380Y-32347619D01*
X-3687380Y-32347619D02*
X-3592142Y-32395238D01*
X-3592142Y-32395238D02*
X-3401666Y-32442857D01*
X-3401666Y-32442857D02*
X-3163571Y-32442857D01*
X-3163571Y-32442857D02*
X-2973095Y-32395238D01*
X-2973095Y-32395238D02*
X-2877857Y-32347619D01*
X-2877857Y-32347619D02*
X-2830238Y-32300000D01*
X-2830238Y-32300000D02*
X-2782619Y-32204762D01*
X-2782619Y-32204762D02*
X-2782619Y-32109524D01*
X-2782619Y-32109524D02*
X-2830238Y-32014286D01*
X-2830238Y-32014286D02*
X-2877857Y-31966667D01*
X-2877857Y-31966667D02*
X-2973095Y-31919048D01*
X-2973095Y-31919048D02*
X-3163571Y-31871429D01*
X-3163571Y-31871429D02*
X-3401666Y-31871429D01*
X-3401666Y-31871429D02*
X-3592142Y-31919048D01*
X-3592142Y-31919048D02*
X-3687380Y-31966667D01*
X-3687380Y-31966667D02*
X-3735000Y-32014286D01*
X-3735000Y-32014286D02*
X-3782619Y-32109524D01*
X-3782619Y-32776191D02*
X-3782619Y-33395238D01*
X-3782619Y-33395238D02*
X-3401666Y-33061905D01*
X-3401666Y-33061905D02*
X-3401666Y-33204762D01*
X-3401666Y-33204762D02*
X-3354047Y-33300000D01*
X-3354047Y-33300000D02*
X-3306428Y-33347619D01*
X-3306428Y-33347619D02*
X-3211190Y-33395238D01*
X-3211190Y-33395238D02*
X-2973095Y-33395238D01*
X-2973095Y-33395238D02*
X-2877857Y-33347619D01*
X-2877857Y-33347619D02*
X-2830238Y-33300000D01*
X-2830238Y-33300000D02*
X-2782619Y-33204762D01*
X-2782619Y-33204762D02*
X-2782619Y-32919048D01*
X-2782619Y-32919048D02*
X-2830238Y-32823810D01*
X-2830238Y-32823810D02*
X-2877857Y-32776191D01*
%TO.C,LED202*%
X-2782619Y-21028571D02*
X-2782619Y-20552381D01*
X-2782619Y-20552381D02*
X-3782619Y-20552381D01*
X-3306428Y-21361905D02*
X-3306428Y-21695238D01*
X-2782619Y-21838095D02*
X-2782619Y-21361905D01*
X-2782619Y-21361905D02*
X-3782619Y-21361905D01*
X-3782619Y-21361905D02*
X-3782619Y-21838095D01*
X-2782619Y-22266667D02*
X-3782619Y-22266667D01*
X-3782619Y-22266667D02*
X-3782619Y-22504762D01*
X-3782619Y-22504762D02*
X-3735000Y-22647619D01*
X-3735000Y-22647619D02*
X-3639761Y-22742857D01*
X-3639761Y-22742857D02*
X-3544523Y-22790476D01*
X-3544523Y-22790476D02*
X-3354047Y-22838095D01*
X-3354047Y-22838095D02*
X-3211190Y-22838095D01*
X-3211190Y-22838095D02*
X-3020714Y-22790476D01*
X-3020714Y-22790476D02*
X-2925476Y-22742857D01*
X-2925476Y-22742857D02*
X-2830238Y-22647619D01*
X-2830238Y-22647619D02*
X-2782619Y-22504762D01*
X-2782619Y-22504762D02*
X-2782619Y-22266667D01*
X-3687380Y-23219048D02*
X-3735000Y-23266667D01*
X-3735000Y-23266667D02*
X-3782619Y-23361905D01*
X-3782619Y-23361905D02*
X-3782619Y-23600000D01*
X-3782619Y-23600000D02*
X-3735000Y-23695238D01*
X-3735000Y-23695238D02*
X-3687380Y-23742857D01*
X-3687380Y-23742857D02*
X-3592142Y-23790476D01*
X-3592142Y-23790476D02*
X-3496904Y-23790476D01*
X-3496904Y-23790476D02*
X-3354047Y-23742857D01*
X-3354047Y-23742857D02*
X-2782619Y-23171429D01*
X-2782619Y-23171429D02*
X-2782619Y-23790476D01*
X-3782619Y-24409524D02*
X-3782619Y-24504762D01*
X-3782619Y-24504762D02*
X-3735000Y-24600000D01*
X-3735000Y-24600000D02*
X-3687380Y-24647619D01*
X-3687380Y-24647619D02*
X-3592142Y-24695238D01*
X-3592142Y-24695238D02*
X-3401666Y-24742857D01*
X-3401666Y-24742857D02*
X-3163571Y-24742857D01*
X-3163571Y-24742857D02*
X-2973095Y-24695238D01*
X-2973095Y-24695238D02*
X-2877857Y-24647619D01*
X-2877857Y-24647619D02*
X-2830238Y-24600000D01*
X-2830238Y-24600000D02*
X-2782619Y-24504762D01*
X-2782619Y-24504762D02*
X-2782619Y-24409524D01*
X-2782619Y-24409524D02*
X-2830238Y-24314286D01*
X-2830238Y-24314286D02*
X-2877857Y-24266667D01*
X-2877857Y-24266667D02*
X-2973095Y-24219048D01*
X-2973095Y-24219048D02*
X-3163571Y-24171429D01*
X-3163571Y-24171429D02*
X-3401666Y-24171429D01*
X-3401666Y-24171429D02*
X-3592142Y-24219048D01*
X-3592142Y-24219048D02*
X-3687380Y-24266667D01*
X-3687380Y-24266667D02*
X-3735000Y-24314286D01*
X-3735000Y-24314286D02*
X-3782619Y-24409524D01*
X-3687380Y-25123810D02*
X-3735000Y-25171429D01*
X-3735000Y-25171429D02*
X-3782619Y-25266667D01*
X-3782619Y-25266667D02*
X-3782619Y-25504762D01*
X-3782619Y-25504762D02*
X-3735000Y-25600000D01*
X-3735000Y-25600000D02*
X-3687380Y-25647619D01*
X-3687380Y-25647619D02*
X-3592142Y-25695238D01*
X-3592142Y-25695238D02*
X-3496904Y-25695238D01*
X-3496904Y-25695238D02*
X-3354047Y-25647619D01*
X-3354047Y-25647619D02*
X-2782619Y-25076191D01*
X-2782619Y-25076191D02*
X-2782619Y-25695238D01*
%TO.C,LED201*%
X-2782619Y-13028571D02*
X-2782619Y-12552381D01*
X-2782619Y-12552381D02*
X-3782619Y-12552381D01*
X-3306428Y-13361905D02*
X-3306428Y-13695238D01*
X-2782619Y-13838095D02*
X-2782619Y-13361905D01*
X-2782619Y-13361905D02*
X-3782619Y-13361905D01*
X-3782619Y-13361905D02*
X-3782619Y-13838095D01*
X-2782619Y-14266667D02*
X-3782619Y-14266667D01*
X-3782619Y-14266667D02*
X-3782619Y-14504762D01*
X-3782619Y-14504762D02*
X-3735000Y-14647619D01*
X-3735000Y-14647619D02*
X-3639761Y-14742857D01*
X-3639761Y-14742857D02*
X-3544523Y-14790476D01*
X-3544523Y-14790476D02*
X-3354047Y-14838095D01*
X-3354047Y-14838095D02*
X-3211190Y-14838095D01*
X-3211190Y-14838095D02*
X-3020714Y-14790476D01*
X-3020714Y-14790476D02*
X-2925476Y-14742857D01*
X-2925476Y-14742857D02*
X-2830238Y-14647619D01*
X-2830238Y-14647619D02*
X-2782619Y-14504762D01*
X-2782619Y-14504762D02*
X-2782619Y-14266667D01*
X-3687380Y-15219048D02*
X-3735000Y-15266667D01*
X-3735000Y-15266667D02*
X-3782619Y-15361905D01*
X-3782619Y-15361905D02*
X-3782619Y-15600000D01*
X-3782619Y-15600000D02*
X-3735000Y-15695238D01*
X-3735000Y-15695238D02*
X-3687380Y-15742857D01*
X-3687380Y-15742857D02*
X-3592142Y-15790476D01*
X-3592142Y-15790476D02*
X-3496904Y-15790476D01*
X-3496904Y-15790476D02*
X-3354047Y-15742857D01*
X-3354047Y-15742857D02*
X-2782619Y-15171429D01*
X-2782619Y-15171429D02*
X-2782619Y-15790476D01*
X-3782619Y-16409524D02*
X-3782619Y-16504762D01*
X-3782619Y-16504762D02*
X-3735000Y-16600000D01*
X-3735000Y-16600000D02*
X-3687380Y-16647619D01*
X-3687380Y-16647619D02*
X-3592142Y-16695238D01*
X-3592142Y-16695238D02*
X-3401666Y-16742857D01*
X-3401666Y-16742857D02*
X-3163571Y-16742857D01*
X-3163571Y-16742857D02*
X-2973095Y-16695238D01*
X-2973095Y-16695238D02*
X-2877857Y-16647619D01*
X-2877857Y-16647619D02*
X-2830238Y-16600000D01*
X-2830238Y-16600000D02*
X-2782619Y-16504762D01*
X-2782619Y-16504762D02*
X-2782619Y-16409524D01*
X-2782619Y-16409524D02*
X-2830238Y-16314286D01*
X-2830238Y-16314286D02*
X-2877857Y-16266667D01*
X-2877857Y-16266667D02*
X-2973095Y-16219048D01*
X-2973095Y-16219048D02*
X-3163571Y-16171429D01*
X-3163571Y-16171429D02*
X-3401666Y-16171429D01*
X-3401666Y-16171429D02*
X-3592142Y-16219048D01*
X-3592142Y-16219048D02*
X-3687380Y-16266667D01*
X-3687380Y-16266667D02*
X-3735000Y-16314286D01*
X-3735000Y-16314286D02*
X-3782619Y-16409524D01*
X-2782619Y-17695238D02*
X-2782619Y-17123810D01*
X-2782619Y-17409524D02*
X-3782619Y-17409524D01*
X-3782619Y-17409524D02*
X-3639761Y-17314286D01*
X-3639761Y-17314286D02*
X-3544523Y-17219048D01*
X-3544523Y-17219048D02*
X-3496904Y-17123810D01*
D11*
%TO.C,R206*%
X-412742Y-28922500D02*
X-887258Y-28922500D01*
X-412742Y-27877500D02*
X-887258Y-27877500D01*
%TO.C,R203*%
X3972500Y-29062742D02*
X3972500Y-29537258D01*
X2927500Y-29062742D02*
X2927500Y-29537258D01*
%TO.C,R209*%
X-412742Y-27322500D02*
X-887258Y-27322500D01*
X-412742Y-26277500D02*
X-887258Y-26277500D01*
%TO.C,LED203*%
X-2500044Y-32500000D02*
X1950000Y-32500000D01*
X-2500000Y-31700000D02*
X-2500000Y-32500000D01*
X-1950000Y-29500000D02*
X1950000Y-29500000D01*
%TO.C,J201*%
X14060000Y-16060000D02*
X9940000Y-16060000D01*
X14060000Y-15760000D02*
X14060000Y-16060000D01*
X14060000Y-13760000D02*
X14060000Y-14240000D01*
X14060000Y-11760000D02*
X14060000Y-12240000D01*
X14060000Y-9760000D02*
X14060000Y-10240000D01*
X14060000Y-7940000D02*
X14060000Y-8240000D01*
X14060000Y-7940000D02*
X9940000Y-7940000D01*
X9940000Y-15760000D02*
X9940000Y-16060000D01*
X9940000Y-13760000D02*
X9940000Y-14240000D01*
X9940000Y-11760000D02*
X9940000Y-12240000D01*
X9940000Y-9760000D02*
X9940000Y-10240000D01*
X9940000Y-8240000D02*
X7560000Y-8240000D01*
X9940000Y-7940000D02*
X9940000Y-8240000D01*
%TO.C,R201*%
X4072500Y-13162742D02*
X4072500Y-13637258D01*
X3027500Y-13162742D02*
X3027500Y-13637258D01*
%TO.C,LED202*%
X-2500044Y-24500000D02*
X1950000Y-24500000D01*
X-2500000Y-23700000D02*
X-2500000Y-24500000D01*
X-1950000Y-21500000D02*
X1950000Y-21500000D01*
%TO.C,R205*%
X-412742Y-21022500D02*
X-887258Y-21022500D01*
X-412742Y-19977500D02*
X-887258Y-19977500D01*
%TO.C,R202*%
X3872500Y-21162742D02*
X3872500Y-21637258D01*
X2827500Y-21162742D02*
X2827500Y-21637258D01*
%TO.C,LED201*%
X-2500044Y-16500000D02*
X1950000Y-16500000D01*
X-2500000Y-15700000D02*
X-2500000Y-16500000D01*
X-1950000Y-13500000D02*
X1950000Y-13500000D01*
%TO.C,R208*%
X-412742Y-19522500D02*
X-887258Y-19522500D01*
X-412742Y-18477500D02*
X-887258Y-18477500D01*
%TO.C,R204*%
X4972500Y-16212742D02*
X4972500Y-16687258D01*
X3927500Y-16212742D02*
X3927500Y-16687258D01*
%TO.C,R207*%
X-412742Y-17972500D02*
X-887258Y-17972500D01*
X-412742Y-16927500D02*
X-887258Y-16927500D01*
%TO.C,J202*%
X18500000Y6650000D02*
X18500000Y-6650000D01*
X16760000Y6650000D02*
X18500000Y6650000D01*
X12700000Y6650000D02*
X14040000Y6650000D01*
X12700000Y5160000D02*
X12700000Y6650000D01*
X12700000Y5160000D02*
X11500000Y5160000D01*
X12700000Y-5160000D02*
X12700000Y-6650000D01*
X18500000Y-6650000D02*
X16760000Y-6650000D01*
X12700000Y-6650000D02*
X14040000Y-6650000D01*
%TD*%
M02*
