%TF.GenerationSoftware,KiCad,Pcbnew,6.99.0-1.20221101gitf80c150.fc36*%
%TF.CreationDate,2022-11-27T20:33:11+00:00*%
%TF.ProjectId,bugg-led-r4,62756767-2d6c-4656-942d-72342e6b6963,rev?*%
%TF.SameCoordinates,Original*%
%TF.FileFunction,Soldermask,Bot*%
%TF.FilePolarity,Negative*%
%FSLAX46Y46*%
G04 Gerber Fmt 4.6, Leading zero omitted, Abs format (unit mm)*
G04 Created by KiCad (PCBNEW 6.99.0-1.20221101gitf80c150.fc36) date 2022-11-27 20:33:11*
%MOMM*%
%LPD*%
G01*
G04 APERTURE LIST*
G04 Aperture macros list*
%AMRoundRect*
0 Rectangle with rounded corners*
0 $1 Rounding radius*
0 $2 $3 $4 $5 $6 $7 $8 $9 X,Y pos of 4 corners*
0 Add a 4 corners polygon primitive as box body*
4,1,4,$2,$3,$4,$5,$6,$7,$8,$9,$2,$3,0*
0 Add four circle primitives for the rounded corners*
1,1,$1+$1,$2,$3*
1,1,$1+$1,$4,$5*
1,1,$1+$1,$6,$7*
1,1,$1+$1,$8,$9*
0 Add four rect primitives between the rounded corners*
20,1,$1+$1,$2,$3,$4,$5,0*
20,1,$1+$1,$4,$5,$6,$7,0*
20,1,$1+$1,$6,$7,$8,$9,0*
20,1,$1+$1,$8,$9,$2,$3,0*%
G04 Aperture macros list end*
%ADD10C,0.200000*%
%ADD11C,2.000000*%
%ADD12C,5.500000*%
%ADD13RoundRect,0.200000X0.200000X0.275000X-0.200000X0.275000X-0.200000X-0.275000X0.200000X-0.275000X0*%
%ADD14RoundRect,0.200000X-0.275000X0.200000X-0.275000X-0.200000X0.275000X-0.200000X0.275000X0.200000X0*%
%ADD15R,1.500000X1.100000*%
%ADD16C,0.850000*%
%ADD17R,2.350000X1.000000*%
%ADD18R,1.300000X0.300000*%
%ADD19R,2.200000X1.800000*%
G04 APERTURE END LIST*
D10*
X17414285Y11031142D02*
X17414285Y12231142D01*
X17414285Y11774000D02*
X17300000Y11831142D01*
X17300000Y11831142D02*
X17071428Y11831142D01*
X17071428Y11831142D02*
X16957142Y11774000D01*
X16957142Y11774000D02*
X16900000Y11716857D01*
X16900000Y11716857D02*
X16842857Y11602571D01*
X16842857Y11602571D02*
X16842857Y11259714D01*
X16842857Y11259714D02*
X16900000Y11145428D01*
X16900000Y11145428D02*
X16957142Y11088285D01*
X16957142Y11088285D02*
X17071428Y11031142D01*
X17071428Y11031142D02*
X17300000Y11031142D01*
X17300000Y11031142D02*
X17414285Y11088285D01*
X15814286Y11831142D02*
X15814286Y11031142D01*
X16328571Y11831142D02*
X16328571Y11202571D01*
X16328571Y11202571D02*
X16271428Y11088285D01*
X16271428Y11088285D02*
X16157143Y11031142D01*
X16157143Y11031142D02*
X15985714Y11031142D01*
X15985714Y11031142D02*
X15871428Y11088285D01*
X15871428Y11088285D02*
X15814286Y11145428D01*
X14728572Y11831142D02*
X14728572Y10859714D01*
X14728572Y10859714D02*
X14785714Y10745428D01*
X14785714Y10745428D02*
X14842857Y10688285D01*
X14842857Y10688285D02*
X14957143Y10631142D01*
X14957143Y10631142D02*
X15128572Y10631142D01*
X15128572Y10631142D02*
X15242857Y10688285D01*
X14728572Y11088285D02*
X14842857Y11031142D01*
X14842857Y11031142D02*
X15071429Y11031142D01*
X15071429Y11031142D02*
X15185714Y11088285D01*
X15185714Y11088285D02*
X15242857Y11145428D01*
X15242857Y11145428D02*
X15300000Y11259714D01*
X15300000Y11259714D02*
X15300000Y11602571D01*
X15300000Y11602571D02*
X15242857Y11716857D01*
X15242857Y11716857D02*
X15185714Y11774000D01*
X15185714Y11774000D02*
X15071429Y11831142D01*
X15071429Y11831142D02*
X14842857Y11831142D01*
X14842857Y11831142D02*
X14728572Y11774000D01*
X13642858Y11831142D02*
X13642858Y10859714D01*
X13642858Y10859714D02*
X13700000Y10745428D01*
X13700000Y10745428D02*
X13757143Y10688285D01*
X13757143Y10688285D02*
X13871429Y10631142D01*
X13871429Y10631142D02*
X14042858Y10631142D01*
X14042858Y10631142D02*
X14157143Y10688285D01*
X13642858Y11088285D02*
X13757143Y11031142D01*
X13757143Y11031142D02*
X13985715Y11031142D01*
X13985715Y11031142D02*
X14100000Y11088285D01*
X14100000Y11088285D02*
X14157143Y11145428D01*
X14157143Y11145428D02*
X14214286Y11259714D01*
X14214286Y11259714D02*
X14214286Y11602571D01*
X14214286Y11602571D02*
X14157143Y11716857D01*
X14157143Y11716857D02*
X14100000Y11774000D01*
X14100000Y11774000D02*
X13985715Y11831142D01*
X13985715Y11831142D02*
X13757143Y11831142D01*
X13757143Y11831142D02*
X13642858Y11774000D01*
X13071429Y11488285D02*
X12157144Y11488285D01*
X11414287Y11031142D02*
X11528572Y11088285D01*
X11528572Y11088285D02*
X11585715Y11202571D01*
X11585715Y11202571D02*
X11585715Y12231142D01*
X10500001Y11088285D02*
X10614287Y11031142D01*
X10614287Y11031142D02*
X10842859Y11031142D01*
X10842859Y11031142D02*
X10957144Y11088285D01*
X10957144Y11088285D02*
X11014287Y11202571D01*
X11014287Y11202571D02*
X11014287Y11659714D01*
X11014287Y11659714D02*
X10957144Y11774000D01*
X10957144Y11774000D02*
X10842859Y11831142D01*
X10842859Y11831142D02*
X10614287Y11831142D01*
X10614287Y11831142D02*
X10500001Y11774000D01*
X10500001Y11774000D02*
X10442859Y11659714D01*
X10442859Y11659714D02*
X10442859Y11545428D01*
X10442859Y11545428D02*
X11014287Y11431142D01*
X9414288Y11031142D02*
X9414288Y12231142D01*
X9414288Y11088285D02*
X9528573Y11031142D01*
X9528573Y11031142D02*
X9757145Y11031142D01*
X9757145Y11031142D02*
X9871430Y11088285D01*
X9871430Y11088285D02*
X9928573Y11145428D01*
X9928573Y11145428D02*
X9985716Y11259714D01*
X9985716Y11259714D02*
X9985716Y11602571D01*
X9985716Y11602571D02*
X9928573Y11716857D01*
X9928573Y11716857D02*
X9871430Y11774000D01*
X9871430Y11774000D02*
X9757145Y11831142D01*
X9757145Y11831142D02*
X9528573Y11831142D01*
X9528573Y11831142D02*
X9414288Y11774000D01*
X8842859Y11488285D02*
X7928574Y11488285D01*
X7357145Y11031142D02*
X7357145Y11831142D01*
X7357145Y11602571D02*
X7300002Y11716857D01*
X7300002Y11716857D02*
X7242860Y11774000D01*
X7242860Y11774000D02*
X7128574Y11831142D01*
X7128574Y11831142D02*
X7014288Y11831142D01*
X6100003Y11831142D02*
X6100003Y11031142D01*
X6385717Y12288285D02*
X6671431Y11431142D01*
X6671431Y11431142D02*
X5928574Y11431142D01*
X17414285Y9087142D02*
X17414285Y10287142D01*
X17414285Y10287142D02*
X17014285Y9430000D01*
X17014285Y9430000D02*
X16614285Y10287142D01*
X16614285Y10287142D02*
X16614285Y9087142D01*
X15871428Y9087142D02*
X15985713Y9144285D01*
X15985713Y9144285D02*
X16042856Y9201428D01*
X16042856Y9201428D02*
X16099999Y9315714D01*
X16099999Y9315714D02*
X16099999Y9658571D01*
X16099999Y9658571D02*
X16042856Y9772857D01*
X16042856Y9772857D02*
X15985713Y9830000D01*
X15985713Y9830000D02*
X15871428Y9887142D01*
X15871428Y9887142D02*
X15699999Y9887142D01*
X15699999Y9887142D02*
X15585713Y9830000D01*
X15585713Y9830000D02*
X15528571Y9772857D01*
X15528571Y9772857D02*
X15471428Y9658571D01*
X15471428Y9658571D02*
X15471428Y9315714D01*
X15471428Y9315714D02*
X15528571Y9201428D01*
X15528571Y9201428D02*
X15585713Y9144285D01*
X15585713Y9144285D02*
X15699999Y9087142D01*
X15699999Y9087142D02*
X15871428Y9087142D01*
X14957142Y9887142D02*
X14957142Y9087142D01*
X14957142Y9772857D02*
X14899999Y9830000D01*
X14899999Y9830000D02*
X14785714Y9887142D01*
X14785714Y9887142D02*
X14614285Y9887142D01*
X14614285Y9887142D02*
X14499999Y9830000D01*
X14499999Y9830000D02*
X14442857Y9715714D01*
X14442857Y9715714D02*
X14442857Y9087142D01*
X13357143Y9087142D02*
X13357143Y9715714D01*
X13357143Y9715714D02*
X13414285Y9830000D01*
X13414285Y9830000D02*
X13528571Y9887142D01*
X13528571Y9887142D02*
X13757143Y9887142D01*
X13757143Y9887142D02*
X13871428Y9830000D01*
X13357143Y9144285D02*
X13471428Y9087142D01*
X13471428Y9087142D02*
X13757143Y9087142D01*
X13757143Y9087142D02*
X13871428Y9144285D01*
X13871428Y9144285D02*
X13928571Y9258571D01*
X13928571Y9258571D02*
X13928571Y9372857D01*
X13928571Y9372857D02*
X13871428Y9487142D01*
X13871428Y9487142D02*
X13757143Y9544285D01*
X13757143Y9544285D02*
X13471428Y9544285D01*
X13471428Y9544285D02*
X13357143Y9601428D01*
X12271429Y9087142D02*
X12271429Y10287142D01*
X12271429Y9144285D02*
X12385714Y9087142D01*
X12385714Y9087142D02*
X12614286Y9087142D01*
X12614286Y9087142D02*
X12728571Y9144285D01*
X12728571Y9144285D02*
X12785714Y9201428D01*
X12785714Y9201428D02*
X12842857Y9315714D01*
X12842857Y9315714D02*
X12842857Y9658571D01*
X12842857Y9658571D02*
X12785714Y9772857D01*
X12785714Y9772857D02*
X12728571Y9830000D01*
X12728571Y9830000D02*
X12614286Y9887142D01*
X12614286Y9887142D02*
X12385714Y9887142D01*
X12385714Y9887142D02*
X12271429Y9830000D01*
X11037143Y10172857D02*
X10980000Y10230000D01*
X10980000Y10230000D02*
X10865715Y10287142D01*
X10865715Y10287142D02*
X10580000Y10287142D01*
X10580000Y10287142D02*
X10465715Y10230000D01*
X10465715Y10230000D02*
X10408572Y10172857D01*
X10408572Y10172857D02*
X10351429Y10058571D01*
X10351429Y10058571D02*
X10351429Y9944285D01*
X10351429Y9944285D02*
X10408572Y9772857D01*
X10408572Y9772857D02*
X11094286Y9087142D01*
X11094286Y9087142D02*
X10351429Y9087142D01*
X9608572Y10287142D02*
X9494286Y10287142D01*
X9494286Y10287142D02*
X9380000Y10230000D01*
X9380000Y10230000D02*
X9322858Y10172857D01*
X9322858Y10172857D02*
X9265715Y10058571D01*
X9265715Y10058571D02*
X9208572Y9830000D01*
X9208572Y9830000D02*
X9208572Y9544285D01*
X9208572Y9544285D02*
X9265715Y9315714D01*
X9265715Y9315714D02*
X9322858Y9201428D01*
X9322858Y9201428D02*
X9380000Y9144285D01*
X9380000Y9144285D02*
X9494286Y9087142D01*
X9494286Y9087142D02*
X9608572Y9087142D01*
X9608572Y9087142D02*
X9722858Y9144285D01*
X9722858Y9144285D02*
X9780000Y9201428D01*
X9780000Y9201428D02*
X9837143Y9315714D01*
X9837143Y9315714D02*
X9894286Y9544285D01*
X9894286Y9544285D02*
X9894286Y9830000D01*
X9894286Y9830000D02*
X9837143Y10058571D01*
X9837143Y10058571D02*
X9780000Y10172857D01*
X9780000Y10172857D02*
X9722858Y10230000D01*
X9722858Y10230000D02*
X9608572Y10287142D01*
X8751429Y10172857D02*
X8694286Y10230000D01*
X8694286Y10230000D02*
X8580001Y10287142D01*
X8580001Y10287142D02*
X8294286Y10287142D01*
X8294286Y10287142D02*
X8180001Y10230000D01*
X8180001Y10230000D02*
X8122858Y10172857D01*
X8122858Y10172857D02*
X8065715Y10058571D01*
X8065715Y10058571D02*
X8065715Y9944285D01*
X8065715Y9944285D02*
X8122858Y9772857D01*
X8122858Y9772857D02*
X8808572Y9087142D01*
X8808572Y9087142D02*
X8065715Y9087142D01*
X7608572Y10172857D02*
X7551429Y10230000D01*
X7551429Y10230000D02*
X7437144Y10287142D01*
X7437144Y10287142D02*
X7151429Y10287142D01*
X7151429Y10287142D02*
X7037144Y10230000D01*
X7037144Y10230000D02*
X6980001Y10172857D01*
X6980001Y10172857D02*
X6922858Y10058571D01*
X6922858Y10058571D02*
X6922858Y9944285D01*
X6922858Y9944285D02*
X6980001Y9772857D01*
X6980001Y9772857D02*
X7665715Y9087142D01*
X7665715Y9087142D02*
X6922858Y9087142D01*
D11*
%TO.C,H205*%
X4500000Y9000000D03*
%TD*%
%TO.C,H206*%
X0Y-35500000D03*
%TD*%
D12*
%TO.C,H204*%
X0Y-9000000D03*
%TD*%
%TO.C,H201*%
X6000000Y0D03*
%TD*%
%TO.C,H203*%
X0Y9000000D03*
%TD*%
%TO.C,H202*%
X-6000000Y0D03*
%TD*%
D13*
%TO.C,R206*%
X175000Y-28400000D03*
X-1475000Y-28400000D03*
%TD*%
D11*
%TO.C,FID1*%
X-5000000Y9000000D03*
%TD*%
%TO.C,FID2*%
X3000000Y-35500000D03*
%TD*%
D14*
%TO.C,R203*%
X3450000Y-28475000D03*
X3450000Y-30125000D03*
%TD*%
D13*
%TO.C,R209*%
X175000Y-26800000D03*
X-1475000Y-26800000D03*
%TD*%
D15*
%TO.C,LED203*%
X-1499999Y-31749999D03*
X1499999Y-31749999D03*
X1499999Y-30249999D03*
X-1499999Y-30249999D03*
%TD*%
D16*
%TO.C,J201*%
X13000000Y-15000000D03*
X13000000Y-13000000D03*
X13000000Y-11000000D03*
X13000000Y-9000000D03*
X11000000Y-15000000D03*
X11000000Y-13000000D03*
X11000000Y-11000000D03*
X11000000Y-9000000D03*
D17*
X9324999Y-8999999D03*
X14674999Y-8999999D03*
X9324999Y-10999999D03*
X14674999Y-10999999D03*
X9324999Y-12999999D03*
X14674999Y-12999999D03*
X9324999Y-14999999D03*
X14674999Y-14999999D03*
%TD*%
D14*
%TO.C,R201*%
X3550000Y-12575000D03*
X3550000Y-14225000D03*
%TD*%
D15*
%TO.C,LED202*%
X-1499999Y-23749999D03*
X1499999Y-23749999D03*
X1499999Y-22249999D03*
X-1499999Y-22249999D03*
%TD*%
D13*
%TO.C,R205*%
X175000Y-20500000D03*
X-1475000Y-20500000D03*
%TD*%
D14*
%TO.C,R202*%
X3350000Y-20575000D03*
X3350000Y-22225000D03*
%TD*%
D15*
%TO.C,LED201*%
X-1499999Y-15749999D03*
X1499999Y-15749999D03*
X1499999Y-14249999D03*
X-1499999Y-14249999D03*
%TD*%
D13*
%TO.C,R208*%
X175000Y-19000000D03*
X-1475000Y-19000000D03*
%TD*%
D14*
%TO.C,R204*%
X4450000Y-15625000D03*
X4450000Y-17275000D03*
%TD*%
D13*
%TO.C,R207*%
X175000Y-17450000D03*
X-1475000Y-17450000D03*
%TD*%
D18*
%TO.C,J202*%
X12149999Y4749999D03*
X12149999Y4249999D03*
X12149999Y3749999D03*
X12149999Y3249999D03*
X12149999Y2749999D03*
X12149999Y2249999D03*
X12149999Y1749999D03*
X12149999Y1249999D03*
X12149999Y749999D03*
X12149999Y249999D03*
X12149999Y-249999D03*
X12149999Y-749999D03*
X12149999Y-1249999D03*
X12149999Y-1749999D03*
X12149999Y-2249999D03*
X12149999Y-2749999D03*
X12149999Y-3249999D03*
X12149999Y-3749999D03*
X12149999Y-4249999D03*
X12149999Y-4749999D03*
D19*
X15399999Y6649999D03*
X15399999Y-6649999D03*
%TD*%
M02*
