%TF.GenerationSoftware,KiCad,Pcbnew,6.99.0-1.20221101gitf80c150.fc36*%
%TF.CreationDate,2022-11-27T20:33:08+00:00*%
%TF.ProjectId,bugg-led-r4,62756767-2d6c-4656-942d-72342e6b6963,rev?*%
%TF.SameCoordinates,Original*%
%TF.FileFunction,Copper,L1,Top*%
%TF.FilePolarity,Positive*%
%FSLAX46Y46*%
G04 Gerber Fmt 4.6, Leading zero omitted, Abs format (unit mm)*
G04 Created by KiCad (PCBNEW 6.99.0-1.20221101gitf80c150.fc36) date 2022-11-27 20:33:08*
%MOMM*%
%LPD*%
G01*
G04 APERTURE LIST*
%TA.AperFunction,ViaPad*%
%ADD10C,0.800000*%
%TD*%
%TA.AperFunction,ViaPad*%
%ADD11C,0.600000*%
%TD*%
%TA.AperFunction,Conductor*%
%ADD12C,0.300000*%
%TD*%
%TA.AperFunction,Conductor*%
%ADD13C,0.250000*%
%TD*%
%TA.AperFunction,Conductor*%
%ADD14C,0.600000*%
%TD*%
G04 APERTURE END LIST*
D10*
%TO.N,GND*%
X9525000Y3775000D03*
X16200000Y-5100000D03*
X16200000Y-4300000D03*
X13900000Y3525000D03*
X8925000Y-16175000D03*
D11*
%TO.N,+3V3*%
X10350000Y4550000D03*
D10*
X12200000Y-6400000D03*
D11*
%TO.N,Net-(LED201-GK)*%
X50000Y-14250000D03*
X3300000Y-17300000D03*
%TO.N,/LED1_B*%
X10600000Y550000D03*
X5125010Y-11974398D03*
%TO.N,/LED1_G*%
X4900000Y-14300000D03*
X10300000Y1900000D03*
%TO.N,/LED1_R*%
X9950000Y2700000D03*
X3300000Y-15600000D03*
%TO.N,/LED2_B*%
X15425010Y-950000D03*
X4650000Y-20600000D03*
%TO.N,/LED2_G*%
X14625010Y50000D03*
X1650000Y-20250000D03*
%TO.N,/LED2_R*%
X14500000Y1250000D03*
X1600000Y-19000000D03*
%TO.N,+5V*%
X100000Y-23850000D03*
X100000Y-15800000D03*
X100000Y-31600000D03*
X16400000Y-9000000D03*
%TD*%
D12*
%TO.N,+3V3*%
X12200000Y2700000D02*
X10350000Y4550000D01*
X12200000Y-6400000D02*
X12200000Y2700000D01*
D13*
%TO.N,Net-(LED201-GK)*%
X50000Y-14250000D02*
X3100000Y-17300000D01*
X3100000Y-17300000D02*
X3300000Y-17300000D01*
%TO.N,/LED1_B*%
X10600000Y-6499408D02*
X5125010Y-11974398D01*
X10600000Y550000D02*
X10600000Y-6499408D01*
%TO.N,/LED1_G*%
X4900000Y-14300000D02*
X4900000Y-13050000D01*
X4500000Y-11436411D02*
X9950011Y-5986400D01*
X4900000Y-13050000D02*
X4500000Y-12650000D01*
X4500000Y-12650000D02*
X4500000Y-11436411D01*
X9950011Y1550011D02*
X10300000Y1900000D01*
X9950011Y-5986400D02*
X9950011Y1550011D01*
%TO.N,/LED1_R*%
X9500000Y-5800000D02*
X3300000Y-12000000D01*
X9950000Y2700000D02*
X9500000Y2250000D01*
X3300000Y-12000000D02*
X3300000Y-15600000D01*
X9500000Y2250000D02*
X9500000Y-5800000D01*
%TO.N,/LED2_B*%
X11050000Y-20600000D02*
X15425010Y-16224990D01*
X15425010Y-16224990D02*
X15425010Y-950000D01*
X4650000Y-20600000D02*
X11050000Y-20600000D01*
%TO.N,/LED2_G*%
X2500000Y-19400000D02*
X10986410Y-19400000D01*
X10986410Y-19400000D02*
X14625010Y-15761400D01*
X14625010Y-15761400D02*
X14625010Y50000D01*
X1650000Y-20250000D02*
X2500000Y-19400000D01*
%TO.N,/LED2_R*%
X1600000Y-19000000D02*
X2300000Y-18300000D01*
X14000000Y-15750000D02*
X14000000Y750000D01*
X14000000Y750000D02*
X14500000Y1250000D01*
X11450000Y-18300000D02*
X14000000Y-15750000D01*
X2300000Y-18300000D02*
X11450000Y-18300000D01*
D14*
%TO.N,+5V*%
X16400000Y-16750000D02*
X16400000Y-9000000D01*
X2250000Y-21700000D02*
X11450000Y-21700000D01*
X100000Y-23850000D02*
X2250000Y-21700000D01*
X100000Y-31600000D02*
X100000Y-23850000D01*
X11450000Y-21700000D02*
X16400000Y-16750000D01*
X100000Y-23850000D02*
X100000Y-15800000D01*
%TD*%
%TA.AperFunction,Conductor*%
%TO.N,GND*%
G36*
X17955364Y13249499D02*
G01*
X17955568Y13249425D01*
X17956201Y13249426D01*
X17956202Y13249426D01*
X17961349Y13249435D01*
X17993545Y13249489D01*
X18005902Y13248901D01*
X18133661Y13236514D01*
X18157931Y13231720D01*
X18274841Y13196407D01*
X18297708Y13186962D01*
X18405453Y13129488D01*
X18426035Y13115756D01*
X18520475Y13038332D01*
X18537975Y13020844D01*
X18615465Y12926455D01*
X18629210Y12905886D01*
X18686760Y12798175D01*
X18696221Y12775313D01*
X18731612Y12658435D01*
X18736422Y12634165D01*
X18748897Y12506418D01*
X18749494Y12494050D01*
X18749456Y12456081D01*
X18749500Y12455961D01*
X18749500Y-16056015D01*
X18749129Y-16065682D01*
X18741583Y-16163747D01*
X18738650Y-16182744D01*
X18717019Y-16275334D01*
X18711231Y-16293666D01*
X18675764Y-16381894D01*
X18667255Y-16399130D01*
X18622876Y-16474023D01*
X18616311Y-16485101D01*
X18611099Y-16493176D01*
X18588515Y-16525401D01*
X18588502Y-16525451D01*
X18588498Y-16525457D01*
X7652257Y-32144077D01*
X4256447Y-36993813D01*
X3976774Y-37393228D01*
X3976476Y-37393583D01*
X3976289Y-37393714D01*
X3975902Y-37394267D01*
X3954426Y-37424936D01*
X3947026Y-37434492D01*
X3865523Y-37529920D01*
X3848153Y-37546695D01*
X3754702Y-37621030D01*
X3734448Y-37634183D01*
X3628525Y-37689322D01*
X3606133Y-37698369D01*
X3548889Y-37715326D01*
X3491643Y-37732283D01*
X3467936Y-37736892D01*
X3364068Y-37746893D01*
X3343013Y-37748920D01*
X3330937Y-37749500D01*
X-3493813Y-37749500D01*
X-3506163Y-37748893D01*
X-3512788Y-37748241D01*
X-3633869Y-37736315D01*
X-3658089Y-37731499D01*
X-3774952Y-37696049D01*
X-3797766Y-37686598D01*
X-3905461Y-37629034D01*
X-3925988Y-37615318D01*
X-4020391Y-37537844D01*
X-4037844Y-37520391D01*
X-4115318Y-37425988D01*
X-4129036Y-37405458D01*
X-4135017Y-37394267D01*
X-4186598Y-37297766D01*
X-4196050Y-37274949D01*
X-4231498Y-37158092D01*
X-4236316Y-37133866D01*
X-4248893Y-37006163D01*
X-4249500Y-36993813D01*
X-4249500Y-35556330D01*
X-1254290Y-35556330D01*
X-1224075Y-35779387D01*
X-1154517Y-35993464D01*
X-1047852Y-36191681D01*
X-1044330Y-36196097D01*
X-1044327Y-36196102D01*
X-978932Y-36278103D01*
X-907508Y-36367666D01*
X-903255Y-36371381D01*
X-903251Y-36371386D01*
X-742899Y-36511481D01*
X-737996Y-36515765D01*
X-544764Y-36631215D01*
X-334024Y-36710307D01*
X-328459Y-36711317D01*
X-328455Y-36711318D01*
X-118118Y-36749489D01*
X-112547Y-36750500D01*
X56155Y-36750500D01*
X224188Y-36735377D01*
X229642Y-36733872D01*
X229646Y-36733871D01*
X435710Y-36677000D01*
X435711Y-36677000D01*
X441170Y-36675493D01*
X643973Y-36577829D01*
X826078Y-36445522D01*
X981632Y-36282825D01*
X1038877Y-36196102D01*
X1102515Y-36099695D01*
X1102516Y-36099693D01*
X1105635Y-36094968D01*
X1194103Y-35887988D01*
X1244191Y-35668537D01*
X1254290Y-35443670D01*
X1224075Y-35220613D01*
X1154517Y-35006536D01*
X1047852Y-34808319D01*
X1044330Y-34803903D01*
X1044327Y-34803898D01*
X971906Y-34713086D01*
X907508Y-34632334D01*
X903255Y-34628619D01*
X903251Y-34628614D01*
X742255Y-34487956D01*
X737996Y-34484235D01*
X544764Y-34368785D01*
X334024Y-34289693D01*
X328459Y-34288683D01*
X328455Y-34288682D01*
X118118Y-34250511D01*
X112547Y-34249500D01*
X-56155Y-34249500D01*
X-224188Y-34264623D01*
X-229642Y-34266128D01*
X-229646Y-34266129D01*
X-435710Y-34323000D01*
X-441170Y-34324507D01*
X-643973Y-34422171D01*
X-826078Y-34554478D01*
X-981632Y-34717175D01*
X-984749Y-34721897D01*
X-1041795Y-34808319D01*
X-1105635Y-34905032D01*
X-1194103Y-35112012D01*
X-1244191Y-35331463D01*
X-1254290Y-35556330D01*
X-4249500Y-35556330D01*
X-4249500Y-14250000D01*
X-505250Y-14250000D01*
X-486330Y-14393709D01*
X-430861Y-14527625D01*
X-342621Y-14642621D01*
X-227625Y-14730861D01*
X-93709Y-14786330D01*
X35480Y-14803338D01*
X100406Y-14832060D01*
X108128Y-14839165D01*
X310061Y-15041098D01*
X344087Y-15103410D01*
X339022Y-15174225D01*
X296475Y-15231061D01*
X229955Y-15255872D01*
X212369Y-15255899D01*
X184881Y-15254019D01*
X158681Y-15252226D01*
X150837Y-15251442D01*
X108190Y-15245828D01*
X108189Y-15245828D01*
X100000Y-15244750D01*
X91813Y-15245828D01*
X83552Y-15245828D01*
X83552Y-15245750D01*
X72143Y-15246107D01*
X70678Y-15246207D01*
X62079Y-15245619D01*
X12476Y-15255927D01*
X3309Y-15257480D01*
X-4780Y-15258545D01*
X-43709Y-15263670D01*
X-51346Y-15266833D01*
X-51345Y-15266833D01*
X-51798Y-15267020D01*
X-74370Y-15273973D01*
X-77646Y-15274654D01*
X-77648Y-15274655D01*
X-86085Y-15276408D01*
X-93733Y-15280371D01*
X-93736Y-15280372D01*
X-127623Y-15297931D01*
X-137373Y-15302466D01*
X-147408Y-15306623D01*
X-177625Y-15319139D01*
X-184179Y-15324168D01*
X-187652Y-15326833D01*
X-206383Y-15338742D01*
X-220447Y-15346029D01*
X-226746Y-15351912D01*
X-226749Y-15351914D01*
X-251814Y-15375324D01*
X-261112Y-15383201D01*
X-286046Y-15402334D01*
X-292621Y-15407379D01*
X-297649Y-15413932D01*
X-302677Y-15420484D01*
X-316638Y-15435866D01*
X-331044Y-15449320D01*
X-335522Y-15456684D01*
X-351338Y-15482691D01*
X-359031Y-15493925D01*
X-380861Y-15522375D01*
X-388667Y-15541221D01*
X-397410Y-15558455D01*
X-409672Y-15578618D01*
X-411996Y-15586912D01*
X-411998Y-15586917D01*
X-419169Y-15612510D01*
X-424086Y-15626730D01*
X-430684Y-15642661D01*
X-436330Y-15656291D01*
X-437408Y-15664480D01*
X-439497Y-15680345D01*
X-443091Y-15697890D01*
X-450500Y-15724335D01*
X-450500Y-15755662D01*
X-451578Y-15772109D01*
X-455250Y-15800000D01*
X-454172Y-15808188D01*
X-451578Y-15827891D01*
X-450500Y-15844338D01*
X-450500Y-23805662D01*
X-451578Y-23822109D01*
X-455250Y-23850000D01*
X-454436Y-23856182D01*
X-454543Y-23858265D01*
X-454470Y-23860396D01*
X-455352Y-23868972D01*
X-453887Y-23877469D01*
X-453887Y-23877470D01*
X-452332Y-23886489D01*
X-450500Y-23907897D01*
X-450500Y-31555662D01*
X-451578Y-31572109D01*
X-455250Y-31600000D01*
X-454172Y-31608188D01*
X-454172Y-31608189D01*
X-450628Y-31635109D01*
X-450500Y-31636390D01*
X-450500Y-31637658D01*
X-450035Y-31641039D01*
X-450033Y-31641062D01*
X-445607Y-31673263D01*
X-445518Y-31673921D01*
X-444195Y-31683968D01*
X-437408Y-31735520D01*
X-436330Y-31743709D01*
X-435722Y-31745177D01*
X-435070Y-31749920D01*
X-431639Y-31757820D01*
X-431636Y-31757829D01*
X-407206Y-31814071D01*
X-406372Y-31816036D01*
X-380861Y-31877625D01*
X-377953Y-31881414D01*
X-374780Y-31888720D01*
X-369340Y-31895407D01*
X-369338Y-31895410D01*
X-333101Y-31939952D01*
X-330879Y-31942763D01*
X-297649Y-31986068D01*
X-292621Y-31992621D01*
X-287672Y-31996418D01*
X-286269Y-31997973D01*
X-284717Y-31999422D01*
X-279278Y-32006108D01*
X-272237Y-32011078D01*
X-228455Y-32041983D01*
X-224413Y-32044959D01*
X-177625Y-32080861D01*
X-169990Y-32084023D01*
X-168960Y-32084618D01*
X-164525Y-32087455D01*
X-162687Y-32088407D01*
X-155647Y-32093377D01*
X-147531Y-32096261D01*
X-147530Y-32096262D01*
X-100650Y-32112923D01*
X-94630Y-32115238D01*
X-43709Y-32136330D01*
X-35519Y-32137408D01*
X-27544Y-32139545D01*
X-27620Y-32139829D01*
X-21176Y-32141168D01*
X-13056Y-32144054D01*
X15369Y-32145999D01*
X41318Y-32147774D01*
X49163Y-32148558D01*
X91810Y-32154172D01*
X91811Y-32154172D01*
X100000Y-32155250D01*
X108187Y-32154172D01*
X116448Y-32154172D01*
X116448Y-32154250D01*
X127857Y-32153893D01*
X129322Y-32153793D01*
X137921Y-32154381D01*
X187524Y-32144073D01*
X196691Y-32142520D01*
X204780Y-32141455D01*
X243709Y-32136330D01*
X251444Y-32133126D01*
X251798Y-32132980D01*
X274370Y-32126027D01*
X277646Y-32125346D01*
X277648Y-32125345D01*
X286085Y-32123592D01*
X293733Y-32119629D01*
X293736Y-32119628D01*
X327623Y-32102069D01*
X337373Y-32097534D01*
X361705Y-32087455D01*
X377625Y-32080861D01*
X384182Y-32075830D01*
X387652Y-32073167D01*
X406383Y-32061258D01*
X420447Y-32053971D01*
X426746Y-32048088D01*
X426749Y-32048086D01*
X451814Y-32024676D01*
X461112Y-32016799D01*
X486067Y-31997650D01*
X492621Y-31992621D01*
X502677Y-31979516D01*
X516640Y-31964132D01*
X524746Y-31956562D01*
X531044Y-31950680D01*
X551338Y-31917309D01*
X559031Y-31906075D01*
X575832Y-31884179D01*
X580861Y-31877625D01*
X588667Y-31858779D01*
X597410Y-31841545D01*
X609672Y-31821382D01*
X611996Y-31813088D01*
X611998Y-31813083D01*
X619169Y-31787490D01*
X624086Y-31773270D01*
X633169Y-31751340D01*
X636330Y-31743709D01*
X639497Y-31719655D01*
X643091Y-31702110D01*
X648174Y-31683968D01*
X648174Y-31683966D01*
X650500Y-31675665D01*
X650500Y-31644338D01*
X651578Y-31627891D01*
X654172Y-31608188D01*
X655250Y-31600000D01*
X651578Y-31572109D01*
X650500Y-31555662D01*
X650500Y-24130215D01*
X670502Y-24062094D01*
X687405Y-24041120D01*
X2441119Y-22287405D01*
X2503431Y-22253380D01*
X2530214Y-22250500D01*
X11438439Y-22250500D01*
X11442740Y-22250573D01*
X11466135Y-22251372D01*
X11506826Y-22252762D01*
X11515190Y-22250724D01*
X11515198Y-22250723D01*
X11546645Y-22243059D01*
X11559301Y-22240653D01*
X11599920Y-22235070D01*
X11616221Y-22227989D01*
X11636584Y-22221141D01*
X11645478Y-22218974D01*
X11645480Y-22218973D01*
X11653852Y-22216933D01*
X11689585Y-22196842D01*
X11701127Y-22191109D01*
X11730814Y-22178214D01*
X11730813Y-22178214D01*
X11738720Y-22174780D01*
X11752509Y-22163562D01*
X11770265Y-22151478D01*
X11785759Y-22142766D01*
X11814734Y-22113791D01*
X11824312Y-22105146D01*
X11826218Y-22103595D01*
X11856108Y-22079278D01*
X11866358Y-22064757D01*
X11880201Y-22048324D01*
X16781069Y-17147455D01*
X16784162Y-17144465D01*
X16824745Y-17106563D01*
X16831044Y-17100680D01*
X16835520Y-17093319D01*
X16835526Y-17093312D01*
X16852342Y-17065659D01*
X16859601Y-17054993D01*
X16879151Y-17029213D01*
X16879152Y-17029211D01*
X16884361Y-17022342D01*
X16890880Y-17005809D01*
X16900442Y-16986559D01*
X16905194Y-16978745D01*
X16909672Y-16971382D01*
X16920731Y-16931912D01*
X16924844Y-16919683D01*
X16936715Y-16889580D01*
X16939876Y-16881564D01*
X16941693Y-16863890D01*
X16945704Y-16842781D01*
X16948175Y-16833963D01*
X16950500Y-16825665D01*
X16950500Y-16784680D01*
X16951161Y-16771794D01*
X16954470Y-16739606D01*
X16955352Y-16731028D01*
X16952332Y-16713511D01*
X16950500Y-16692103D01*
X16950500Y-9044338D01*
X16951578Y-9027891D01*
X16954172Y-9008188D01*
X16955250Y-9000000D01*
X16950628Y-8964891D01*
X16950500Y-8963610D01*
X16950500Y-8962342D01*
X16950035Y-8958961D01*
X16950033Y-8958938D01*
X16945607Y-8926737D01*
X16945511Y-8926026D01*
X16945455Y-8925596D01*
X16936330Y-8856291D01*
X16935722Y-8854823D01*
X16935070Y-8850080D01*
X16931639Y-8842180D01*
X16931636Y-8842171D01*
X16907206Y-8785929D01*
X16906365Y-8783948D01*
X16892377Y-8750178D01*
X16880861Y-8722375D01*
X16877953Y-8718586D01*
X16874780Y-8711280D01*
X16869340Y-8704593D01*
X16869338Y-8704590D01*
X16833101Y-8660048D01*
X16830879Y-8657237D01*
X16797649Y-8613931D01*
X16797647Y-8613929D01*
X16792621Y-8607379D01*
X16787672Y-8603582D01*
X16786269Y-8602027D01*
X16784717Y-8600578D01*
X16779278Y-8593892D01*
X16728455Y-8558017D01*
X16724413Y-8555041D01*
X16684181Y-8524170D01*
X16677625Y-8519139D01*
X16669990Y-8515977D01*
X16668960Y-8515382D01*
X16664525Y-8512545D01*
X16662687Y-8511593D01*
X16655647Y-8506623D01*
X16647531Y-8503739D01*
X16647530Y-8503738D01*
X16600650Y-8487077D01*
X16594628Y-8484761D01*
X16587298Y-8481725D01*
X16543709Y-8463670D01*
X16535519Y-8462592D01*
X16527544Y-8460455D01*
X16527620Y-8460171D01*
X16521176Y-8458832D01*
X16513056Y-8455946D01*
X16484631Y-8454001D01*
X16458682Y-8452226D01*
X16450837Y-8451442D01*
X16408190Y-8445828D01*
X16408189Y-8445828D01*
X16400000Y-8444750D01*
X16391813Y-8445828D01*
X16383552Y-8445828D01*
X16383552Y-8445750D01*
X16372143Y-8446107D01*
X16370678Y-8446207D01*
X16362079Y-8445619D01*
X16312476Y-8455927D01*
X16303309Y-8457480D01*
X16295220Y-8458545D01*
X16256291Y-8463670D01*
X16248654Y-8466833D01*
X16248655Y-8466833D01*
X16248202Y-8467020D01*
X16225630Y-8473973D01*
X16222354Y-8474654D01*
X16222352Y-8474655D01*
X16213915Y-8476408D01*
X16206267Y-8480371D01*
X16206264Y-8480372D01*
X16172377Y-8497931D01*
X16162627Y-8502466D01*
X16152592Y-8506623D01*
X16122375Y-8519139D01*
X16115821Y-8524168D01*
X16112348Y-8526833D01*
X16093617Y-8538742D01*
X16079553Y-8546029D01*
X16073254Y-8551912D01*
X16073251Y-8551914D01*
X16048186Y-8575324D01*
X16038888Y-8583201D01*
X16007380Y-8607378D01*
X16006185Y-8605821D01*
X15953293Y-8634703D01*
X15882478Y-8629638D01*
X15825642Y-8587091D01*
X15800831Y-8520571D01*
X15800510Y-8511582D01*
X15800510Y-1407704D01*
X15820512Y-1339583D01*
X15826548Y-1331000D01*
X15905871Y-1227625D01*
X15961340Y-1093709D01*
X15980260Y-950000D01*
X15961340Y-806291D01*
X15905871Y-672375D01*
X15817631Y-557379D01*
X15702635Y-469139D01*
X15568719Y-413670D01*
X15425010Y-394750D01*
X15281301Y-413670D01*
X15273669Y-416831D01*
X15273670Y-416831D01*
X15249305Y-426923D01*
X15178715Y-434512D01*
X15115228Y-402732D01*
X15079001Y-341674D01*
X15081535Y-270723D01*
X15097037Y-241513D01*
X15096715Y-241327D01*
X15100843Y-234178D01*
X15105871Y-227625D01*
X15161340Y-93709D01*
X15180260Y50000D01*
X15161340Y193709D01*
X15105871Y327625D01*
X15017631Y442621D01*
X14902635Y530861D01*
X14821408Y564506D01*
X14766127Y609054D01*
X14743706Y676417D01*
X14761264Y745209D01*
X14792922Y780877D01*
X14809540Y793628D01*
X14892621Y857379D01*
X14980861Y972375D01*
X15036330Y1106291D01*
X15055250Y1250000D01*
X15036330Y1393709D01*
X14980861Y1527625D01*
X14892621Y1642621D01*
X14777625Y1730861D01*
X14643709Y1786330D01*
X14500000Y1805250D01*
X14356291Y1786330D01*
X14222375Y1730861D01*
X14107379Y1642621D01*
X14019139Y1527625D01*
X13963670Y1393709D01*
X13957667Y1348109D01*
X13946662Y1264522D01*
X13917940Y1199594D01*
X13910835Y1191872D01*
X13771257Y1052295D01*
X13751079Y1035909D01*
X13750906Y1035796D01*
X13750904Y1035794D01*
X13742164Y1030084D01*
X13722756Y1005149D01*
X13719482Y1001118D01*
X13716170Y997208D01*
X13712480Y993518D01*
X13709452Y989277D01*
X13700420Y976627D01*
X13697307Y972453D01*
X13671605Y939431D01*
X13671603Y939427D01*
X13665191Y931189D01*
X13662609Y923669D01*
X13657990Y917199D01*
X13655012Y907196D01*
X13655010Y907192D01*
X13643073Y867093D01*
X13641492Y862156D01*
X13624500Y812660D01*
X13624500Y804706D01*
X13622232Y797088D01*
X13623388Y769139D01*
X13624392Y744856D01*
X13624500Y739650D01*
X13624500Y-8370195D01*
X13604498Y-8438316D01*
X13550842Y-8484809D01*
X13480568Y-8494913D01*
X13426924Y-8473891D01*
X13322502Y-8401814D01*
X13316226Y-8397482D01*
X13226749Y-8363548D01*
X13169973Y-8342015D01*
X13169971Y-8342014D01*
X13162845Y-8339312D01*
X13146132Y-8337283D01*
X13044641Y-8324959D01*
X13044633Y-8324959D01*
X13040857Y-8324500D01*
X12959143Y-8324500D01*
X12955367Y-8324959D01*
X12955359Y-8324959D01*
X12853868Y-8337283D01*
X12837155Y-8339312D01*
X12830029Y-8342014D01*
X12830027Y-8342015D01*
X12773251Y-8363548D01*
X12683774Y-8397482D01*
X12677498Y-8401814D01*
X12555045Y-8486337D01*
X12555043Y-8486339D01*
X12548771Y-8490668D01*
X12543715Y-8496375D01*
X12543714Y-8496376D01*
X12540144Y-8500406D01*
X12439992Y-8613454D01*
X12436447Y-8620209D01*
X12436446Y-8620210D01*
X12382826Y-8722375D01*
X12363758Y-8758705D01*
X12324500Y-8917979D01*
X12324500Y-9082021D01*
X12363758Y-9241295D01*
X12439992Y-9386546D01*
X12548771Y-9509332D01*
X12555043Y-9513661D01*
X12555045Y-9513663D01*
X12642046Y-9573715D01*
X12683774Y-9602518D01*
X12755724Y-9629805D01*
X12830027Y-9657985D01*
X12830029Y-9657986D01*
X12837155Y-9660688D01*
X12844724Y-9661607D01*
X12955359Y-9675041D01*
X12955367Y-9675041D01*
X12959143Y-9675500D01*
X13040857Y-9675500D01*
X13044633Y-9675041D01*
X13044641Y-9675041D01*
X13155276Y-9661607D01*
X13162845Y-9660688D01*
X13169971Y-9657986D01*
X13169973Y-9657985D01*
X13244276Y-9629805D01*
X13316226Y-9602518D01*
X13322502Y-9598186D01*
X13426924Y-9526109D01*
X13494349Y-9503873D01*
X13563092Y-9521620D01*
X13611327Y-9573715D01*
X13624500Y-9629805D01*
X13624500Y-10370195D01*
X13604498Y-10438316D01*
X13550842Y-10484809D01*
X13480568Y-10494913D01*
X13426924Y-10473891D01*
X13322502Y-10401814D01*
X13316226Y-10397482D01*
X13226749Y-10363548D01*
X13169973Y-10342015D01*
X13169971Y-10342014D01*
X13162845Y-10339312D01*
X13146132Y-10337283D01*
X13044641Y-10324959D01*
X13044633Y-10324959D01*
X13040857Y-10324500D01*
X12959143Y-10324500D01*
X12955367Y-10324959D01*
X12955359Y-10324959D01*
X12853868Y-10337283D01*
X12837155Y-10339312D01*
X12830029Y-10342014D01*
X12830027Y-10342015D01*
X12773251Y-10363548D01*
X12683774Y-10397482D01*
X12677498Y-10401814D01*
X12555045Y-10486337D01*
X12555043Y-10486339D01*
X12548771Y-10490668D01*
X12439992Y-10613454D01*
X12363758Y-10758705D01*
X12324500Y-10917979D01*
X12324500Y-11082021D01*
X12363758Y-11241295D01*
X12439992Y-11386546D01*
X12548771Y-11509332D01*
X12555043Y-11513661D01*
X12555045Y-11513663D01*
X12642046Y-11573715D01*
X12683774Y-11602518D01*
X12755724Y-11629805D01*
X12830027Y-11657985D01*
X12830029Y-11657986D01*
X12837155Y-11660688D01*
X12844724Y-11661607D01*
X12955359Y-11675041D01*
X12955367Y-11675041D01*
X12959143Y-11675500D01*
X13040857Y-11675500D01*
X13044633Y-11675041D01*
X13044641Y-11675041D01*
X13155276Y-11661607D01*
X13162845Y-11660688D01*
X13169971Y-11657986D01*
X13169973Y-11657985D01*
X13244276Y-11629805D01*
X13316226Y-11602518D01*
X13322502Y-11598186D01*
X13426924Y-11526109D01*
X13494349Y-11503873D01*
X13563092Y-11521620D01*
X13611327Y-11573715D01*
X13624500Y-11629805D01*
X13624500Y-12370195D01*
X13604498Y-12438316D01*
X13550842Y-12484809D01*
X13480568Y-12494913D01*
X13426924Y-12473891D01*
X13322502Y-12401814D01*
X13316226Y-12397482D01*
X13218631Y-12360469D01*
X13169973Y-12342015D01*
X13169971Y-12342014D01*
X13162845Y-12339312D01*
X13146132Y-12337283D01*
X13044641Y-12324959D01*
X13044633Y-12324959D01*
X13040857Y-12324500D01*
X12959143Y-12324500D01*
X12955367Y-12324959D01*
X12955359Y-12324959D01*
X12853868Y-12337283D01*
X12837155Y-12339312D01*
X12830029Y-12342014D01*
X12830027Y-12342015D01*
X12781369Y-12360469D01*
X12683774Y-12397482D01*
X12677498Y-12401814D01*
X12555045Y-12486337D01*
X12555043Y-12486339D01*
X12548771Y-12490668D01*
X12439992Y-12613454D01*
X12436447Y-12620209D01*
X12436446Y-12620210D01*
X12376069Y-12735249D01*
X12363758Y-12758705D01*
X12349969Y-12814649D01*
X12332544Y-12885345D01*
X12324500Y-12917979D01*
X12324500Y-13082021D01*
X12326322Y-13089411D01*
X12326322Y-13089415D01*
X12344666Y-13163837D01*
X12363758Y-13241295D01*
X12439992Y-13386546D01*
X12548771Y-13509332D01*
X12555043Y-13513661D01*
X12555045Y-13513663D01*
X12642046Y-13573715D01*
X12683774Y-13602518D01*
X12755724Y-13629805D01*
X12830027Y-13657985D01*
X12830029Y-13657986D01*
X12837155Y-13660688D01*
X12844724Y-13661607D01*
X12955359Y-13675041D01*
X12955367Y-13675041D01*
X12959143Y-13675500D01*
X13040857Y-13675500D01*
X13044633Y-13675041D01*
X13044641Y-13675041D01*
X13155276Y-13661607D01*
X13162845Y-13660688D01*
X13169971Y-13657986D01*
X13169973Y-13657985D01*
X13244276Y-13629805D01*
X13316226Y-13602518D01*
X13322502Y-13598186D01*
X13426924Y-13526109D01*
X13494349Y-13503873D01*
X13563092Y-13521620D01*
X13611327Y-13573715D01*
X13624500Y-13629805D01*
X13624500Y-14370195D01*
X13604498Y-14438316D01*
X13550842Y-14484809D01*
X13480568Y-14494913D01*
X13426924Y-14473891D01*
X13322502Y-14401814D01*
X13316226Y-14397482D01*
X13226749Y-14363548D01*
X13169973Y-14342015D01*
X13169971Y-14342014D01*
X13162845Y-14339312D01*
X13146132Y-14337283D01*
X13044641Y-14324959D01*
X13044633Y-14324959D01*
X13040857Y-14324500D01*
X12959143Y-14324500D01*
X12955367Y-14324959D01*
X12955359Y-14324959D01*
X12853868Y-14337283D01*
X12837155Y-14339312D01*
X12830029Y-14342014D01*
X12830027Y-14342015D01*
X12773251Y-14363548D01*
X12683774Y-14397482D01*
X12677498Y-14401814D01*
X12555045Y-14486337D01*
X12555043Y-14486339D01*
X12548771Y-14490668D01*
X12439992Y-14613454D01*
X12436447Y-14620209D01*
X12436446Y-14620210D01*
X12378372Y-14730861D01*
X12363758Y-14758705D01*
X12352980Y-14802433D01*
X12339962Y-14855250D01*
X12324500Y-14917979D01*
X12324500Y-15082021D01*
X12326322Y-15089411D01*
X12326322Y-15089415D01*
X12341941Y-15152780D01*
X12363758Y-15241295D01*
X12367301Y-15248046D01*
X12367302Y-15248048D01*
X12424262Y-15356575D01*
X12439992Y-15386546D01*
X12483688Y-15435868D01*
X12535122Y-15493925D01*
X12548771Y-15509332D01*
X12555043Y-15513661D01*
X12555045Y-15513663D01*
X12634234Y-15568323D01*
X12683774Y-15602518D01*
X12733617Y-15621421D01*
X12830027Y-15657985D01*
X12830029Y-15657986D01*
X12837155Y-15660688D01*
X12844724Y-15661607D01*
X12955359Y-15675041D01*
X12955367Y-15675041D01*
X12959143Y-15675500D01*
X13040857Y-15675500D01*
X13044633Y-15675041D01*
X13044641Y-15675041D01*
X13155276Y-15661607D01*
X13162845Y-15660688D01*
X13251043Y-15627239D01*
X13321828Y-15621785D01*
X13384327Y-15655467D01*
X13418693Y-15717592D01*
X13414018Y-15788434D01*
X13384817Y-15834146D01*
X12355072Y-16863890D01*
X11331367Y-17887595D01*
X11269055Y-17921621D01*
X11242272Y-17924500D01*
X3761614Y-17924500D01*
X3693493Y-17904498D01*
X3647000Y-17850842D01*
X3636896Y-17780568D01*
X3666390Y-17715988D01*
X3684905Y-17698542D01*
X3692621Y-17692621D01*
X3780861Y-17577625D01*
X3836330Y-17443709D01*
X3855250Y-17300000D01*
X3836330Y-17156291D01*
X3780861Y-17022375D01*
X3692621Y-16907379D01*
X3577625Y-16819139D01*
X3443709Y-16763670D01*
X3300000Y-16744750D01*
X3163477Y-16762724D01*
X3093328Y-16751785D01*
X3057935Y-16726897D01*
X1931038Y-15600000D01*
X2744750Y-15600000D01*
X2763670Y-15743709D01*
X2819139Y-15877625D01*
X2907379Y-15992621D01*
X3022375Y-16080861D01*
X3156291Y-16136330D01*
X3300000Y-16155250D01*
X3443709Y-16136330D01*
X3577625Y-16080861D01*
X3692621Y-15992621D01*
X3780861Y-15877625D01*
X3836330Y-15743709D01*
X3855250Y-15600000D01*
X3836330Y-15456291D01*
X3780861Y-15322375D01*
X3701538Y-15219000D01*
X3675937Y-15152780D01*
X3675500Y-15142296D01*
X3675500Y-15082021D01*
X10324500Y-15082021D01*
X10326322Y-15089411D01*
X10326322Y-15089415D01*
X10341941Y-15152780D01*
X10363758Y-15241295D01*
X10367301Y-15248046D01*
X10367302Y-15248048D01*
X10424262Y-15356575D01*
X10439992Y-15386546D01*
X10483688Y-15435868D01*
X10535122Y-15493925D01*
X10548771Y-15509332D01*
X10555043Y-15513661D01*
X10555045Y-15513663D01*
X10634234Y-15568323D01*
X10683774Y-15602518D01*
X10733617Y-15621421D01*
X10830027Y-15657985D01*
X10830029Y-15657986D01*
X10837155Y-15660688D01*
X10844724Y-15661607D01*
X10955359Y-15675041D01*
X10955367Y-15675041D01*
X10959143Y-15675500D01*
X11040857Y-15675500D01*
X11044633Y-15675041D01*
X11044641Y-15675041D01*
X11155276Y-15661607D01*
X11162845Y-15660688D01*
X11169971Y-15657986D01*
X11169973Y-15657985D01*
X11266383Y-15621421D01*
X11316226Y-15602518D01*
X11365766Y-15568323D01*
X11444955Y-15513663D01*
X11444957Y-15513661D01*
X11451229Y-15509332D01*
X11464879Y-15493925D01*
X11516312Y-15435868D01*
X11560008Y-15386546D01*
X11575738Y-15356575D01*
X11632698Y-15248048D01*
X11632699Y-15248046D01*
X11636242Y-15241295D01*
X11658059Y-15152780D01*
X11673678Y-15089415D01*
X11673678Y-15089411D01*
X11675500Y-15082021D01*
X11675500Y-14917979D01*
X11660039Y-14855250D01*
X11647020Y-14802433D01*
X11636242Y-14758705D01*
X11621629Y-14730861D01*
X11563554Y-14620210D01*
X11563553Y-14620209D01*
X11560008Y-14613454D01*
X11451229Y-14490668D01*
X11444957Y-14486339D01*
X11444955Y-14486337D01*
X11322502Y-14401814D01*
X11316226Y-14397482D01*
X11226749Y-14363548D01*
X11169973Y-14342015D01*
X11169971Y-14342014D01*
X11162845Y-14339312D01*
X11146132Y-14337283D01*
X11044641Y-14324959D01*
X11044633Y-14324959D01*
X11040857Y-14324500D01*
X10959143Y-14324500D01*
X10955367Y-14324959D01*
X10955359Y-14324959D01*
X10853868Y-14337283D01*
X10837155Y-14339312D01*
X10830029Y-14342014D01*
X10830027Y-14342015D01*
X10773251Y-14363548D01*
X10683774Y-14397482D01*
X10677498Y-14401814D01*
X10555045Y-14486337D01*
X10555043Y-14486339D01*
X10548771Y-14490668D01*
X10439992Y-14613454D01*
X10436447Y-14620209D01*
X10436446Y-14620210D01*
X10378372Y-14730861D01*
X10363758Y-14758705D01*
X10352980Y-14802433D01*
X10339962Y-14855250D01*
X10324500Y-14917979D01*
X10324500Y-15082021D01*
X3675500Y-15082021D01*
X3675500Y-12207727D01*
X3695502Y-12139606D01*
X3712405Y-12118632D01*
X3909405Y-11921632D01*
X3971717Y-11887606D01*
X4042532Y-11892671D01*
X4099368Y-11935218D01*
X4124179Y-12001738D01*
X4124500Y-12010727D01*
X4124500Y-12597990D01*
X4121818Y-12623846D01*
X4119633Y-12634268D01*
X4120924Y-12644626D01*
X4120924Y-12644627D01*
X4123537Y-12665585D01*
X4124075Y-12670769D01*
X4124500Y-12675898D01*
X4124500Y-12681114D01*
X4127915Y-12701580D01*
X4128664Y-12706725D01*
X4135134Y-12758626D01*
X4138627Y-12765771D01*
X4139935Y-12773610D01*
X4144907Y-12782797D01*
X4164814Y-12819582D01*
X4167198Y-12824213D01*
X4190174Y-12871211D01*
X4195797Y-12876834D01*
X4199581Y-12883826D01*
X4207263Y-12890897D01*
X4207263Y-12890898D01*
X4238070Y-12919258D01*
X4241827Y-12922864D01*
X4487595Y-13168632D01*
X4521621Y-13230944D01*
X4524500Y-13257727D01*
X4524500Y-13842296D01*
X4504498Y-13910417D01*
X4498464Y-13918998D01*
X4419139Y-14022375D01*
X4363670Y-14156291D01*
X4344750Y-14300000D01*
X4363670Y-14443709D01*
X4419139Y-14577625D01*
X4507379Y-14692621D01*
X4622375Y-14780861D01*
X4756291Y-14836330D01*
X4900000Y-14855250D01*
X5043709Y-14836330D01*
X5177625Y-14780861D01*
X5292621Y-14692621D01*
X5380861Y-14577625D01*
X5436330Y-14443709D01*
X5455250Y-14300000D01*
X5436330Y-14156291D01*
X5380861Y-14022375D01*
X5301538Y-13919000D01*
X5275937Y-13852780D01*
X5275500Y-13842296D01*
X5275500Y-13102009D01*
X5277573Y-13082021D01*
X10324500Y-13082021D01*
X10326322Y-13089411D01*
X10326322Y-13089415D01*
X10344666Y-13163837D01*
X10363758Y-13241295D01*
X10439992Y-13386546D01*
X10548771Y-13509332D01*
X10555043Y-13513661D01*
X10555045Y-13513663D01*
X10642046Y-13573715D01*
X10683774Y-13602518D01*
X10755724Y-13629805D01*
X10830027Y-13657985D01*
X10830029Y-13657986D01*
X10837155Y-13660688D01*
X10844724Y-13661607D01*
X10955359Y-13675041D01*
X10955367Y-13675041D01*
X10959143Y-13675500D01*
X11040857Y-13675500D01*
X11044633Y-13675041D01*
X11044641Y-13675041D01*
X11155276Y-13661607D01*
X11162845Y-13660688D01*
X11169971Y-13657986D01*
X11169973Y-13657985D01*
X11244276Y-13629805D01*
X11316226Y-13602518D01*
X11357954Y-13573715D01*
X11444955Y-13513663D01*
X11444957Y-13513661D01*
X11451229Y-13509332D01*
X11560008Y-13386546D01*
X11636242Y-13241295D01*
X11655334Y-13163837D01*
X11673678Y-13089415D01*
X11673678Y-13089411D01*
X11675500Y-13082021D01*
X11675500Y-12917979D01*
X11667457Y-12885345D01*
X11650031Y-12814649D01*
X11636242Y-12758705D01*
X11623932Y-12735249D01*
X11563554Y-12620210D01*
X11563553Y-12620209D01*
X11560008Y-12613454D01*
X11451229Y-12490668D01*
X11444957Y-12486339D01*
X11444955Y-12486337D01*
X11322502Y-12401814D01*
X11316226Y-12397482D01*
X11218631Y-12360469D01*
X11169973Y-12342015D01*
X11169971Y-12342014D01*
X11162845Y-12339312D01*
X11146132Y-12337283D01*
X11044641Y-12324959D01*
X11044633Y-12324959D01*
X11040857Y-12324500D01*
X10959143Y-12324500D01*
X10955367Y-12324959D01*
X10955359Y-12324959D01*
X10853868Y-12337283D01*
X10837155Y-12339312D01*
X10830029Y-12342014D01*
X10830027Y-12342015D01*
X10781369Y-12360469D01*
X10683774Y-12397482D01*
X10677498Y-12401814D01*
X10555045Y-12486337D01*
X10555043Y-12486339D01*
X10548771Y-12490668D01*
X10439992Y-12613454D01*
X10436447Y-12620209D01*
X10436446Y-12620210D01*
X10376069Y-12735249D01*
X10363758Y-12758705D01*
X10349969Y-12814649D01*
X10332544Y-12885345D01*
X10324500Y-12917979D01*
X10324500Y-13082021D01*
X5277573Y-13082021D01*
X5278182Y-13076152D01*
X5278224Y-13075950D01*
X5280367Y-13065731D01*
X5276460Y-13034389D01*
X5275925Y-13029231D01*
X5275500Y-13024100D01*
X5275500Y-13018886D01*
X5274643Y-13013747D01*
X5274642Y-13013740D01*
X5272084Y-12998408D01*
X5271334Y-12993262D01*
X5266156Y-12951732D01*
X5264865Y-12941374D01*
X5261374Y-12934232D01*
X5260065Y-12926390D01*
X5235173Y-12880395D01*
X5232800Y-12875784D01*
X5230622Y-12871328D01*
X5209826Y-12828788D01*
X5204202Y-12823164D01*
X5200419Y-12816174D01*
X5161942Y-12780753D01*
X5158185Y-12777147D01*
X5116287Y-12735249D01*
X5082261Y-12672937D01*
X5087326Y-12602122D01*
X5129873Y-12545286D01*
X5188935Y-12521232D01*
X5207281Y-12518817D01*
X5268719Y-12510728D01*
X5402635Y-12455259D01*
X5517631Y-12367019D01*
X5605871Y-12252023D01*
X5661340Y-12118107D01*
X5678348Y-11988918D01*
X5707070Y-11923992D01*
X5714175Y-11916270D01*
X6548424Y-11082021D01*
X10324500Y-11082021D01*
X10363758Y-11241295D01*
X10439992Y-11386546D01*
X10548771Y-11509332D01*
X10555043Y-11513661D01*
X10555045Y-11513663D01*
X10642046Y-11573715D01*
X10683774Y-11602518D01*
X10755724Y-11629805D01*
X10830027Y-11657985D01*
X10830029Y-11657986D01*
X10837155Y-11660688D01*
X10844724Y-11661607D01*
X10955359Y-11675041D01*
X10955367Y-11675041D01*
X10959143Y-11675500D01*
X11040857Y-11675500D01*
X11044633Y-11675041D01*
X11044641Y-11675041D01*
X11155276Y-11661607D01*
X11162845Y-11660688D01*
X11169971Y-11657986D01*
X11169973Y-11657985D01*
X11244276Y-11629805D01*
X11316226Y-11602518D01*
X11357954Y-11573715D01*
X11444955Y-11513663D01*
X11444957Y-11513661D01*
X11451229Y-11509332D01*
X11560008Y-11386546D01*
X11636242Y-11241295D01*
X11675500Y-11082021D01*
X11675500Y-10917979D01*
X11636242Y-10758705D01*
X11560008Y-10613454D01*
X11451229Y-10490668D01*
X11444957Y-10486339D01*
X11444955Y-10486337D01*
X11322502Y-10401814D01*
X11316226Y-10397482D01*
X11226749Y-10363548D01*
X11169973Y-10342015D01*
X11169971Y-10342014D01*
X11162845Y-10339312D01*
X11146132Y-10337283D01*
X11044641Y-10324959D01*
X11044633Y-10324959D01*
X11040857Y-10324500D01*
X10959143Y-10324500D01*
X10955367Y-10324959D01*
X10955359Y-10324959D01*
X10853868Y-10337283D01*
X10837155Y-10339312D01*
X10830029Y-10342014D01*
X10830027Y-10342015D01*
X10773251Y-10363548D01*
X10683774Y-10397482D01*
X10677498Y-10401814D01*
X10555045Y-10486337D01*
X10555043Y-10486339D01*
X10548771Y-10490668D01*
X10439992Y-10613454D01*
X10363758Y-10758705D01*
X10324500Y-10917979D01*
X10324500Y-11082021D01*
X6548424Y-11082021D01*
X8548424Y-9082021D01*
X10324500Y-9082021D01*
X10363758Y-9241295D01*
X10439992Y-9386546D01*
X10548771Y-9509332D01*
X10555043Y-9513661D01*
X10555045Y-9513663D01*
X10642046Y-9573715D01*
X10683774Y-9602518D01*
X10755724Y-9629805D01*
X10830027Y-9657985D01*
X10830029Y-9657986D01*
X10837155Y-9660688D01*
X10844724Y-9661607D01*
X10955359Y-9675041D01*
X10955367Y-9675041D01*
X10959143Y-9675500D01*
X11040857Y-9675500D01*
X11044633Y-9675041D01*
X11044641Y-9675041D01*
X11155276Y-9661607D01*
X11162845Y-9660688D01*
X11169971Y-9657986D01*
X11169973Y-9657985D01*
X11244276Y-9629805D01*
X11316226Y-9602518D01*
X11357954Y-9573715D01*
X11444955Y-9513663D01*
X11444957Y-9513661D01*
X11451229Y-9509332D01*
X11560008Y-9386546D01*
X11636242Y-9241295D01*
X11675500Y-9082021D01*
X11675500Y-8917979D01*
X11636242Y-8758705D01*
X11617175Y-8722375D01*
X11563554Y-8620210D01*
X11563553Y-8620209D01*
X11560008Y-8613454D01*
X11459856Y-8500406D01*
X11456286Y-8496376D01*
X11456285Y-8496375D01*
X11451229Y-8490668D01*
X11444957Y-8486339D01*
X11444955Y-8486337D01*
X11322502Y-8401814D01*
X11316226Y-8397482D01*
X11226749Y-8363548D01*
X11169973Y-8342015D01*
X11169971Y-8342014D01*
X11162845Y-8339312D01*
X11146132Y-8337283D01*
X11044641Y-8324959D01*
X11044633Y-8324959D01*
X11040857Y-8324500D01*
X10959143Y-8324500D01*
X10955367Y-8324959D01*
X10955359Y-8324959D01*
X10853868Y-8337283D01*
X10837155Y-8339312D01*
X10830029Y-8342014D01*
X10830027Y-8342015D01*
X10773251Y-8363548D01*
X10683774Y-8397482D01*
X10677498Y-8401814D01*
X10555045Y-8486337D01*
X10555043Y-8486339D01*
X10548771Y-8490668D01*
X10543715Y-8496375D01*
X10543714Y-8496376D01*
X10540144Y-8500406D01*
X10439992Y-8613454D01*
X10436447Y-8620209D01*
X10436446Y-8620210D01*
X10382826Y-8722375D01*
X10363758Y-8758705D01*
X10324500Y-8917979D01*
X10324500Y-9082021D01*
X8548424Y-9082021D01*
X10828738Y-6801707D01*
X10848918Y-6785319D01*
X10849094Y-6785204D01*
X10849096Y-6785202D01*
X10857836Y-6779492D01*
X10864248Y-6771253D01*
X10864251Y-6771251D01*
X10877242Y-6754560D01*
X10880531Y-6750509D01*
X10883827Y-6746618D01*
X10887519Y-6742926D01*
X10890548Y-6738684D01*
X10890553Y-6738678D01*
X10899585Y-6726028D01*
X10902697Y-6721855D01*
X10916187Y-6704523D01*
X10934809Y-6680597D01*
X10937391Y-6673077D01*
X10942010Y-6666607D01*
X10944988Y-6656604D01*
X10944990Y-6656600D01*
X10956927Y-6616501D01*
X10958508Y-6611564D01*
X10975500Y-6562068D01*
X10975500Y-6554114D01*
X10977768Y-6546496D01*
X10975608Y-6494263D01*
X10975500Y-6489058D01*
X10975500Y92296D01*
X10995502Y160417D01*
X11001538Y169000D01*
X11020498Y193709D01*
X11080861Y272375D01*
X11136330Y406291D01*
X11155250Y550000D01*
X11136330Y693709D01*
X11080861Y827625D01*
X10992621Y942621D01*
X10877625Y1030861D01*
X10743709Y1086330D01*
X10600000Y1105250D01*
X10467958Y1087866D01*
X10397809Y1098805D01*
X10344710Y1145933D01*
X10325511Y1212788D01*
X10325511Y1237610D01*
X10345513Y1305731D01*
X10399169Y1352224D01*
X10427566Y1360378D01*
X10427545Y1360455D01*
X10431835Y1361604D01*
X10435065Y1362532D01*
X10435521Y1362592D01*
X10443709Y1363670D01*
X10451336Y1366829D01*
X10451339Y1366830D01*
X10569996Y1415979D01*
X10577625Y1419139D01*
X10692621Y1507379D01*
X10780861Y1622375D01*
X10836330Y1756291D01*
X10855250Y1900000D01*
X10836330Y2043709D01*
X10780861Y2177625D01*
X10692621Y2292621D01*
X10577625Y2380861D01*
X10566165Y2385608D01*
X10554083Y2390613D01*
X10498803Y2435162D01*
X10476383Y2502526D01*
X10483163Y2540115D01*
X10481033Y2540686D01*
X10483170Y2548662D01*
X10486330Y2556291D01*
X10505250Y2700000D01*
X10486330Y2843709D01*
X10430861Y2977625D01*
X10342621Y3092621D01*
X10227625Y3180861D01*
X10093709Y3236330D01*
X9950000Y3255250D01*
X9806291Y3236330D01*
X9672375Y3180861D01*
X9557379Y3092621D01*
X9469139Y2977625D01*
X9413670Y2843709D01*
X9403101Y2763433D01*
X9396662Y2714522D01*
X9367940Y2649594D01*
X9360835Y2641872D01*
X9271257Y2552295D01*
X9251079Y2535909D01*
X9250906Y2535796D01*
X9250904Y2535794D01*
X9242164Y2530084D01*
X9222756Y2505149D01*
X9219482Y2501118D01*
X9216170Y2497208D01*
X9212480Y2493518D01*
X9209452Y2489277D01*
X9200420Y2476627D01*
X9197307Y2472453D01*
X9171605Y2439431D01*
X9171603Y2439427D01*
X9165191Y2431189D01*
X9162609Y2423669D01*
X9157990Y2417199D01*
X9155012Y2407196D01*
X9155010Y2407192D01*
X9143073Y2367093D01*
X9141492Y2362156D01*
X9124500Y2312660D01*
X9124500Y2304706D01*
X9122232Y2297088D01*
X9122664Y2286652D01*
X9124392Y2244856D01*
X9124500Y2239650D01*
X9124500Y902500D01*
X9104498Y834379D01*
X9050842Y787886D01*
X8980568Y777782D01*
X8915988Y807276D01*
X8880360Y862390D01*
X8879319Y862011D01*
X8761031Y1187006D01*
X8761030Y1187008D01*
X8759777Y1190451D01*
X8729871Y1250000D01*
X8646513Y1415979D01*
X8602913Y1502793D01*
X8410849Y1794811D01*
X8186183Y2062558D01*
X7931953Y2302412D01*
X7920062Y2311265D01*
X7654531Y2508945D01*
X7651596Y2511130D01*
X7608873Y2535796D01*
X7352081Y2684055D01*
X7352078Y2684057D01*
X7348904Y2685889D01*
X7027971Y2824326D01*
X7024464Y2825376D01*
X7024461Y2825377D01*
X6696651Y2923517D01*
X6696646Y2923518D01*
X6693136Y2924569D01*
X6348927Y2985262D01*
X6345274Y2985475D01*
X6345272Y2985475D01*
X6260912Y2990388D01*
X6087305Y3000500D01*
X5912695Y3000500D01*
X5739088Y2990388D01*
X5654728Y2985475D01*
X5654726Y2985475D01*
X5651073Y2985262D01*
X5306864Y2924569D01*
X5303354Y2923518D01*
X5303349Y2923517D01*
X4975539Y2825377D01*
X4975536Y2825376D01*
X4972029Y2824326D01*
X4651096Y2685889D01*
X4647922Y2684057D01*
X4647919Y2684055D01*
X4391127Y2535796D01*
X4348404Y2511130D01*
X4345469Y2508945D01*
X4079939Y2311265D01*
X4068047Y2302412D01*
X3813817Y2062558D01*
X3589151Y1794811D01*
X3397087Y1502793D01*
X3353487Y1415979D01*
X3270130Y1250000D01*
X3240223Y1190451D01*
X3238970Y1187008D01*
X3238969Y1187006D01*
X3122531Y867093D01*
X3120681Y862011D01*
X3040077Y521914D01*
X2999500Y174759D01*
X2999500Y-174759D01*
X3040077Y-521914D01*
X3120681Y-862011D01*
X3240223Y-1190451D01*
X3241863Y-1193717D01*
X3241865Y-1193721D01*
X3295781Y-1301076D01*
X3397087Y-1502793D01*
X3589151Y-1794811D01*
X3813817Y-2062558D01*
X4068047Y-2302412D01*
X4348404Y-2511130D01*
X4651096Y-2685889D01*
X4972029Y-2824326D01*
X4975536Y-2825376D01*
X4975539Y-2825377D01*
X5303349Y-2923517D01*
X5303354Y-2923518D01*
X5306864Y-2924569D01*
X5651073Y-2985262D01*
X5654726Y-2985475D01*
X5654728Y-2985475D01*
X5739088Y-2990388D01*
X5912695Y-3000500D01*
X6087305Y-3000500D01*
X6260912Y-2990388D01*
X6345272Y-2985475D01*
X6345274Y-2985475D01*
X6348927Y-2985262D01*
X6693136Y-2924569D01*
X6696646Y-2923518D01*
X6696651Y-2923517D01*
X7024461Y-2825377D01*
X7024464Y-2825376D01*
X7027971Y-2824326D01*
X7348904Y-2685889D01*
X7651596Y-2511130D01*
X7931953Y-2302412D01*
X8186183Y-2062558D01*
X8410849Y-1794811D01*
X8602913Y-1502793D01*
X8704219Y-1301076D01*
X8758135Y-1193721D01*
X8758137Y-1193717D01*
X8759777Y-1190451D01*
X8879319Y-862011D01*
X8880372Y-862394D01*
X8916496Y-806837D01*
X8981233Y-777689D01*
X9051452Y-788167D01*
X9104859Y-834945D01*
X9124500Y-902500D01*
X9124500Y-5592273D01*
X9104498Y-5660394D01*
X9087595Y-5681368D01*
X6064372Y-8704590D01*
X3071259Y-11697703D01*
X3051082Y-11714090D01*
X3042164Y-11719916D01*
X3022756Y-11744851D01*
X3019482Y-11748882D01*
X3016170Y-11752792D01*
X3012480Y-11756482D01*
X3009452Y-11760723D01*
X3000420Y-11773373D01*
X2997307Y-11777547D01*
X2971605Y-11810569D01*
X2971603Y-11810573D01*
X2965191Y-11818811D01*
X2962609Y-11826331D01*
X2957990Y-11832801D01*
X2955012Y-11842804D01*
X2955010Y-11842808D01*
X2943073Y-11882907D01*
X2941492Y-11887844D01*
X2924500Y-11937340D01*
X2924500Y-11945294D01*
X2922232Y-11952912D01*
X2923570Y-11985262D01*
X2924392Y-12005144D01*
X2924500Y-12010350D01*
X2924500Y-15142296D01*
X2904498Y-15210417D01*
X2898464Y-15218998D01*
X2819139Y-15322375D01*
X2763670Y-15456291D01*
X2744750Y-15600000D01*
X1931038Y-15600000D01*
X639165Y-14308127D01*
X605139Y-14245815D01*
X603338Y-14235478D01*
X587408Y-14114481D01*
X587408Y-14114480D01*
X586330Y-14106291D01*
X530861Y-13972375D01*
X442621Y-13857379D01*
X327625Y-13769139D01*
X193709Y-13713670D01*
X50000Y-13694750D01*
X-93709Y-13713670D01*
X-227625Y-13769139D01*
X-342621Y-13857379D01*
X-430861Y-13972375D01*
X-486330Y-14106291D01*
X-505250Y-14250000D01*
X-4249500Y-14250000D01*
X-4249500Y-9174759D01*
X-3000500Y-9174759D01*
X-2959923Y-9521914D01*
X-2879319Y-9862011D01*
X-2759777Y-10190451D01*
X-2602913Y-10502793D01*
X-2410849Y-10794811D01*
X-2186183Y-11062558D01*
X-2183527Y-11065064D01*
X-2183524Y-11065067D01*
X-2088880Y-11154359D01*
X-1931953Y-11302412D01*
X-1929019Y-11304596D01*
X-1929017Y-11304598D01*
X-1661678Y-11503624D01*
X-1651596Y-11511130D01*
X-1648424Y-11512961D01*
X-1648423Y-11512962D01*
X-1366898Y-11675500D01*
X-1348904Y-11685889D01*
X-1027971Y-11824326D01*
X-1024464Y-11825376D01*
X-1024461Y-11825377D01*
X-696651Y-11923517D01*
X-696646Y-11923518D01*
X-693136Y-11924569D01*
X-348927Y-11985262D01*
X-345274Y-11985475D01*
X-345272Y-11985475D01*
X-286140Y-11988919D01*
X-87305Y-12000500D01*
X87305Y-12000500D01*
X286140Y-11988919D01*
X345272Y-11985475D01*
X345274Y-11985475D01*
X348927Y-11985262D01*
X693136Y-11924569D01*
X696646Y-11923518D01*
X696651Y-11923517D01*
X1024461Y-11825377D01*
X1024464Y-11825376D01*
X1027971Y-11824326D01*
X1348904Y-11685889D01*
X1366899Y-11675500D01*
X1648423Y-11512962D01*
X1648424Y-11512961D01*
X1651596Y-11511130D01*
X1661678Y-11503624D01*
X1929017Y-11304598D01*
X1929019Y-11304596D01*
X1931953Y-11302412D01*
X2088880Y-11154359D01*
X2183524Y-11065067D01*
X2183527Y-11065064D01*
X2186183Y-11062558D01*
X2410849Y-10794811D01*
X2602913Y-10502793D01*
X2759777Y-10190451D01*
X2879319Y-9862011D01*
X2959923Y-9521914D01*
X3000500Y-9174759D01*
X3000500Y-8825241D01*
X2959923Y-8478086D01*
X2879319Y-8137989D01*
X2759777Y-7809549D01*
X2602913Y-7497207D01*
X2410849Y-7205189D01*
X2186183Y-6937442D01*
X2182779Y-6934230D01*
X2070453Y-6828256D01*
X1931953Y-6697588D01*
X1901923Y-6675231D01*
X1654531Y-6491055D01*
X1651596Y-6488870D01*
X1648423Y-6487038D01*
X1352081Y-6315945D01*
X1352078Y-6315943D01*
X1348904Y-6314111D01*
X1027971Y-6175674D01*
X1024464Y-6174624D01*
X1024461Y-6174623D01*
X696651Y-6076483D01*
X696646Y-6076482D01*
X693136Y-6075431D01*
X348927Y-6014738D01*
X345274Y-6014525D01*
X345272Y-6014525D01*
X260912Y-6009612D01*
X87305Y-5999500D01*
X-87305Y-5999500D01*
X-260912Y-6009612D01*
X-345272Y-6014525D01*
X-345274Y-6014525D01*
X-348927Y-6014738D01*
X-693136Y-6075431D01*
X-696646Y-6076482D01*
X-696651Y-6076483D01*
X-1024461Y-6174623D01*
X-1024464Y-6174624D01*
X-1027971Y-6175674D01*
X-1348904Y-6314111D01*
X-1352078Y-6315943D01*
X-1352081Y-6315945D01*
X-1648423Y-6487038D01*
X-1651596Y-6488870D01*
X-1654531Y-6491055D01*
X-1901922Y-6675231D01*
X-1931953Y-6697588D01*
X-2070453Y-6828256D01*
X-2182778Y-6934230D01*
X-2186183Y-6937442D01*
X-2410849Y-7205189D01*
X-2602913Y-7497207D01*
X-2759777Y-7809549D01*
X-2879319Y-8137989D01*
X-2959923Y-8478086D01*
X-3000500Y-8825241D01*
X-3000500Y-9174759D01*
X-4249500Y-9174759D01*
X-4249500Y-5901584D01*
X-4280291Y-5707174D01*
X-4341116Y-5519974D01*
X-4343362Y-5515567D01*
X-4343364Y-5515561D01*
X-4428226Y-5349011D01*
X-4430476Y-5344595D01*
X-4546172Y-5185354D01*
X-4685354Y-5046172D01*
X-4844595Y-4930476D01*
X-4866525Y-4919302D01*
X-5015561Y-4843364D01*
X-5015567Y-4843362D01*
X-5019974Y-4841116D01*
X-5207174Y-4780291D01*
X-5401584Y-4749500D01*
X-8993334Y-4749500D01*
X-9005764Y-4748885D01*
X-9133469Y-4736225D01*
X-9157664Y-4731399D01*
X-9274558Y-4695886D01*
X-9297350Y-4686437D01*
X-9405079Y-4628827D01*
X-9425592Y-4615118D01*
X-9520035Y-4537614D01*
X-9537484Y-4520170D01*
X-9615009Y-4425751D01*
X-9628724Y-4405240D01*
X-9632364Y-4398437D01*
X-9686363Y-4297521D01*
X-9695816Y-4274736D01*
X-9731359Y-4157847D01*
X-9736191Y-4133653D01*
X-9748882Y-4005968D01*
X-9749500Y-3993506D01*
X-9749500Y-174759D01*
X-9000500Y-174759D01*
X-8959923Y-521914D01*
X-8879319Y-862011D01*
X-8759777Y-1190451D01*
X-8758137Y-1193717D01*
X-8758135Y-1193721D01*
X-8704219Y-1301076D01*
X-8602913Y-1502793D01*
X-8410849Y-1794811D01*
X-8186183Y-2062558D01*
X-7931953Y-2302412D01*
X-7651596Y-2511130D01*
X-7348904Y-2685889D01*
X-7027971Y-2824326D01*
X-7024464Y-2825376D01*
X-7024461Y-2825377D01*
X-6696651Y-2923517D01*
X-6696646Y-2923518D01*
X-6693136Y-2924569D01*
X-6348927Y-2985262D01*
X-6345274Y-2985475D01*
X-6345272Y-2985475D01*
X-6260912Y-2990388D01*
X-6087305Y-3000500D01*
X-5912695Y-3000500D01*
X-5739088Y-2990388D01*
X-5654728Y-2985475D01*
X-5654726Y-2985475D01*
X-5651073Y-2985262D01*
X-5306864Y-2924569D01*
X-5303354Y-2923518D01*
X-5303349Y-2923517D01*
X-4975539Y-2825377D01*
X-4975536Y-2825376D01*
X-4972029Y-2824326D01*
X-4651096Y-2685889D01*
X-4348404Y-2511130D01*
X-4068047Y-2302412D01*
X-3813817Y-2062558D01*
X-3589151Y-1794811D01*
X-3397087Y-1502793D01*
X-3295781Y-1301076D01*
X-3241865Y-1193721D01*
X-3241863Y-1193717D01*
X-3240223Y-1190451D01*
X-3120681Y-862011D01*
X-3040077Y-521914D01*
X-2999500Y-174759D01*
X-2999500Y174759D01*
X-3040077Y521914D01*
X-3120681Y862011D01*
X-3122530Y867093D01*
X-3238969Y1187006D01*
X-3238970Y1187008D01*
X-3240223Y1190451D01*
X-3270129Y1250000D01*
X-3353487Y1415979D01*
X-3397087Y1502793D01*
X-3589151Y1794811D01*
X-3813817Y2062558D01*
X-4068047Y2302412D01*
X-4079938Y2311265D01*
X-4345469Y2508945D01*
X-4348404Y2511130D01*
X-4391127Y2535796D01*
X-4647919Y2684055D01*
X-4647922Y2684057D01*
X-4651096Y2685889D01*
X-4972029Y2824326D01*
X-4975536Y2825376D01*
X-4975539Y2825377D01*
X-5303349Y2923517D01*
X-5303354Y2923518D01*
X-5306864Y2924569D01*
X-5651073Y2985262D01*
X-5654726Y2985475D01*
X-5654728Y2985475D01*
X-5739088Y2990388D01*
X-5912695Y3000500D01*
X-6087305Y3000500D01*
X-6260912Y2990388D01*
X-6345272Y2985475D01*
X-6345274Y2985475D01*
X-6348927Y2985262D01*
X-6693136Y2924569D01*
X-6696646Y2923518D01*
X-6696651Y2923517D01*
X-7024461Y2825377D01*
X-7024464Y2825376D01*
X-7027971Y2824326D01*
X-7348904Y2685889D01*
X-7352078Y2684057D01*
X-7352081Y2684055D01*
X-7608873Y2535796D01*
X-7651596Y2511130D01*
X-7654531Y2508945D01*
X-7920061Y2311265D01*
X-7931953Y2302412D01*
X-8186183Y2062558D01*
X-8410849Y1794811D01*
X-8602913Y1502793D01*
X-8646513Y1415979D01*
X-8729870Y1250000D01*
X-8759777Y1190451D01*
X-8761030Y1187008D01*
X-8761031Y1187006D01*
X-8877469Y867093D01*
X-8879319Y862011D01*
X-8959923Y521914D01*
X-9000500Y174759D01*
X-9000500Y-174759D01*
X-9749500Y-174759D01*
X-9749500Y4550000D01*
X9794750Y4550000D01*
X9813670Y4406291D01*
X9869139Y4272375D01*
X9957379Y4157379D01*
X10072375Y4069139D01*
X10206291Y4013670D01*
X10294765Y4002022D01*
X10359691Y3973299D01*
X10367412Y3966195D01*
X11762595Y2571012D01*
X11796621Y2508700D01*
X11799500Y2481917D01*
X11799500Y-5829044D01*
X11779498Y-5897165D01*
X11757053Y-5923357D01*
X11709517Y-5965470D01*
X11705188Y-5971742D01*
X11705186Y-5971744D01*
X11675657Y-6014525D01*
X11619780Y-6095477D01*
X11563763Y-6243182D01*
X11544722Y-6400000D01*
X11563763Y-6556818D01*
X11566465Y-6563944D01*
X11566466Y-6563946D01*
X11584516Y-6611539D01*
X11619780Y-6704523D01*
X11624112Y-6710799D01*
X11646288Y-6742926D01*
X11709517Y-6834530D01*
X11715218Y-6839581D01*
X11715222Y-6839585D01*
X11776735Y-6894080D01*
X11827760Y-6939283D01*
X11967635Y-7012696D01*
X12121015Y-7050500D01*
X12278985Y-7050500D01*
X12432365Y-7012696D01*
X12572240Y-6939283D01*
X12623265Y-6894080D01*
X12684778Y-6839585D01*
X12684782Y-6839581D01*
X12690483Y-6834530D01*
X12753713Y-6742926D01*
X12775888Y-6710799D01*
X12780220Y-6704523D01*
X12815484Y-6611539D01*
X12833534Y-6563946D01*
X12833535Y-6563944D01*
X12836237Y-6556818D01*
X12855278Y-6400000D01*
X12836237Y-6243182D01*
X12780220Y-6095477D01*
X12724343Y-6014525D01*
X12694814Y-5971744D01*
X12694812Y-5971742D01*
X12690483Y-5965470D01*
X12642947Y-5923357D01*
X12605221Y-5863213D01*
X12600500Y-5829044D01*
X12600500Y2763433D01*
X12597436Y2772864D01*
X12597435Y2772868D01*
X12593703Y2784353D01*
X12589087Y2803578D01*
X12587197Y2815512D01*
X12587197Y2815513D01*
X12585646Y2825304D01*
X12581145Y2834137D01*
X12581144Y2834141D01*
X12575659Y2844906D01*
X12568093Y2863170D01*
X12561296Y2884090D01*
X12548361Y2901893D01*
X12538035Y2918745D01*
X12532554Y2929502D01*
X12528050Y2938342D01*
X12505487Y2960905D01*
X12505484Y2960909D01*
X10933805Y4532588D01*
X10899779Y4594900D01*
X10897978Y4605236D01*
X10887408Y4685520D01*
X10886330Y4693709D01*
X10830861Y4827625D01*
X10742621Y4942621D01*
X10627625Y5030861D01*
X10493709Y5086330D01*
X10350000Y5105250D01*
X10206291Y5086330D01*
X10072375Y5030861D01*
X9957379Y4942621D01*
X9869139Y4827625D01*
X9813670Y4693709D01*
X9794750Y4550000D01*
X-9749500Y4550000D01*
X-9749500Y6743356D01*
X-9749479Y6743596D01*
X-9749432Y6743725D01*
X-9749437Y6783086D01*
X-9749071Y6792696D01*
X-9741454Y6892443D01*
X-9738532Y6911444D01*
X-9716923Y7004175D01*
X-9711150Y7022497D01*
X-9675680Y7110878D01*
X-9667186Y7128108D01*
X-9623235Y7202375D01*
X-9616225Y7214221D01*
X-9611021Y7222292D01*
X-8488591Y8825241D01*
X-3000500Y8825241D01*
X-2959923Y8478086D01*
X-2879319Y8137989D01*
X-2878066Y8134547D01*
X-2878065Y8134543D01*
X-2824712Y7987956D01*
X-2759777Y7809549D01*
X-2758137Y7806283D01*
X-2758135Y7806279D01*
X-2736960Y7764116D01*
X-2602913Y7497207D01*
X-2410849Y7205189D01*
X-2408490Y7202377D01*
X-2408488Y7202375D01*
X-2339213Y7119816D01*
X-2186183Y6937442D01*
X-1931953Y6697588D01*
X-1651596Y6488870D01*
X-1348904Y6314111D01*
X-1027971Y6175674D01*
X-1024464Y6174624D01*
X-1024461Y6174623D01*
X-696651Y6076483D01*
X-696646Y6076482D01*
X-693136Y6075431D01*
X-348927Y6014738D01*
X-345274Y6014525D01*
X-345272Y6014525D01*
X-260912Y6009612D01*
X-87305Y5999500D01*
X87305Y5999500D01*
X260912Y6009612D01*
X345272Y6014525D01*
X345274Y6014525D01*
X348927Y6014738D01*
X693136Y6075431D01*
X696646Y6076482D01*
X696651Y6076483D01*
X1024461Y6174623D01*
X1024464Y6174624D01*
X1027971Y6175674D01*
X1348904Y6314111D01*
X1651596Y6488870D01*
X1931953Y6697588D01*
X2186183Y6937442D01*
X2339213Y7119816D01*
X2408488Y7202375D01*
X2408490Y7202377D01*
X2410849Y7205189D01*
X2602913Y7497207D01*
X2736960Y7764116D01*
X2758135Y7806279D01*
X2758137Y7806283D01*
X2759777Y7809549D01*
X2824712Y7987956D01*
X2878065Y8134543D01*
X2878066Y8134547D01*
X2879319Y8137989D01*
X2959923Y8478086D01*
X3000500Y8825241D01*
X3000500Y8885047D01*
X3020502Y8953168D01*
X3063835Y8990716D01*
X3186141Y8990716D01*
X3209012Y8980271D01*
X3247396Y8920545D01*
X3251360Y8901960D01*
X3275925Y8720613D01*
X3345483Y8506536D01*
X3452148Y8308319D01*
X3455670Y8303903D01*
X3455673Y8303898D01*
X3521068Y8221897D01*
X3592492Y8132334D01*
X3596745Y8128619D01*
X3596749Y8128614D01*
X3757101Y7988519D01*
X3762004Y7984235D01*
X3955236Y7868785D01*
X4165976Y7789693D01*
X4171541Y7788683D01*
X4171545Y7788682D01*
X4381882Y7750511D01*
X4387453Y7749500D01*
X4556155Y7749500D01*
X4724188Y7764623D01*
X4729642Y7766128D01*
X4729646Y7766129D01*
X4935710Y7823000D01*
X4935711Y7823000D01*
X4941170Y7824507D01*
X5143973Y7922171D01*
X5326078Y8054478D01*
X5481632Y8217175D01*
X5538877Y8303898D01*
X5602515Y8400305D01*
X5602516Y8400307D01*
X5605635Y8405032D01*
X5694103Y8612012D01*
X5720169Y8726215D01*
X5742932Y8825945D01*
X5742933Y8825950D01*
X5744191Y8831463D01*
X5754290Y9056330D01*
X5724075Y9279387D01*
X5654517Y9493464D01*
X5547852Y9691681D01*
X5544330Y9696097D01*
X5544327Y9696102D01*
X5414859Y9858448D01*
X5407508Y9867666D01*
X5403255Y9871381D01*
X5403251Y9871386D01*
X5242255Y10012044D01*
X5237996Y10015765D01*
X5044764Y10131215D01*
X4834024Y10210307D01*
X4828459Y10211317D01*
X4828455Y10211318D01*
X4618118Y10249489D01*
X4612547Y10250500D01*
X4443845Y10250500D01*
X4275812Y10235377D01*
X4270358Y10233872D01*
X4270354Y10233871D01*
X4064290Y10177000D01*
X4058830Y10175493D01*
X3856027Y10077829D01*
X3673922Y9945522D01*
X3518368Y9782825D01*
X3515251Y9778103D01*
X3458205Y9691681D01*
X3394365Y9594968D01*
X3305897Y9387988D01*
X3304638Y9382470D01*
X3258061Y9178403D01*
X3255809Y9168537D01*
X3255555Y9162882D01*
X3252373Y9092030D01*
X3229335Y9024875D01*
X3186141Y8990716D01*
X3063835Y8990716D01*
X3066179Y8992747D01*
X3039798Y9006256D01*
X3004133Y9067645D01*
X3000500Y9097683D01*
X3000500Y9174759D01*
X2959923Y9521914D01*
X2879319Y9862011D01*
X2847714Y9948847D01*
X2761031Y10187006D01*
X2761030Y10187008D01*
X2759777Y10190451D01*
X2750804Y10208319D01*
X2604552Y10499529D01*
X2602913Y10502793D01*
X2410849Y10794811D01*
X2186183Y11062558D01*
X1931953Y11302412D01*
X1651596Y11511130D01*
X1348904Y11685889D01*
X1027971Y11824326D01*
X1024464Y11825376D01*
X1024461Y11825377D01*
X696651Y11923517D01*
X696646Y11923518D01*
X693136Y11924569D01*
X348927Y11985262D01*
X345274Y11985475D01*
X345272Y11985475D01*
X260912Y11990388D01*
X87305Y12000500D01*
X-87305Y12000500D01*
X-260912Y11990388D01*
X-345272Y11985475D01*
X-345274Y11985475D01*
X-348927Y11985262D01*
X-693136Y11924569D01*
X-696646Y11923518D01*
X-696651Y11923517D01*
X-1024461Y11825377D01*
X-1024464Y11825376D01*
X-1027971Y11824326D01*
X-1348904Y11685889D01*
X-1651596Y11511130D01*
X-1931953Y11302412D01*
X-2186183Y11062558D01*
X-2410849Y10794811D01*
X-2602913Y10502793D01*
X-2604552Y10499529D01*
X-2750803Y10208319D01*
X-2759777Y10190451D01*
X-2761030Y10187008D01*
X-2761031Y10187006D01*
X-2847713Y9948847D01*
X-2879319Y9862011D01*
X-2959923Y9521914D01*
X-3000500Y9174759D01*
X-3000500Y8825241D01*
X-8488591Y8825241D01*
X-5617824Y12925003D01*
X-5610425Y12934559D01*
X-5529218Y13029641D01*
X-5511849Y13046415D01*
X-5418235Y13120878D01*
X-5397997Y13134020D01*
X-5306464Y13181669D01*
X-5291903Y13189249D01*
X-5269511Y13198296D01*
X-5238400Y13207512D01*
X-5154830Y13232266D01*
X-5131130Y13236873D01*
X-5046269Y13245045D01*
X-5006022Y13248920D01*
X-4993946Y13249500D01*
X17955350Y13249500D01*
X17955364Y13249499D01*
G37*
%TD.AperFunction*%
%TD*%
M02*
