M48
; DRILL file {KiCad 7.99.0-1.20230926git54171ec.fc37} date 2023-10-10T16:27:55+0100
; FORMAT={-:-/ absolute / metric / decimal}
; #@! TF.CreationDate,2023-10-10T16:27:55+01:00
; #@! TF.GenerationSoftware,Kicad,Pcbnew,7.99.0-1.20230926git54171ec.fc37
; #@! TF.FileFunction,Plated,1,6,PTH
FMAT,2
METRIC
; #@! TA.AperFunction,Plated,PTH,ViaDrill
T1C0.300
; #@! TA.AperFunction,Plated,PTH,ViaDrill
T2C0.400
%
G90
G05
T1
X0.05Y-14.25
X0.1Y-15.8
X0.1Y-23.85
X0.1Y-31.6
X1.6Y-19.0
X1.65Y-20.25
X3.3Y-15.6
X3.3Y-17.3
X4.65Y-20.6
X4.9Y-14.3
X5.125Y-11.974
X9.95Y2.7
X10.3Y1.9
X10.35Y4.55
X10.6Y0.55
X14.5Y1.25
X14.625Y0.05
X15.425Y-0.95
X16.4Y-9.0
T2
X8.925Y-16.175
X9.525Y3.775
X12.2Y-6.4
X13.9Y3.525
X16.2Y-4.3
X16.2Y-5.1
T0
M30
