%TF.GenerationSoftware,KiCad,Pcbnew,7.99.0-1.20230926git54171ec.fc37*%
%TF.CreationDate,2023-10-03T14:22:34+01:00*%
%TF.ProjectId,bugg-led-r5,62756767-2d6c-4656-942d-72352e6b6963,rev?*%
%TF.SameCoordinates,Original*%
%TF.FileFunction,Copper,L1,Top*%
%TF.FilePolarity,Positive*%
%FSLAX46Y46*%
G04 Gerber Fmt 4.6, Leading zero omitted, Abs format (unit mm)*
G04 Created by KiCad (PCBNEW 7.99.0-1.20230926git54171ec.fc37) date 2023-10-03 14:22:34*
%MOMM*%
%LPD*%
G01*
G04 APERTURE LIST*
%TA.AperFunction,ViaPad*%
%ADD10C,0.800000*%
%TD*%
%TA.AperFunction,ViaPad*%
%ADD11C,0.600000*%
%TD*%
%TA.AperFunction,Conductor*%
%ADD12C,0.300000*%
%TD*%
%TA.AperFunction,Conductor*%
%ADD13C,0.250000*%
%TD*%
%TA.AperFunction,Conductor*%
%ADD14C,0.600000*%
%TD*%
G04 APERTURE END LIST*
D10*
%TO.N,GND*%
X9525000Y3775000D03*
X16200000Y-5100000D03*
X16200000Y-4300000D03*
X13900000Y3525000D03*
X8925000Y-16175000D03*
D11*
%TO.N,+3V3*%
X10350000Y4550000D03*
D10*
X12200000Y-6400000D03*
D11*
%TO.N,Net-(LED201-GK)*%
X50000Y-14250000D03*
X3300000Y-17300000D03*
%TO.N,/LED1_B*%
X10600000Y550000D03*
X5125010Y-11974398D03*
%TO.N,/LED1_G*%
X4900000Y-14300000D03*
X10300000Y1900000D03*
%TO.N,/LED1_R*%
X9950000Y2700000D03*
X3300000Y-15600000D03*
%TO.N,/LED2_B*%
X15425010Y-950000D03*
X4650000Y-20600000D03*
%TO.N,/LED2_G*%
X14625010Y50000D03*
X1650000Y-20250000D03*
%TO.N,/LED2_R*%
X14500000Y1250000D03*
X1600000Y-19000000D03*
%TO.N,+5V*%
X100000Y-23850000D03*
X100000Y-15800000D03*
X100000Y-31600000D03*
X16400000Y-9000000D03*
%TD*%
D12*
%TO.N,+3V3*%
X12200000Y2700000D02*
X10350000Y4550000D01*
X12200000Y-6400000D02*
X12200000Y2700000D01*
D13*
%TO.N,Net-(LED201-GK)*%
X50000Y-14250000D02*
X3100000Y-17300000D01*
X3100000Y-17300000D02*
X3300000Y-17300000D01*
%TO.N,/LED1_B*%
X10600000Y-6499408D02*
X5125010Y-11974398D01*
X10600000Y550000D02*
X10600000Y-6499408D01*
%TO.N,/LED1_G*%
X4900000Y-14300000D02*
X4900000Y-13050000D01*
X4500000Y-11436411D02*
X9950011Y-5986400D01*
X4900000Y-13050000D02*
X4500000Y-12650000D01*
X4500000Y-12650000D02*
X4500000Y-11436411D01*
X9950011Y1550011D02*
X10300000Y1900000D01*
X9950011Y-5986400D02*
X9950011Y1550011D01*
%TO.N,/LED1_R*%
X9500000Y-5800000D02*
X3300000Y-12000000D01*
X9950000Y2700000D02*
X9500000Y2250000D01*
X3300000Y-12000000D02*
X3300000Y-15600000D01*
X9500000Y2250000D02*
X9500000Y-5800000D01*
%TO.N,/LED2_B*%
X11050000Y-20600000D02*
X15425010Y-16224990D01*
X15425010Y-16224990D02*
X15425010Y-950000D01*
X4650000Y-20600000D02*
X11050000Y-20600000D01*
%TO.N,/LED2_G*%
X2500000Y-19400000D02*
X10986410Y-19400000D01*
X10986410Y-19400000D02*
X14625010Y-15761400D01*
X14625010Y-15761400D02*
X14625010Y50000D01*
X1650000Y-20250000D02*
X2500000Y-19400000D01*
%TO.N,/LED2_R*%
X1600000Y-19000000D02*
X2300000Y-18300000D01*
X14000000Y-15750000D02*
X14000000Y750000D01*
X14000000Y750000D02*
X14500000Y1250000D01*
X11450000Y-18300000D02*
X14000000Y-15750000D01*
X2300000Y-18300000D02*
X11450000Y-18300000D01*
D14*
%TO.N,+5V*%
X16400000Y-16750000D02*
X16400000Y-9000000D01*
X2250000Y-21700000D02*
X11450000Y-21700000D01*
X100000Y-23850000D02*
X2250000Y-21700000D01*
X100000Y-31600000D02*
X100000Y-23850000D01*
X11450000Y-21700000D02*
X16400000Y-16750000D01*
X100000Y-23850000D02*
X100000Y-15800000D01*
%TD*%
%TA.AperFunction,Conductor*%
%TO.N,GND*%
G36*
X17945275Y13249408D02*
G01*
X17955567Y13249425D01*
X17955568Y13249425D01*
X17957237Y13249427D01*
X17996637Y13249493D01*
X18002825Y13249199D01*
X18133659Y13236513D01*
X18157932Y13231719D01*
X18274838Y13196407D01*
X18297706Y13186962D01*
X18405451Y13129489D01*
X18426034Y13115756D01*
X18520474Y13038332D01*
X18537976Y13020842D01*
X18615463Y12926457D01*
X18629209Y12905885D01*
X18686759Y12798175D01*
X18696219Y12775314D01*
X18731611Y12658436D01*
X18736423Y12634164D01*
X18749198Y12503333D01*
X18749496Y12497145D01*
X18749445Y12445559D01*
X18749500Y12444928D01*
X18749500Y-16058432D01*
X18749314Y-16063268D01*
X18741583Y-16163747D01*
X18738650Y-16182746D01*
X18717018Y-16275336D01*
X18711229Y-16293666D01*
X18675762Y-16381893D01*
X18667253Y-16399130D01*
X18615083Y-16487171D01*
X18612475Y-16491212D01*
X18582392Y-16534138D01*
X18582265Y-16534357D01*
X3983060Y-37384248D01*
X3982184Y-37385293D01*
X3952692Y-37427412D01*
X3948990Y-37432193D01*
X3865522Y-37529921D01*
X3848149Y-37546698D01*
X3754706Y-37621027D01*
X3734448Y-37634183D01*
X3628526Y-37689322D01*
X3606132Y-37698369D01*
X3491643Y-37732282D01*
X3467934Y-37736891D01*
X3376592Y-37745686D01*
X3339997Y-37749210D01*
X3333963Y-37749500D01*
X-3496906Y-37749500D01*
X-3503085Y-37749196D01*
X-3633866Y-37736315D01*
X-3658090Y-37731497D01*
X-3774948Y-37696049D01*
X-3797769Y-37686596D01*
X-3905457Y-37629035D01*
X-3925995Y-37615312D01*
X-4020384Y-37537849D01*
X-4037849Y-37520384D01*
X-4115312Y-37425995D01*
X-4129035Y-37405457D01*
X-4186596Y-37297769D01*
X-4196049Y-37274948D01*
X-4231497Y-37158090D01*
X-4236315Y-37133866D01*
X-4249196Y-37003085D01*
X-4249500Y-36996906D01*
X-4249500Y-35556330D01*
X-1254290Y-35556330D01*
X-1224075Y-35779387D01*
X-1154517Y-35993464D01*
X-1047852Y-36191681D01*
X-907508Y-36367666D01*
X-737996Y-36515765D01*
X-544764Y-36631215D01*
X-334024Y-36710307D01*
X-334019Y-36710307D01*
X-334019Y-36710308D01*
X-259184Y-36723888D01*
X-112547Y-36750500D01*
X-112546Y-36750500D01*
X56149Y-36750500D01*
X56155Y-36750500D01*
X213759Y-36736315D01*
X224189Y-36735377D01*
X224189Y-36735376D01*
X399507Y-36686991D01*
X441167Y-36675494D01*
X441167Y-36675493D01*
X441170Y-36675493D01*
X643973Y-36577829D01*
X826078Y-36445522D01*
X981632Y-36282825D01*
X1105635Y-36094968D01*
X1194103Y-35887988D01*
X1244191Y-35668537D01*
X1254290Y-35443670D01*
X1224075Y-35220613D01*
X1154517Y-35006536D01*
X1099897Y-34905035D01*
X1047855Y-34808324D01*
X1047851Y-34808317D01*
X907506Y-34632332D01*
X737998Y-34484237D01*
X737996Y-34484235D01*
X544764Y-34368785D01*
X334024Y-34289693D01*
X334019Y-34289691D01*
X144091Y-34255224D01*
X112547Y-34249500D01*
X-56155Y-34249500D01*
X-97870Y-34253254D01*
X-224189Y-34264622D01*
X-224189Y-34264623D01*
X-441167Y-34324505D01*
X-643968Y-34422168D01*
X-643976Y-34422173D01*
X-826078Y-34554478D01*
X-826079Y-34554479D01*
X-981630Y-34717172D01*
X-1041795Y-34808319D01*
X-1105635Y-34905032D01*
X-1194103Y-35112012D01*
X-1244191Y-35331463D01*
X-1254290Y-35556330D01*
X-4249500Y-35556330D01*
X-4249500Y-14250000D01*
X-505250Y-14250000D01*
X-486330Y-14393709D01*
X-453977Y-14471817D01*
X-430862Y-14527624D01*
X-342621Y-14642621D01*
X-227624Y-14730862D01*
X-181964Y-14749774D01*
X-93709Y-14786330D01*
X35479Y-14803338D01*
X100407Y-14832060D01*
X108128Y-14839165D01*
X310060Y-15041097D01*
X344086Y-15103409D01*
X339021Y-15174224D01*
X296474Y-15231060D01*
X229954Y-15255871D01*
X212366Y-15255898D01*
X166290Y-15252746D01*
X156710Y-15252091D01*
X152795Y-15251700D01*
X141558Y-15250221D01*
X100003Y-15244750D01*
X99999Y-15244750D01*
X95166Y-15245386D01*
X70138Y-15246169D01*
X62079Y-15245619D01*
X62078Y-15245619D01*
X62077Y-15245619D01*
X10212Y-15256396D01*
X5618Y-15257175D01*
X-43709Y-15263670D01*
X-43711Y-15263670D01*
X-51798Y-15267020D01*
X-74366Y-15273972D01*
X-86085Y-15276408D01*
X-130016Y-15299171D01*
X-134887Y-15301437D01*
X-177621Y-15319136D01*
X-177624Y-15319138D01*
X-177625Y-15319139D01*
X-187652Y-15326832D01*
X-206380Y-15338739D01*
X-220445Y-15346027D01*
X-254039Y-15377401D01*
X-258689Y-15381341D01*
X-292620Y-15407378D01*
X-302678Y-15420485D01*
X-316635Y-15435862D01*
X-331044Y-15449320D01*
X-335282Y-15456290D01*
X-353103Y-15485595D01*
X-356953Y-15491217D01*
X-372347Y-15511280D01*
X-380861Y-15522375D01*
X-380861Y-15522376D01*
X-380862Y-15522377D01*
X-388666Y-15541217D01*
X-397414Y-15558460D01*
X-409672Y-15578618D01*
X-415663Y-15600000D01*
X-420184Y-15616135D01*
X-422645Y-15623252D01*
X-436330Y-15656291D01*
X-439496Y-15680347D01*
X-443086Y-15697878D01*
X-450500Y-15724335D01*
X-450500Y-15724339D01*
X-450500Y-15759787D01*
X-451040Y-15768019D01*
X-455250Y-15799999D01*
X-455250Y-15800000D01*
X-451040Y-15831980D01*
X-450500Y-15840212D01*
X-450500Y-23809787D01*
X-451040Y-23818019D01*
X-455250Y-23849999D01*
X-455250Y-23858261D01*
X-455931Y-23858261D01*
X-455901Y-23860363D01*
X-455647Y-23860355D01*
X-455352Y-23868967D01*
X-455351Y-23868968D01*
X-455352Y-23868972D01*
X-452332Y-23886487D01*
X-450500Y-23907895D01*
X-450500Y-31559787D01*
X-451040Y-31568019D01*
X-455250Y-31600000D01*
X-450978Y-31632445D01*
X-450589Y-31636348D01*
X-450500Y-31637635D01*
X-450500Y-31637658D01*
X-446082Y-31669791D01*
X-445566Y-31673550D01*
X-443278Y-31690926D01*
X-436331Y-31743704D01*
X-436241Y-31744382D01*
X-435259Y-31749244D01*
X-435070Y-31749914D01*
X-435070Y-31749920D01*
X-406785Y-31815035D01*
X-380861Y-31877625D01*
X-380853Y-31877634D01*
X-377566Y-31883328D01*
X-375186Y-31888051D01*
X-374780Y-31888718D01*
X-374780Y-31888720D01*
X-331969Y-31941341D01*
X-292621Y-31992621D01*
X-292612Y-31992627D01*
X-286779Y-31998462D01*
X-287260Y-31998943D01*
X-285753Y-32000408D01*
X-285579Y-32000222D01*
X-279287Y-32006096D01*
X-279278Y-32006108D01*
X-226412Y-32043424D01*
X-177625Y-32080861D01*
X-177620Y-32080862D01*
X-170467Y-32084994D01*
X-170546Y-32085132D01*
X-155863Y-32093224D01*
X-155647Y-32093377D01*
X-99098Y-32113474D01*
X-96160Y-32114603D01*
X-43709Y-32136330D01*
X-42749Y-32136456D01*
X-16994Y-32142654D01*
X-13056Y-32144054D01*
X43298Y-32147908D01*
X47202Y-32148299D01*
X100000Y-32155250D01*
X100001Y-32155250D01*
X104823Y-32154615D01*
X129868Y-32153830D01*
X137921Y-32154381D01*
X189795Y-32143600D01*
X194357Y-32142826D01*
X243709Y-32136330D01*
X251795Y-32132980D01*
X274377Y-32126024D01*
X286085Y-32123592D01*
X330024Y-32100822D01*
X334887Y-32098562D01*
X377625Y-32080861D01*
X387652Y-32073165D01*
X406390Y-32061254D01*
X420447Y-32053971D01*
X454057Y-32022580D01*
X458673Y-32018669D01*
X492621Y-31992621D01*
X502681Y-31979509D01*
X516632Y-31964139D01*
X531044Y-31950680D01*
X553105Y-31914401D01*
X556952Y-31908781D01*
X580861Y-31877625D01*
X588668Y-31858774D01*
X597416Y-31841535D01*
X609672Y-31821382D01*
X620182Y-31783870D01*
X622644Y-31776750D01*
X624831Y-31771469D01*
X636330Y-31743709D01*
X639495Y-31719656D01*
X643087Y-31702116D01*
X650500Y-31675665D01*
X650500Y-31640212D01*
X651040Y-31631980D01*
X655250Y-31600000D01*
X655250Y-31599999D01*
X651040Y-31568019D01*
X650500Y-31559787D01*
X650500Y-24130214D01*
X670502Y-24062093D01*
X687405Y-24041119D01*
X2441119Y-22287405D01*
X2503431Y-22253379D01*
X2530214Y-22250500D01*
X11440603Y-22250500D01*
X11506826Y-22252762D01*
X11532730Y-22246448D01*
X11549772Y-22242296D01*
X11556116Y-22241090D01*
X11561444Y-22240357D01*
X11599920Y-22235070D01*
X11616225Y-22227986D01*
X11636590Y-22221138D01*
X11653852Y-22216933D01*
X11692402Y-22195256D01*
X11698167Y-22192394D01*
X11738720Y-22174780D01*
X11752506Y-22163563D01*
X11770264Y-22151477D01*
X11785759Y-22142766D01*
X11817033Y-22111490D01*
X11821805Y-22107184D01*
X11856108Y-22079278D01*
X11866360Y-22064752D01*
X11880197Y-22048326D01*
X14329497Y-19599026D01*
X16782604Y-17145920D01*
X16831043Y-17100681D01*
X16854015Y-17062903D01*
X16857650Y-17057563D01*
X16884361Y-17022342D01*
X16890880Y-17005809D01*
X16900437Y-16986566D01*
X16909672Y-16971382D01*
X16921603Y-16928795D01*
X16923649Y-16922710D01*
X16939876Y-16881564D01*
X16941694Y-16863879D01*
X16945704Y-16842779D01*
X16950500Y-16825665D01*
X16950500Y-16781452D01*
X16950831Y-16775004D01*
X16955352Y-16731029D01*
X16952332Y-16713511D01*
X16950500Y-16692104D01*
X16950500Y-9040212D01*
X16951040Y-9031980D01*
X16953285Y-9014926D01*
X16955250Y-9000000D01*
X16950978Y-8967553D01*
X16950589Y-8963652D01*
X16950500Y-8962362D01*
X16950500Y-8962342D01*
X16945566Y-8926450D01*
X16936330Y-8856291D01*
X16936329Y-8856290D01*
X16936241Y-8855617D01*
X16935263Y-8850770D01*
X16935070Y-8850085D01*
X16935070Y-8850080D01*
X16906785Y-8784964D01*
X16904157Y-8778618D01*
X16880864Y-8722380D01*
X16877561Y-8716660D01*
X16875192Y-8711957D01*
X16874781Y-8711282D01*
X16874780Y-8711281D01*
X16874780Y-8711280D01*
X16831969Y-8658658D01*
X16792621Y-8607379D01*
X16792620Y-8607378D01*
X16792616Y-8607373D01*
X16786783Y-8601540D01*
X16787260Y-8601062D01*
X16785751Y-8599595D01*
X16785581Y-8599778D01*
X16779276Y-8593890D01*
X16748710Y-8572315D01*
X16726412Y-8556575D01*
X16677625Y-8519139D01*
X16677617Y-8519135D01*
X16670474Y-8515011D01*
X16670553Y-8514874D01*
X16655875Y-8506784D01*
X16655646Y-8506622D01*
X16599148Y-8486542D01*
X16596139Y-8485385D01*
X16543710Y-8463670D01*
X16542737Y-8463542D01*
X16516998Y-8457346D01*
X16513064Y-8455947D01*
X16513053Y-8455945D01*
X16469536Y-8452968D01*
X16456707Y-8452091D01*
X16452798Y-8451700D01*
X16432957Y-8449088D01*
X16400003Y-8444750D01*
X16399999Y-8444750D01*
X16395166Y-8445386D01*
X16370138Y-8446169D01*
X16362079Y-8445619D01*
X16362078Y-8445619D01*
X16362076Y-8445619D01*
X16310210Y-8456396D01*
X16305617Y-8457174D01*
X16256287Y-8463670D01*
X16248200Y-8467020D01*
X16225633Y-8473972D01*
X16213914Y-8476408D01*
X16169988Y-8499168D01*
X16165112Y-8501437D01*
X16122375Y-8519138D01*
X16112345Y-8526835D01*
X16093618Y-8538740D01*
X16079554Y-8546027D01*
X16079551Y-8546029D01*
X16045956Y-8577404D01*
X16041308Y-8581342D01*
X16003218Y-8610572D01*
X15936999Y-8636176D01*
X15867450Y-8621914D01*
X15816651Y-8572315D01*
X15800510Y-8510613D01*
X15800510Y-1407704D01*
X15820512Y-1339583D01*
X15826537Y-1331013D01*
X15905871Y-1227625D01*
X15961340Y-1093709D01*
X15980260Y-950000D01*
X15961340Y-806291D01*
X15940849Y-756821D01*
X15905872Y-672375D01*
X15817631Y-557378D01*
X15702634Y-469137D01*
X15568719Y-413670D01*
X15425010Y-394750D01*
X15281302Y-413669D01*
X15249301Y-426924D01*
X15178711Y-434510D01*
X15115225Y-402729D01*
X15079000Y-341669D01*
X15081536Y-270718D01*
X15101125Y-233809D01*
X15105871Y-227625D01*
X15161340Y-93709D01*
X15180260Y50000D01*
X15161340Y193709D01*
X15126361Y278155D01*
X15105872Y327624D01*
X15017631Y442621D01*
X14902635Y530861D01*
X14821407Y564506D01*
X14766128Y609052D01*
X14743706Y676415D01*
X14761263Y745206D01*
X14792922Y780876D01*
X14892621Y857378D01*
X14980862Y972375D01*
X15015839Y1056821D01*
X15036330Y1106291D01*
X15055250Y1250000D01*
X15036330Y1393709D01*
X14991144Y1502800D01*
X14980862Y1527624D01*
X14892621Y1642621D01*
X14777624Y1730862D01*
X14716233Y1756290D01*
X14643709Y1786330D01*
X14500000Y1805250D01*
X14356291Y1786330D01*
X14306821Y1765839D01*
X14222375Y1730862D01*
X14107378Y1642621D01*
X14019137Y1527624D01*
X13963670Y1393709D01*
X13946661Y1264520D01*
X13917938Y1199593D01*
X13910834Y1191872D01*
X13771258Y1052296D01*
X13751080Y1035909D01*
X13742164Y1030084D01*
X13720392Y1002111D01*
X13715230Y996268D01*
X13712480Y993518D01*
X13712479Y993516D01*
X13712478Y993516D01*
X13698905Y974504D01*
X13665191Y931189D01*
X13665190Y931186D01*
X13665188Y931184D01*
X13661450Y924277D01*
X13657990Y917200D01*
X13657990Y917199D01*
X13642329Y864596D01*
X13629638Y827625D01*
X13624499Y812656D01*
X13623207Y804914D01*
X13622231Y797087D01*
X13624500Y742244D01*
X13624500Y-8339817D01*
X13604498Y-8407938D01*
X13550842Y-8454431D01*
X13480568Y-8464535D01*
X13426924Y-8443513D01*
X13327929Y-8375181D01*
X13327925Y-8375179D01*
X13168870Y-8314859D01*
X13042378Y-8299500D01*
X13042372Y-8299500D01*
X12957628Y-8299500D01*
X12957621Y-8299500D01*
X12831129Y-8314859D01*
X12672074Y-8375179D01*
X12672070Y-8375181D01*
X12532071Y-8471816D01*
X12532069Y-8471818D01*
X12419270Y-8599142D01*
X12419265Y-8599148D01*
X12340210Y-8749774D01*
X12340209Y-8749777D01*
X12299130Y-8916443D01*
X12263406Y-8977797D01*
X12200183Y-9010099D01*
X12151430Y-9009710D01*
X12101742Y-8999500D01*
X12101741Y-8999500D01*
X11949258Y-8999500D01*
X11949256Y-8999500D01*
X11835806Y-9011037D01*
X11766011Y-8998029D01*
X11714329Y-8949352D01*
X11700720Y-8915836D01*
X11659791Y-8749778D01*
X11659790Y-8749776D01*
X11659790Y-8749775D01*
X11580734Y-8599148D01*
X11564959Y-8581342D01*
X11467930Y-8471818D01*
X11467928Y-8471816D01*
X11327929Y-8375181D01*
X11327925Y-8375179D01*
X11168870Y-8314859D01*
X11042378Y-8299500D01*
X11042372Y-8299500D01*
X10957628Y-8299500D01*
X10957621Y-8299500D01*
X10831129Y-8314859D01*
X10672074Y-8375179D01*
X10672070Y-8375181D01*
X10532071Y-8471816D01*
X10532069Y-8471818D01*
X10419270Y-8599142D01*
X10419265Y-8599148D01*
X10340210Y-8749774D01*
X10340208Y-8749778D01*
X10299500Y-8914940D01*
X10299500Y-9085059D01*
X10340208Y-9250221D01*
X10340210Y-9250225D01*
X10419265Y-9400851D01*
X10419270Y-9400857D01*
X10532069Y-9528181D01*
X10532071Y-9528183D01*
X10672070Y-9624818D01*
X10672074Y-9624820D01*
X10765318Y-9660182D01*
X10831128Y-9685140D01*
X10898560Y-9693327D01*
X10963769Y-9721393D01*
X11003457Y-9780261D01*
X11005111Y-9841131D01*
X11006904Y-9841406D01*
X11005936Y-9847722D01*
X10995630Y-10050936D01*
X11012636Y-10161938D01*
X11003180Y-10232302D01*
X10957184Y-10286384D01*
X10903276Y-10306099D01*
X10831129Y-10314859D01*
X10672074Y-10375179D01*
X10672070Y-10375181D01*
X10532071Y-10471816D01*
X10532069Y-10471818D01*
X10419270Y-10599142D01*
X10419265Y-10599148D01*
X10340210Y-10749774D01*
X10340208Y-10749778D01*
X10299500Y-10914940D01*
X10299500Y-11085059D01*
X10340208Y-11250221D01*
X10340210Y-11250225D01*
X10419265Y-11400851D01*
X10419270Y-11400857D01*
X10532069Y-11528181D01*
X10532071Y-11528183D01*
X10672070Y-11624818D01*
X10672074Y-11624820D01*
X10761172Y-11658609D01*
X10831128Y-11685140D01*
X10957628Y-11700500D01*
X10957632Y-11700500D01*
X11042368Y-11700500D01*
X11042372Y-11700500D01*
X11168872Y-11685140D01*
X11327930Y-11624818D01*
X11467929Y-11528183D01*
X11580734Y-11400852D01*
X11659790Y-11250225D01*
X11700500Y-11085056D01*
X11700500Y-11085053D01*
X11700869Y-11083556D01*
X11736592Y-11022201D01*
X11799815Y-10989900D01*
X11848565Y-10990287D01*
X11898259Y-11000500D01*
X11898263Y-11000500D01*
X12050741Y-11000500D01*
X12050742Y-11000500D01*
X12050743Y-11000499D01*
X12050760Y-11000499D01*
X12138411Y-10991584D01*
X12164192Y-10988963D01*
X12233986Y-11001970D01*
X12285670Y-11050646D01*
X12299279Y-11084162D01*
X12340209Y-11250222D01*
X12340210Y-11250225D01*
X12419265Y-11400851D01*
X12419270Y-11400857D01*
X12532069Y-11528181D01*
X12532071Y-11528183D01*
X12672070Y-11624818D01*
X12672074Y-11624820D01*
X12761172Y-11658609D01*
X12831128Y-11685140D01*
X12957628Y-11700500D01*
X12957632Y-11700500D01*
X13042368Y-11700500D01*
X13042372Y-11700500D01*
X13168872Y-11685140D01*
X13327930Y-11624818D01*
X13426924Y-11556486D01*
X13494348Y-11534250D01*
X13563091Y-11551997D01*
X13611326Y-11604091D01*
X13624500Y-11660182D01*
X13624500Y-12339817D01*
X13604498Y-12407938D01*
X13550842Y-12454431D01*
X13480568Y-12464535D01*
X13426924Y-12443513D01*
X13327929Y-12375181D01*
X13327925Y-12375179D01*
X13168870Y-12314859D01*
X13042378Y-12299500D01*
X13042372Y-12299500D01*
X12957628Y-12299500D01*
X12957621Y-12299500D01*
X12831129Y-12314859D01*
X12672074Y-12375179D01*
X12672070Y-12375181D01*
X12532071Y-12471816D01*
X12532069Y-12471818D01*
X12419270Y-12599142D01*
X12419265Y-12599148D01*
X12340210Y-12749774D01*
X12340209Y-12749777D01*
X12299130Y-12916443D01*
X12263406Y-12977797D01*
X12200183Y-13010099D01*
X12151430Y-13009710D01*
X12101742Y-12999500D01*
X12101741Y-12999500D01*
X11949258Y-12999500D01*
X11949256Y-12999500D01*
X11835806Y-13011037D01*
X11766011Y-12998029D01*
X11714329Y-12949352D01*
X11700720Y-12915836D01*
X11659791Y-12749778D01*
X11659790Y-12749776D01*
X11659790Y-12749775D01*
X11580734Y-12599148D01*
X11579707Y-12597989D01*
X11467930Y-12471818D01*
X11467928Y-12471816D01*
X11327929Y-12375181D01*
X11327925Y-12375179D01*
X11168870Y-12314859D01*
X11042378Y-12299500D01*
X11042372Y-12299500D01*
X10957628Y-12299500D01*
X10957621Y-12299500D01*
X10831129Y-12314859D01*
X10672074Y-12375179D01*
X10672070Y-12375181D01*
X10532071Y-12471816D01*
X10532069Y-12471818D01*
X10419270Y-12599142D01*
X10419265Y-12599148D01*
X10340210Y-12749774D01*
X10340208Y-12749778D01*
X10299500Y-12914940D01*
X10299500Y-13085059D01*
X10340208Y-13250221D01*
X10340210Y-13250225D01*
X10419265Y-13400851D01*
X10419270Y-13400857D01*
X10532069Y-13528181D01*
X10532071Y-13528183D01*
X10672070Y-13624818D01*
X10672074Y-13624820D01*
X10765318Y-13660182D01*
X10831128Y-13685140D01*
X10898560Y-13693327D01*
X10963769Y-13721393D01*
X11003457Y-13780261D01*
X11005111Y-13841131D01*
X11006904Y-13841406D01*
X11005936Y-13847722D01*
X10995630Y-14050936D01*
X11012636Y-14161938D01*
X11003180Y-14232302D01*
X10957184Y-14286384D01*
X10903276Y-14306099D01*
X10831129Y-14314859D01*
X10672074Y-14375179D01*
X10672070Y-14375181D01*
X10532071Y-14471816D01*
X10532069Y-14471818D01*
X10419270Y-14599142D01*
X10419265Y-14599148D01*
X10340210Y-14749774D01*
X10340208Y-14749778D01*
X10299500Y-14914940D01*
X10299500Y-15085059D01*
X10340208Y-15250221D01*
X10340210Y-15250225D01*
X10419265Y-15400851D01*
X10419270Y-15400857D01*
X10532069Y-15528181D01*
X10532071Y-15528183D01*
X10672070Y-15624818D01*
X10672074Y-15624820D01*
X10761172Y-15658609D01*
X10831128Y-15685140D01*
X10957628Y-15700500D01*
X10957632Y-15700500D01*
X11042368Y-15700500D01*
X11042372Y-15700500D01*
X11168872Y-15685140D01*
X11327930Y-15624818D01*
X11467929Y-15528183D01*
X11580734Y-15400852D01*
X11659790Y-15250225D01*
X11700500Y-15085056D01*
X11700500Y-15085053D01*
X11700869Y-15083556D01*
X11736592Y-15022201D01*
X11799815Y-14989900D01*
X11848565Y-14990287D01*
X11898259Y-15000500D01*
X11898263Y-15000500D01*
X12050741Y-15000500D01*
X12050742Y-15000500D01*
X12050743Y-15000499D01*
X12050760Y-15000499D01*
X12138411Y-14991584D01*
X12164192Y-14988963D01*
X12233986Y-15001970D01*
X12285670Y-15050646D01*
X12299279Y-15084162D01*
X12340209Y-15250222D01*
X12340210Y-15250225D01*
X12419265Y-15400851D01*
X12419270Y-15400857D01*
X12532069Y-15528181D01*
X12532071Y-15528183D01*
X12672070Y-15624818D01*
X12672074Y-15624820D01*
X12761172Y-15658609D01*
X12831128Y-15685140D01*
X12957628Y-15700500D01*
X12957632Y-15700500D01*
X13042368Y-15700500D01*
X13042372Y-15700500D01*
X13080228Y-15695903D01*
X13168869Y-15685141D01*
X13168872Y-15685140D01*
X13207965Y-15670313D01*
X13278751Y-15664860D01*
X13341249Y-15698542D01*
X13375616Y-15760666D01*
X13370941Y-15831508D01*
X13341740Y-15877221D01*
X11331367Y-17887595D01*
X11269055Y-17921620D01*
X11242272Y-17924500D01*
X3761615Y-17924500D01*
X3693494Y-17904498D01*
X3647001Y-17850842D01*
X3636897Y-17780568D01*
X3666391Y-17715988D01*
X3684909Y-17698539D01*
X3692622Y-17692620D01*
X3780862Y-17577624D01*
X3807611Y-17513043D01*
X3836330Y-17443709D01*
X3855250Y-17300000D01*
X3836330Y-17156291D01*
X3813296Y-17100680D01*
X3780862Y-17022375D01*
X3692621Y-16907378D01*
X3577624Y-16819137D01*
X3443709Y-16763670D01*
X3300000Y-16744750D01*
X3163476Y-16762723D01*
X3093328Y-16751785D01*
X3057935Y-16726897D01*
X1931038Y-15600000D01*
X2744750Y-15600000D01*
X2763670Y-15743709D01*
X2819137Y-15877624D01*
X2907378Y-15992621D01*
X3022375Y-16080862D01*
X3106821Y-16115839D01*
X3156291Y-16136330D01*
X3300000Y-16155250D01*
X3443709Y-16136330D01*
X3528155Y-16101351D01*
X3577624Y-16080862D01*
X3692621Y-15992621D01*
X3780862Y-15877624D01*
X3806342Y-15816107D01*
X3836330Y-15743709D01*
X3855250Y-15600000D01*
X3836330Y-15456291D01*
X3804517Y-15379486D01*
X3780862Y-15322375D01*
X3701538Y-15218999D01*
X3675937Y-15152779D01*
X3675500Y-15142295D01*
X3675500Y-12207727D01*
X3695502Y-12139606D01*
X3712405Y-12118632D01*
X3909405Y-11921632D01*
X3971717Y-11887606D01*
X4042532Y-11892671D01*
X4099368Y-11935218D01*
X4124179Y-12001738D01*
X4124500Y-12010727D01*
X4124500Y-12597989D01*
X4121818Y-12623846D01*
X4119632Y-12634267D01*
X4121967Y-12652994D01*
X4124016Y-12669436D01*
X4124500Y-12677225D01*
X4124500Y-12681114D01*
X4128342Y-12704140D01*
X4135132Y-12758620D01*
X4137383Y-12766180D01*
X4139933Y-12773608D01*
X4166055Y-12821877D01*
X4190174Y-12871212D01*
X4194755Y-12877627D01*
X4199576Y-12883822D01*
X4233379Y-12914940D01*
X4239971Y-12921008D01*
X4487596Y-13168633D01*
X4521620Y-13230944D01*
X4524500Y-13257727D01*
X4524500Y-13842295D01*
X4504498Y-13910416D01*
X4498462Y-13918999D01*
X4419137Y-14022375D01*
X4363670Y-14156290D01*
X4344750Y-14299999D01*
X4344750Y-14300000D01*
X4363670Y-14443709D01*
X4419137Y-14577624D01*
X4507378Y-14692621D01*
X4622375Y-14780862D01*
X4706821Y-14815839D01*
X4756291Y-14836330D01*
X4900000Y-14855250D01*
X5043709Y-14836330D01*
X5128155Y-14801351D01*
X5177624Y-14780862D01*
X5292621Y-14692621D01*
X5380862Y-14577624D01*
X5401572Y-14527624D01*
X5436330Y-14443709D01*
X5455250Y-14300000D01*
X5436330Y-14156291D01*
X5415619Y-14106290D01*
X5380862Y-14022375D01*
X5301538Y-13918999D01*
X5275937Y-13852779D01*
X5275500Y-13842295D01*
X5275500Y-13102009D01*
X5278181Y-13076153D01*
X5280367Y-13065731D01*
X5275983Y-13030565D01*
X5275500Y-13022773D01*
X5275500Y-13018885D01*
X5271655Y-12995847D01*
X5264865Y-12941377D01*
X5264865Y-12941374D01*
X5264862Y-12941369D01*
X5262619Y-12933833D01*
X5260064Y-12926388D01*
X5233943Y-12878119D01*
X5217982Y-12845473D01*
X5209826Y-12828788D01*
X5209825Y-12828787D01*
X5205269Y-12822405D01*
X5200421Y-12816176D01*
X5160041Y-12779003D01*
X5116287Y-12735248D01*
X5082261Y-12672936D01*
X5087326Y-12602121D01*
X5129873Y-12545285D01*
X5188934Y-12521232D01*
X5268719Y-12510728D01*
X5402634Y-12455260D01*
X5517631Y-12367019D01*
X5605872Y-12252022D01*
X5645836Y-12155537D01*
X5661340Y-12118107D01*
X5678348Y-11988915D01*
X5707070Y-11923990D01*
X5714163Y-11916280D01*
X10828742Y-6801701D01*
X10848918Y-6785317D01*
X10857836Y-6779492D01*
X10879606Y-6751519D01*
X10884771Y-6745672D01*
X10887519Y-6742926D01*
X10901085Y-6723924D01*
X10934809Y-6680597D01*
X10934809Y-6680594D01*
X10938553Y-6673677D01*
X10942010Y-6666607D01*
X10957670Y-6614003D01*
X10975500Y-6562068D01*
X10975500Y-6562063D01*
X10976794Y-6554307D01*
X10977768Y-6546495D01*
X10975500Y-6491652D01*
X10975500Y92295D01*
X10995502Y160416D01*
X11001538Y168999D01*
X11080862Y272375D01*
X11115839Y356821D01*
X11136330Y406291D01*
X11155250Y550000D01*
X11136330Y693709D01*
X11093510Y797088D01*
X11080862Y827624D01*
X10992621Y942621D01*
X10877624Y1030862D01*
X10828155Y1051351D01*
X10743709Y1086330D01*
X10600000Y1105250D01*
X10467955Y1087865D01*
X10397810Y1098804D01*
X10344711Y1145931D01*
X10325511Y1212787D01*
X10325511Y1237609D01*
X10345513Y1305730D01*
X10399169Y1352223D01*
X10435058Y1362530D01*
X10443703Y1363668D01*
X10443710Y1363670D01*
X10577624Y1419137D01*
X10692621Y1507378D01*
X10780862Y1622375D01*
X10815839Y1706821D01*
X10836330Y1756291D01*
X10855250Y1900000D01*
X10836330Y2043709D01*
X10801351Y2128155D01*
X10780862Y2177624D01*
X10692621Y2292621D01*
X10686801Y2297087D01*
X10577625Y2380861D01*
X10554086Y2390610D01*
X10498806Y2435155D01*
X10476382Y2502518D01*
X10484624Y2548199D01*
X10484193Y2548315D01*
X10485576Y2553478D01*
X10485894Y2555239D01*
X10486330Y2556291D01*
X10505250Y2700000D01*
X10486330Y2843709D01*
X10447131Y2938345D01*
X10430862Y2977624D01*
X10342621Y3092621D01*
X10227624Y3180862D01*
X10178155Y3201351D01*
X10093709Y3236330D01*
X9950000Y3255250D01*
X9806291Y3236330D01*
X9756821Y3215839D01*
X9672375Y3180862D01*
X9557378Y3092621D01*
X9469137Y2977624D01*
X9413670Y2843709D01*
X9396661Y2714520D01*
X9367938Y2649593D01*
X9360834Y2641872D01*
X9271258Y2552296D01*
X9251080Y2535909D01*
X9242164Y2530084D01*
X9220392Y2502111D01*
X9215230Y2496268D01*
X9212480Y2493518D01*
X9212479Y2493516D01*
X9212478Y2493516D01*
X9204197Y2481916D01*
X9198905Y2474504D01*
X9165191Y2431189D01*
X9165190Y2431186D01*
X9165188Y2431184D01*
X9161450Y2424277D01*
X9157990Y2417200D01*
X9142329Y2364596D01*
X9124499Y2312656D01*
X9123207Y2304914D01*
X9122231Y2297087D01*
X9124500Y2242244D01*
X9124500Y902962D01*
X9104498Y834841D01*
X9050842Y788348D01*
X8980568Y778244D01*
X8915988Y807738D01*
X8880099Y859868D01*
X8831455Y993516D01*
X8759777Y1190451D01*
X8602913Y1502793D01*
X8410849Y1794811D01*
X8186183Y2062558D01*
X7931953Y2302412D01*
X7651596Y2511130D01*
X7348904Y2685889D01*
X7027971Y2824326D01*
X6693136Y2924569D01*
X6348927Y2985262D01*
X6087305Y3000500D01*
X5912695Y3000500D01*
X5651073Y2985262D01*
X5306864Y2924569D01*
X4972029Y2824326D01*
X4830859Y2763431D01*
X4683807Y2699999D01*
X4651096Y2685889D01*
X4348404Y2511130D01*
X4068047Y2302412D01*
X4068045Y2302410D01*
X3813813Y2062554D01*
X3677415Y1900000D01*
X3597911Y1805250D01*
X3589147Y1794806D01*
X3397091Y1502800D01*
X3397089Y1502796D01*
X3397087Y1502793D01*
X3240223Y1190451D01*
X3240221Y1190447D01*
X3240221Y1190446D01*
X3240219Y1190441D01*
X3120683Y862019D01*
X3120681Y862012D01*
X3120681Y862011D01*
X3112531Y827624D01*
X3040078Y521919D01*
X3040076Y521909D01*
X2999500Y174761D01*
X2999500Y-174761D01*
X3029860Y-434510D01*
X3040077Y-521914D01*
X3115867Y-841701D01*
X3120681Y-862010D01*
X3120683Y-862019D01*
X3240219Y-1190441D01*
X3240223Y-1190451D01*
X3349332Y-1407704D01*
X3397091Y-1502800D01*
X3589147Y-1794806D01*
X3813813Y-2062554D01*
X3813816Y-2062556D01*
X3813817Y-2062558D01*
X4068047Y-2302412D01*
X4348404Y-2511130D01*
X4651096Y-2685889D01*
X4972029Y-2824326D01*
X5306864Y-2924569D01*
X5651073Y-2985262D01*
X5912695Y-3000500D01*
X5912701Y-3000500D01*
X6087299Y-3000500D01*
X6087305Y-3000500D01*
X6348927Y-2985262D01*
X6693136Y-2924569D01*
X7027971Y-2824326D01*
X7348904Y-2685889D01*
X7651596Y-2511130D01*
X7931953Y-2302412D01*
X8186183Y-2062558D01*
X8410849Y-1794811D01*
X8602913Y-1502793D01*
X8759777Y-1190451D01*
X8879319Y-862011D01*
X8879319Y-862010D01*
X8880099Y-859868D01*
X8922193Y-802696D01*
X8988514Y-777358D01*
X9058006Y-791899D01*
X9108605Y-841701D01*
X9124500Y-902962D01*
X9124500Y-5592271D01*
X9104498Y-5660392D01*
X9087595Y-5681366D01*
X3071255Y-11697705D01*
X3051080Y-11714090D01*
X3042166Y-11719914D01*
X3042165Y-11719915D01*
X3020403Y-11747872D01*
X3015244Y-11753716D01*
X3012481Y-11756479D01*
X2998904Y-11775496D01*
X2965190Y-11818810D01*
X2961448Y-11825726D01*
X2957989Y-11832801D01*
X2942329Y-11885403D01*
X2924499Y-11937341D01*
X2923209Y-11945073D01*
X2922231Y-11952915D01*
X2924500Y-12007755D01*
X2924500Y-15142295D01*
X2904498Y-15210416D01*
X2898462Y-15218999D01*
X2819137Y-15322375D01*
X2763670Y-15456290D01*
X2744750Y-15599999D01*
X2744750Y-15600000D01*
X1931038Y-15600000D01*
X639165Y-14308127D01*
X605139Y-14245815D01*
X603338Y-14235479D01*
X602920Y-14232302D01*
X586330Y-14106291D01*
X563402Y-14050936D01*
X530862Y-13972375D01*
X442621Y-13857378D01*
X327624Y-13769137D01*
X193709Y-13713670D01*
X50000Y-13694750D01*
X-93709Y-13713670D01*
X-227624Y-13769137D01*
X-342621Y-13857378D01*
X-430862Y-13972375D01*
X-463402Y-14050936D01*
X-486330Y-14106291D01*
X-505250Y-14250000D01*
X-4249500Y-14250000D01*
X-4249500Y-9174759D01*
X-3000500Y-9174759D01*
X-2959923Y-9521914D01*
X-2879319Y-9862011D01*
X-2759777Y-10190451D01*
X-2602913Y-10502793D01*
X-2410849Y-10794811D01*
X-2186183Y-11062558D01*
X-1931953Y-11302412D01*
X-1651596Y-11511130D01*
X-1348904Y-11685889D01*
X-1027971Y-11824326D01*
X-693136Y-11924569D01*
X-348927Y-11985262D01*
X-87305Y-12000500D01*
X-87299Y-12000500D01*
X87299Y-12000500D01*
X87305Y-12000500D01*
X348927Y-11985262D01*
X693136Y-11924569D01*
X1027971Y-11824326D01*
X1348904Y-11685889D01*
X1651596Y-11511130D01*
X1931953Y-11302412D01*
X2186183Y-11062558D01*
X2410849Y-10794811D01*
X2602913Y-10502793D01*
X2759777Y-10190451D01*
X2879319Y-9862011D01*
X2959923Y-9521914D01*
X3000500Y-9174759D01*
X3000500Y-8825241D01*
X2995792Y-8784964D01*
X2976734Y-8621914D01*
X2959923Y-8478086D01*
X2879319Y-8137989D01*
X2759777Y-7809549D01*
X2602913Y-7497207D01*
X2410849Y-7205189D01*
X2281049Y-7050499D01*
X2186186Y-6937445D01*
X1931954Y-6697589D01*
X1909128Y-6680596D01*
X1651596Y-6488870D01*
X1497674Y-6400003D01*
X1348906Y-6314112D01*
X1348901Y-6314109D01*
X1027978Y-6175677D01*
X1027977Y-6175676D01*
X1027971Y-6175674D01*
X693136Y-6075431D01*
X348927Y-6014738D01*
X348922Y-6014737D01*
X348916Y-6014737D01*
X216290Y-6007012D01*
X87305Y-5999500D01*
X-87305Y-5999500D01*
X-216290Y-6007012D01*
X-348916Y-6014737D01*
X-348922Y-6014737D01*
X-348927Y-6014738D01*
X-693136Y-6075431D01*
X-1027971Y-6175674D01*
X-1027977Y-6175676D01*
X-1027978Y-6175677D01*
X-1348901Y-6314109D01*
X-1348906Y-6314112D01*
X-1497674Y-6400003D01*
X-1651596Y-6488870D01*
X-1909128Y-6680596D01*
X-1931954Y-6697589D01*
X-2186186Y-6937445D01*
X-2281049Y-7050499D01*
X-2410849Y-7205189D01*
X-2602913Y-7497207D01*
X-2759777Y-7809549D01*
X-2879319Y-8137989D01*
X-2959923Y-8478086D01*
X-2976734Y-8621914D01*
X-2995792Y-8784964D01*
X-3000500Y-8825241D01*
X-3000500Y-9174759D01*
X-4249500Y-9174759D01*
X-4249500Y-5901587D01*
X-4257072Y-5853780D01*
X-4280291Y-5707174D01*
X-4280291Y-5707173D01*
X-4280292Y-5707168D01*
X-4341114Y-5519978D01*
X-4341117Y-5519972D01*
X-4430478Y-5344591D01*
X-4546173Y-5185351D01*
X-4685351Y-5046173D01*
X-4844591Y-4930478D01*
X-5019972Y-4841117D01*
X-5019978Y-4841114D01*
X-5207168Y-4780292D01*
X-5207174Y-4780291D01*
X-5401584Y-4749500D01*
X-5401587Y-4749500D01*
X-8996448Y-4749500D01*
X-9002667Y-4749192D01*
X-9133468Y-4736224D01*
X-9157662Y-4731398D01*
X-9274557Y-4695886D01*
X-9297350Y-4686437D01*
X-9405079Y-4628827D01*
X-9425593Y-4615118D01*
X-9520036Y-4537613D01*
X-9537485Y-4520168D01*
X-9615009Y-4425750D01*
X-9628723Y-4405240D01*
X-9686360Y-4297525D01*
X-9695815Y-4274736D01*
X-9731359Y-4157848D01*
X-9736191Y-4133653D01*
X-9749191Y-4002861D01*
X-9749500Y-3996626D01*
X-9749500Y-174759D01*
X-9000500Y-174759D01*
X-8959923Y-521914D01*
X-8879319Y-862011D01*
X-8759777Y-1190451D01*
X-8602913Y-1502793D01*
X-8410849Y-1794811D01*
X-8186183Y-2062558D01*
X-7931953Y-2302412D01*
X-7651596Y-2511130D01*
X-7348904Y-2685889D01*
X-7027971Y-2824326D01*
X-6693136Y-2924569D01*
X-6348927Y-2985262D01*
X-6087305Y-3000500D01*
X-6087299Y-3000500D01*
X-5912701Y-3000500D01*
X-5912695Y-3000500D01*
X-5651073Y-2985262D01*
X-5306864Y-2924569D01*
X-4972029Y-2824326D01*
X-4651096Y-2685889D01*
X-4348404Y-2511130D01*
X-4068047Y-2302412D01*
X-3813817Y-2062558D01*
X-3813816Y-2062556D01*
X-3813813Y-2062554D01*
X-3589147Y-1794806D01*
X-3397091Y-1502800D01*
X-3349332Y-1407704D01*
X-3240223Y-1190451D01*
X-3240219Y-1190441D01*
X-3120683Y-862019D01*
X-3120681Y-862010D01*
X-3115867Y-841701D01*
X-3040077Y-521914D01*
X-3029860Y-434510D01*
X-2999500Y-174761D01*
X-2999500Y174761D01*
X-3040076Y521909D01*
X-3040078Y521919D01*
X-3112531Y827624D01*
X-3120681Y862011D01*
X-3120681Y862012D01*
X-3120683Y862019D01*
X-3240219Y1190441D01*
X-3240221Y1190446D01*
X-3240221Y1190447D01*
X-3240223Y1190451D01*
X-3397087Y1502793D01*
X-3397089Y1502796D01*
X-3397091Y1502800D01*
X-3589147Y1794806D01*
X-3597911Y1805250D01*
X-3677415Y1900000D01*
X-3813813Y2062554D01*
X-4068045Y2302410D01*
X-4068047Y2302412D01*
X-4348404Y2511130D01*
X-4651096Y2685889D01*
X-4683807Y2699999D01*
X-4830859Y2763431D01*
X-4972029Y2824326D01*
X-5306864Y2924569D01*
X-5651073Y2985262D01*
X-5912695Y3000500D01*
X-6087305Y3000500D01*
X-6348927Y2985262D01*
X-6693136Y2924569D01*
X-7027971Y2824326D01*
X-7348904Y2685889D01*
X-7651596Y2511130D01*
X-7931953Y2302412D01*
X-8186183Y2062558D01*
X-8410849Y1794811D01*
X-8602913Y1502793D01*
X-8759777Y1190451D01*
X-8879319Y862011D01*
X-8959923Y521914D01*
X-9000500Y174759D01*
X-9000500Y-174759D01*
X-9749500Y-174759D01*
X-9749500Y4549999D01*
X9794750Y4549999D01*
X9813670Y4406290D01*
X9869137Y4272375D01*
X9957378Y4157378D01*
X10072375Y4069137D01*
X10206289Y4013670D01*
X10206291Y4013669D01*
X10294764Y4002021D01*
X10359691Y3973297D01*
X10367411Y3966194D01*
X11762595Y2571011D01*
X11796620Y2508699D01*
X11799500Y2481916D01*
X11799500Y-5829044D01*
X11779498Y-5897165D01*
X11757054Y-5923356D01*
X11709515Y-5965472D01*
X11619783Y-6095470D01*
X11619782Y-6095473D01*
X11563761Y-6243184D01*
X11544722Y-6399996D01*
X11544722Y-6400003D01*
X11563761Y-6556815D01*
X11565754Y-6562069D01*
X11619780Y-6704523D01*
X11619781Y-6704525D01*
X11619782Y-6704526D01*
X11619783Y-6704529D01*
X11680480Y-6792463D01*
X11709517Y-6834530D01*
X11827760Y-6939283D01*
X11967635Y-7012696D01*
X11967636Y-7012696D01*
X11967638Y-7012697D01*
X12044325Y-7031598D01*
X12121015Y-7050500D01*
X12121017Y-7050500D01*
X12278983Y-7050500D01*
X12278985Y-7050500D01*
X12432365Y-7012696D01*
X12572240Y-6939283D01*
X12690483Y-6834530D01*
X12780220Y-6704523D01*
X12836237Y-6556818D01*
X12836237Y-6556817D01*
X12836238Y-6556815D01*
X12855278Y-6400003D01*
X12855278Y-6399996D01*
X12836238Y-6243184D01*
X12828392Y-6222498D01*
X12780220Y-6095477D01*
X12780216Y-6095472D01*
X12780216Y-6095470D01*
X12690484Y-5965472D01*
X12690483Y-5965470D01*
X12642945Y-5923355D01*
X12605221Y-5863211D01*
X12600500Y-5829044D01*
X12600500Y2763431D01*
X12600500Y2763433D01*
X12593700Y2784360D01*
X12589088Y2803569D01*
X12585646Y2825304D01*
X12575655Y2844910D01*
X12568095Y2863161D01*
X12561296Y2884090D01*
X12548362Y2901891D01*
X12538034Y2918746D01*
X12528050Y2938342D01*
X12512673Y2953717D01*
X12512667Y2953726D01*
X12285531Y3180862D01*
X10933801Y4532590D01*
X10899779Y4594899D01*
X10897977Y4605237D01*
X10886330Y4693709D01*
X10830862Y4827624D01*
X10742621Y4942621D01*
X10627624Y5030862D01*
X10578155Y5051351D01*
X10493709Y5086330D01*
X10350000Y5105250D01*
X10206291Y5086330D01*
X10156821Y5065839D01*
X10072375Y5030862D01*
X9957378Y4942621D01*
X9869137Y4827624D01*
X9813670Y4693709D01*
X9794750Y4550000D01*
X9794750Y4549999D01*
X-9749500Y4549999D01*
X-9749500Y6732332D01*
X-9749431Y6733121D01*
X-9749437Y6785491D01*
X-9749254Y6790297D01*
X-9741454Y6892442D01*
X-9738532Y6911443D01*
X-9716923Y7004174D01*
X-9711148Y7022500D01*
X-9675682Y7110872D01*
X-9667185Y7128108D01*
X-9615014Y7216265D01*
X-9612402Y7220317D01*
X-8488590Y8825241D01*
X-3000500Y8825241D01*
X-2959923Y8478086D01*
X-2879319Y8137989D01*
X-2759777Y7809549D01*
X-2602913Y7497207D01*
X-2602908Y7497200D01*
X-2602908Y7497199D01*
X-2410852Y7205193D01*
X-2250055Y7013561D01*
X-2186183Y6937442D01*
X-1931953Y6697588D01*
X-1651596Y6488870D01*
X-1651585Y6488863D01*
X-1651584Y6488863D01*
X-1348906Y6314112D01*
X-1348901Y6314109D01*
X-1027978Y6175677D01*
X-1027971Y6175674D01*
X-693136Y6075431D01*
X-348927Y6014738D01*
X-348922Y6014737D01*
X-348916Y6014737D01*
X-216290Y6007012D01*
X-87305Y5999500D01*
X-87299Y5999500D01*
X87299Y5999500D01*
X87305Y5999500D01*
X216290Y6007012D01*
X348916Y6014737D01*
X348922Y6014737D01*
X348927Y6014738D01*
X693136Y6075431D01*
X1027971Y6175674D01*
X1027978Y6175677D01*
X1348901Y6314109D01*
X1348906Y6314112D01*
X1651584Y6488863D01*
X1651585Y6488863D01*
X1651596Y6488870D01*
X1931953Y6697588D01*
X2186183Y6937442D01*
X2250055Y7013561D01*
X2410852Y7205193D01*
X2602908Y7497199D01*
X2602908Y7497200D01*
X2602913Y7497207D01*
X2759777Y7809549D01*
X2879319Y8137989D01*
X2959923Y8478086D01*
X3000500Y8825241D01*
X3000500Y8885050D01*
X3020502Y8953171D01*
X3063832Y8990717D01*
X3186144Y8990717D01*
X3209012Y8980274D01*
X3247396Y8920548D01*
X3251360Y8901963D01*
X3275925Y8720609D01*
X3345484Y8506532D01*
X3452144Y8308324D01*
X3452148Y8308317D01*
X3592493Y8132332D01*
X3762001Y7984237D01*
X3955235Y7868785D01*
X4165980Y7789691D01*
X4359841Y7754510D01*
X4387453Y7749500D01*
X4387454Y7749500D01*
X4556151Y7749500D01*
X4556155Y7749500D01*
X4597870Y7753254D01*
X4724189Y7764622D01*
X4724189Y7764623D01*
X4941167Y7824505D01*
X5143968Y7922168D01*
X5143976Y7922173D01*
X5326078Y8054478D01*
X5326079Y8054479D01*
X5481630Y8217172D01*
X5605632Y8405027D01*
X5605632Y8405028D01*
X5605635Y8405032D01*
X5694103Y8612012D01*
X5744191Y8831463D01*
X5754290Y9056330D01*
X5724075Y9279387D01*
X5654517Y9493464D01*
X5547852Y9691681D01*
X5407508Y9867666D01*
X5237996Y10015765D01*
X5044764Y10131215D01*
X4834024Y10210307D01*
X4834019Y10210307D01*
X4834019Y10210308D01*
X4695885Y10235376D01*
X4612547Y10250500D01*
X4443845Y10250500D01*
X4296669Y10237254D01*
X4275810Y10235377D01*
X4275810Y10235376D01*
X4184978Y10210308D01*
X4058832Y10175494D01*
X4058830Y10175493D01*
X3856027Y10077829D01*
X3856023Y10077826D01*
X3673921Y9945521D01*
X3673920Y9945520D01*
X3518369Y9782827D01*
X3394367Y9594972D01*
X3394363Y9594964D01*
X3305897Y9387988D01*
X3305896Y9387986D01*
X3255809Y9168538D01*
X3255809Y9168536D01*
X3252373Y9092029D01*
X3229335Y9024874D01*
X3186144Y8990717D01*
X3063832Y8990717D01*
X3066175Y8992747D01*
X3039798Y9006255D01*
X3004133Y9067644D01*
X3000500Y9097682D01*
X3000500Y9174761D01*
X2963248Y9493464D01*
X2959923Y9521914D01*
X2879319Y9862011D01*
X2759777Y10190451D01*
X2602913Y10502793D01*
X2410849Y10794811D01*
X2186183Y11062558D01*
X1931953Y11302412D01*
X1651596Y11511130D01*
X1348904Y11685889D01*
X1027971Y11824326D01*
X693136Y11924569D01*
X348927Y11985262D01*
X87305Y12000500D01*
X-87305Y12000500D01*
X-348927Y11985262D01*
X-693136Y11924569D01*
X-1027971Y11824326D01*
X-1348904Y11685889D01*
X-1651596Y11511130D01*
X-1931953Y11302412D01*
X-2186183Y11062558D01*
X-2410849Y10794811D01*
X-2602913Y10502793D01*
X-2759777Y10190451D01*
X-2879319Y9862011D01*
X-2959923Y9521914D01*
X-3000500Y9174759D01*
X-3000500Y8825241D01*
X-8488590Y8825241D01*
X-5616091Y12927477D01*
X-5612389Y12932258D01*
X-5529218Y13029641D01*
X-5511842Y13046420D01*
X-5418244Y13120870D01*
X-5397988Y13134024D01*
X-5291904Y13189248D01*
X-5269510Y13198296D01*
X-5154836Y13232264D01*
X-5131127Y13236873D01*
X-5022023Y13247379D01*
X-5003010Y13249210D01*
X-4996971Y13249500D01*
X-4955830Y13249500D01*
X17944217Y13249500D01*
X17945275Y13249408D01*
G37*
%TD.AperFunction*%
%TD*%
M02*
