%TF.GenerationSoftware,KiCad,Pcbnew,7.99.0-1.20230926git54171ec.fc37*%
%TF.CreationDate,2023-10-10T16:27:55+01:00*%
%TF.ProjectId,bugg-led-r5,62756767-2d6c-4656-942d-72352e6b6963,rev?*%
%TF.SameCoordinates,Original*%
%TF.FileFunction,Copper,L5,Inr*%
%TF.FilePolarity,Positive*%
%FSLAX46Y46*%
G04 Gerber Fmt 4.6, Leading zero omitted, Abs format (unit mm)*
G04 Created by KiCad (PCBNEW 7.99.0-1.20230926git54171ec.fc37) date 2023-10-10 16:27:55*
%MOMM*%
%LPD*%
G01*
G04 APERTURE LIST*
%TA.AperFunction,ViaPad*%
%ADD10C,0.800000*%
%TD*%
%TA.AperFunction,ViaPad*%
%ADD11C,0.600000*%
%TD*%
G04 APERTURE END LIST*
D10*
%TO.N,GND*%
X9525000Y3775000D03*
X16200000Y-5100000D03*
X16200000Y-4300000D03*
X13900000Y3525000D03*
X8925000Y-16175000D03*
D11*
%TO.N,+3V3*%
X10350000Y4550000D03*
D10*
X12200000Y-6400000D03*
D11*
%TO.N,Net-(LED201-GK)*%
X50000Y-14250000D03*
X3300000Y-17300000D03*
%TO.N,/LED1_B*%
X10600000Y550000D03*
X5125010Y-11974398D03*
%TO.N,/LED1_G*%
X4900000Y-14300000D03*
X10300000Y1900000D03*
%TO.N,/LED1_R*%
X9950000Y2700000D03*
X3300000Y-15600000D03*
%TO.N,/LED2_B*%
X15425010Y-950000D03*
X4650000Y-20600000D03*
%TO.N,/LED2_G*%
X14625010Y50000D03*
X1650000Y-20250000D03*
%TO.N,/LED2_R*%
X14500000Y1250000D03*
X1600000Y-19000000D03*
%TO.N,+5V*%
X100000Y-23850000D03*
X100000Y-15800000D03*
X100000Y-31600000D03*
X16400000Y-9000000D03*
%TD*%
%TA.AperFunction,Conductor*%
%TO.N,GND*%
G36*
X17945275Y13249408D02*
G01*
X17955567Y13249425D01*
X17955568Y13249425D01*
X17957237Y13249427D01*
X17996637Y13249493D01*
X18002825Y13249199D01*
X18133659Y13236513D01*
X18157932Y13231719D01*
X18274838Y13196407D01*
X18297706Y13186962D01*
X18405451Y13129489D01*
X18426034Y13115756D01*
X18520474Y13038332D01*
X18537976Y13020842D01*
X18615463Y12926457D01*
X18629209Y12905885D01*
X18686759Y12798175D01*
X18696219Y12775314D01*
X18731611Y12658436D01*
X18736423Y12634164D01*
X18749198Y12503333D01*
X18749496Y12497145D01*
X18749445Y12445559D01*
X18749500Y12444928D01*
X18749500Y-16058432D01*
X18749314Y-16063268D01*
X18741583Y-16163747D01*
X18738650Y-16182746D01*
X18717018Y-16275336D01*
X18711229Y-16293666D01*
X18675762Y-16381893D01*
X18667253Y-16399130D01*
X18615083Y-16487171D01*
X18612475Y-16491212D01*
X18582392Y-16534138D01*
X18582265Y-16534357D01*
X3983060Y-37384248D01*
X3982184Y-37385293D01*
X3952692Y-37427412D01*
X3948990Y-37432193D01*
X3865522Y-37529921D01*
X3848149Y-37546698D01*
X3754706Y-37621027D01*
X3734448Y-37634183D01*
X3628526Y-37689322D01*
X3606132Y-37698369D01*
X3491643Y-37732282D01*
X3467934Y-37736891D01*
X3376592Y-37745686D01*
X3339997Y-37749210D01*
X3333963Y-37749500D01*
X-3496906Y-37749500D01*
X-3503085Y-37749196D01*
X-3633866Y-37736315D01*
X-3658090Y-37731497D01*
X-3774948Y-37696049D01*
X-3797769Y-37686596D01*
X-3905457Y-37629035D01*
X-3925995Y-37615312D01*
X-4020384Y-37537849D01*
X-4037849Y-37520384D01*
X-4115312Y-37425995D01*
X-4129035Y-37405457D01*
X-4186596Y-37297769D01*
X-4196049Y-37274948D01*
X-4231497Y-37158090D01*
X-4236315Y-37133866D01*
X-4249196Y-37003085D01*
X-4249500Y-36996906D01*
X-4249500Y-35556330D01*
X-1254290Y-35556330D01*
X-1224075Y-35779387D01*
X-1154517Y-35993464D01*
X-1047852Y-36191681D01*
X-907508Y-36367666D01*
X-737996Y-36515765D01*
X-544764Y-36631215D01*
X-334024Y-36710307D01*
X-334019Y-36710307D01*
X-334019Y-36710308D01*
X-259184Y-36723888D01*
X-112547Y-36750500D01*
X-112546Y-36750500D01*
X56149Y-36750500D01*
X56155Y-36750500D01*
X213759Y-36736315D01*
X224189Y-36735377D01*
X224189Y-36735376D01*
X399507Y-36686991D01*
X441167Y-36675494D01*
X441167Y-36675493D01*
X441170Y-36675493D01*
X643973Y-36577829D01*
X826078Y-36445522D01*
X981632Y-36282825D01*
X1105635Y-36094968D01*
X1194103Y-35887988D01*
X1244191Y-35668537D01*
X1254290Y-35443670D01*
X1224075Y-35220613D01*
X1154517Y-35006536D01*
X1099897Y-34905035D01*
X1047855Y-34808324D01*
X1047851Y-34808317D01*
X907506Y-34632332D01*
X737998Y-34484237D01*
X737996Y-34484235D01*
X544764Y-34368785D01*
X334024Y-34289693D01*
X334019Y-34289691D01*
X144091Y-34255224D01*
X112547Y-34249500D01*
X-56155Y-34249500D01*
X-97870Y-34253254D01*
X-224189Y-34264622D01*
X-224189Y-34264623D01*
X-441167Y-34324505D01*
X-643968Y-34422168D01*
X-643976Y-34422173D01*
X-826078Y-34554478D01*
X-826079Y-34554479D01*
X-981630Y-34717172D01*
X-1041795Y-34808319D01*
X-1105635Y-34905032D01*
X-1194103Y-35112012D01*
X-1244191Y-35331463D01*
X-1254290Y-35556330D01*
X-4249500Y-35556330D01*
X-4249500Y-31600000D01*
X-455250Y-31600000D01*
X-436330Y-31743709D01*
X-401351Y-31828155D01*
X-380862Y-31877624D01*
X-292621Y-31992621D01*
X-177624Y-32080862D01*
X-128155Y-32101351D01*
X-43709Y-32136330D01*
X100000Y-32155250D01*
X243709Y-32136330D01*
X328155Y-32101351D01*
X377624Y-32080862D01*
X492621Y-31992621D01*
X580862Y-31877624D01*
X601351Y-31828155D01*
X636330Y-31743709D01*
X655250Y-31600000D01*
X636330Y-31456291D01*
X615839Y-31406821D01*
X580862Y-31322375D01*
X492621Y-31207378D01*
X377624Y-31119137D01*
X243709Y-31063670D01*
X100000Y-31044750D01*
X-43709Y-31063670D01*
X-177624Y-31119137D01*
X-292621Y-31207378D01*
X-380862Y-31322375D01*
X-415839Y-31406821D01*
X-436330Y-31456291D01*
X-455250Y-31600000D01*
X-4249500Y-31600000D01*
X-4249500Y-23850000D01*
X-455250Y-23850000D01*
X-436330Y-23993709D01*
X-401351Y-24078155D01*
X-380862Y-24127624D01*
X-292621Y-24242621D01*
X-177624Y-24330862D01*
X-128155Y-24351351D01*
X-43709Y-24386330D01*
X100000Y-24405250D01*
X243709Y-24386330D01*
X328155Y-24351351D01*
X377624Y-24330862D01*
X492621Y-24242621D01*
X580862Y-24127624D01*
X601351Y-24078155D01*
X636330Y-23993709D01*
X655250Y-23850000D01*
X636330Y-23706291D01*
X615839Y-23656821D01*
X580862Y-23572375D01*
X492621Y-23457378D01*
X377624Y-23369137D01*
X243709Y-23313670D01*
X100000Y-23294750D01*
X-43709Y-23313670D01*
X-177624Y-23369137D01*
X-292621Y-23457378D01*
X-380862Y-23572375D01*
X-415839Y-23656821D01*
X-436330Y-23706291D01*
X-455250Y-23850000D01*
X-4249500Y-23850000D01*
X-4249500Y-19000000D01*
X1044750Y-19000000D01*
X1063670Y-19143709D01*
X1119137Y-19277624D01*
X1207378Y-19392621D01*
X1322375Y-19480862D01*
X1414321Y-19518946D01*
X1469602Y-19563493D01*
X1492024Y-19630857D01*
X1474466Y-19699648D01*
X1422505Y-19748027D01*
X1414321Y-19751764D01*
X1372375Y-19769137D01*
X1257378Y-19857378D01*
X1169137Y-19972375D01*
X1113670Y-20106290D01*
X1094750Y-20249999D01*
X1094750Y-20250000D01*
X1113670Y-20393709D01*
X1169137Y-20527624D01*
X1257378Y-20642621D01*
X1372375Y-20730862D01*
X1456821Y-20765839D01*
X1506291Y-20786330D01*
X1650000Y-20805250D01*
X1793709Y-20786330D01*
X1896607Y-20743709D01*
X1927624Y-20730862D01*
X2042621Y-20642621D01*
X2075326Y-20600000D01*
X4094750Y-20600000D01*
X4113670Y-20743709D01*
X4169137Y-20877624D01*
X4257378Y-20992621D01*
X4372375Y-21080862D01*
X4456821Y-21115839D01*
X4506291Y-21136330D01*
X4650000Y-21155250D01*
X4793709Y-21136330D01*
X4878155Y-21101351D01*
X4927624Y-21080862D01*
X5042621Y-20992621D01*
X5130862Y-20877624D01*
X5168676Y-20786329D01*
X5186330Y-20743709D01*
X5205250Y-20600000D01*
X5186330Y-20456291D01*
X5160408Y-20393709D01*
X5130862Y-20322375D01*
X5042621Y-20207378D01*
X4927624Y-20119137D01*
X4793709Y-20063670D01*
X4650000Y-20044750D01*
X4506290Y-20063670D01*
X4372375Y-20119137D01*
X4257378Y-20207378D01*
X4169137Y-20322375D01*
X4113670Y-20456290D01*
X4094750Y-20599999D01*
X4094750Y-20600000D01*
X2075326Y-20600000D01*
X2130862Y-20527624D01*
X2160408Y-20456290D01*
X2186330Y-20393709D01*
X2205250Y-20250000D01*
X2186330Y-20106291D01*
X2160839Y-20044750D01*
X2130862Y-19972375D01*
X2042621Y-19857378D01*
X1927625Y-19769138D01*
X1835677Y-19731053D01*
X1780396Y-19686505D01*
X1757975Y-19619142D01*
X1775533Y-19550350D01*
X1827495Y-19501972D01*
X1835668Y-19498239D01*
X1877625Y-19480861D01*
X1992621Y-19392621D01*
X2080861Y-19277625D01*
X2080860Y-19277625D01*
X2080862Y-19277624D01*
X2101351Y-19228155D01*
X2136330Y-19143709D01*
X2155250Y-19000000D01*
X2136330Y-18856291D01*
X2115839Y-18806821D01*
X2080862Y-18722375D01*
X1992621Y-18607378D01*
X1877624Y-18519137D01*
X1743709Y-18463670D01*
X1600000Y-18444750D01*
X1456290Y-18463670D01*
X1322375Y-18519137D01*
X1207378Y-18607378D01*
X1119137Y-18722375D01*
X1063670Y-18856290D01*
X1044750Y-18999999D01*
X1044750Y-19000000D01*
X-4249500Y-19000000D01*
X-4249500Y-17300000D01*
X2744750Y-17300000D01*
X2763670Y-17443709D01*
X2819137Y-17577624D01*
X2907378Y-17692621D01*
X3022375Y-17780862D01*
X3106821Y-17815839D01*
X3156291Y-17836330D01*
X3300000Y-17855250D01*
X3443709Y-17836330D01*
X3528155Y-17801351D01*
X3577624Y-17780862D01*
X3692621Y-17692621D01*
X3780862Y-17577624D01*
X3801351Y-17528155D01*
X3836330Y-17443709D01*
X3855250Y-17300000D01*
X3836330Y-17156291D01*
X3815839Y-17106821D01*
X3780862Y-17022375D01*
X3692621Y-16907378D01*
X3577624Y-16819137D01*
X3443709Y-16763670D01*
X3300000Y-16744750D01*
X3156290Y-16763670D01*
X3022375Y-16819137D01*
X2907378Y-16907378D01*
X2819137Y-17022375D01*
X2763670Y-17156290D01*
X2744750Y-17299999D01*
X2744750Y-17300000D01*
X-4249500Y-17300000D01*
X-4249500Y-15800000D01*
X-455250Y-15800000D01*
X-436330Y-15943709D01*
X-416070Y-15992621D01*
X-380862Y-16077624D01*
X-292621Y-16192621D01*
X-177624Y-16280862D01*
X-146711Y-16293666D01*
X-43709Y-16336330D01*
X100000Y-16355250D01*
X243709Y-16336330D01*
X346711Y-16293666D01*
X377624Y-16280862D01*
X492621Y-16192621D01*
X580862Y-16077624D01*
X616070Y-15992621D01*
X636330Y-15943709D01*
X655250Y-15800000D01*
X636330Y-15656291D01*
X613014Y-15600000D01*
X2744750Y-15600000D01*
X2763670Y-15743709D01*
X2819137Y-15877624D01*
X2907378Y-15992621D01*
X3022375Y-16080862D01*
X3106821Y-16115839D01*
X3156291Y-16136330D01*
X3300000Y-16155250D01*
X3443709Y-16136330D01*
X3528155Y-16101351D01*
X3577624Y-16080862D01*
X3692621Y-15992621D01*
X3780862Y-15877624D01*
X3813014Y-15799999D01*
X3836330Y-15743709D01*
X3855250Y-15600000D01*
X3836330Y-15456291D01*
X3813366Y-15400851D01*
X3780862Y-15322375D01*
X3692621Y-15207378D01*
X3577624Y-15119137D01*
X3495349Y-15085059D01*
X10299500Y-15085059D01*
X10340208Y-15250221D01*
X10340210Y-15250225D01*
X10419265Y-15400851D01*
X10419270Y-15400857D01*
X10532069Y-15528181D01*
X10532071Y-15528183D01*
X10672070Y-15624818D01*
X10672074Y-15624820D01*
X10761172Y-15658609D01*
X10831128Y-15685140D01*
X10957628Y-15700500D01*
X10957632Y-15700500D01*
X11042368Y-15700500D01*
X11042372Y-15700500D01*
X11168872Y-15685140D01*
X11327930Y-15624818D01*
X11467929Y-15528183D01*
X11580734Y-15400852D01*
X11659790Y-15250225D01*
X11700500Y-15085056D01*
X11700500Y-15085053D01*
X11700869Y-15083556D01*
X11736592Y-15022201D01*
X11799815Y-14989900D01*
X11848565Y-14990287D01*
X11898259Y-15000500D01*
X11898263Y-15000500D01*
X12050741Y-15000500D01*
X12050742Y-15000500D01*
X12050743Y-15000499D01*
X12050760Y-15000499D01*
X12138411Y-14991584D01*
X12164192Y-14988963D01*
X12233986Y-15001970D01*
X12285670Y-15050646D01*
X12299279Y-15084162D01*
X12340209Y-15250222D01*
X12340210Y-15250225D01*
X12419265Y-15400851D01*
X12419270Y-15400857D01*
X12532069Y-15528181D01*
X12532071Y-15528183D01*
X12672070Y-15624818D01*
X12672074Y-15624820D01*
X12761172Y-15658609D01*
X12831128Y-15685140D01*
X12957628Y-15700500D01*
X12957632Y-15700500D01*
X13042368Y-15700500D01*
X13042372Y-15700500D01*
X13168872Y-15685140D01*
X13327930Y-15624818D01*
X13467929Y-15528183D01*
X13580734Y-15400852D01*
X13659790Y-15250225D01*
X13700500Y-15085056D01*
X13700500Y-14914944D01*
X13659790Y-14749775D01*
X13580734Y-14599148D01*
X13561666Y-14577625D01*
X13467930Y-14471818D01*
X13467928Y-14471816D01*
X13327929Y-14375181D01*
X13327925Y-14375179D01*
X13168870Y-14314859D01*
X13101442Y-14306672D01*
X13036229Y-14278605D01*
X12996542Y-14219737D01*
X12994898Y-14158871D01*
X12993096Y-14158595D01*
X12994064Y-14152278D01*
X13004369Y-13949064D01*
X12997983Y-13907378D01*
X12987363Y-13838058D01*
X12996818Y-13767698D01*
X13042814Y-13713616D01*
X13096718Y-13693901D01*
X13168872Y-13685140D01*
X13327930Y-13624818D01*
X13467929Y-13528183D01*
X13580734Y-13400852D01*
X13659790Y-13250225D01*
X13700500Y-13085056D01*
X13700500Y-12914944D01*
X13659790Y-12749777D01*
X13659790Y-12749776D01*
X13659790Y-12749775D01*
X13580734Y-12599148D01*
X13467929Y-12471817D01*
X13443943Y-12455260D01*
X13327929Y-12375181D01*
X13327925Y-12375179D01*
X13168870Y-12314859D01*
X13042378Y-12299500D01*
X13042372Y-12299500D01*
X12957628Y-12299500D01*
X12957621Y-12299500D01*
X12831129Y-12314859D01*
X12672074Y-12375179D01*
X12672070Y-12375181D01*
X12532071Y-12471816D01*
X12532069Y-12471818D01*
X12419270Y-12599142D01*
X12419265Y-12599148D01*
X12340210Y-12749774D01*
X12340209Y-12749777D01*
X12299130Y-12916443D01*
X12263406Y-12977797D01*
X12200183Y-13010099D01*
X12151430Y-13009710D01*
X12101742Y-12999500D01*
X12101741Y-12999500D01*
X11949258Y-12999500D01*
X11949256Y-12999500D01*
X11835806Y-13011037D01*
X11766011Y-12998029D01*
X11714329Y-12949352D01*
X11700720Y-12915836D01*
X11659791Y-12749778D01*
X11659790Y-12749776D01*
X11659790Y-12749775D01*
X11580734Y-12599148D01*
X11467929Y-12471817D01*
X11443943Y-12455260D01*
X11327929Y-12375181D01*
X11327925Y-12375179D01*
X11168870Y-12314859D01*
X11042378Y-12299500D01*
X11042372Y-12299500D01*
X10957628Y-12299500D01*
X10957621Y-12299500D01*
X10831129Y-12314859D01*
X10672074Y-12375179D01*
X10672070Y-12375181D01*
X10532071Y-12471816D01*
X10532069Y-12471818D01*
X10419270Y-12599142D01*
X10419265Y-12599148D01*
X10340210Y-12749774D01*
X10340208Y-12749778D01*
X10299500Y-12914940D01*
X10299500Y-13085059D01*
X10340208Y-13250221D01*
X10340210Y-13250225D01*
X10419265Y-13400851D01*
X10419270Y-13400857D01*
X10532069Y-13528181D01*
X10532071Y-13528183D01*
X10672070Y-13624818D01*
X10672074Y-13624820D01*
X10831125Y-13685139D01*
X10831128Y-13685140D01*
X10898560Y-13693327D01*
X10963769Y-13721393D01*
X11003457Y-13780261D01*
X11005111Y-13841131D01*
X11006904Y-13841406D01*
X11005936Y-13847722D01*
X10995630Y-14050936D01*
X11012636Y-14161938D01*
X11003180Y-14232302D01*
X10957184Y-14286384D01*
X10903276Y-14306099D01*
X10831129Y-14314859D01*
X10672074Y-14375179D01*
X10672070Y-14375181D01*
X10532071Y-14471816D01*
X10532069Y-14471818D01*
X10419270Y-14599142D01*
X10419265Y-14599148D01*
X10340210Y-14749774D01*
X10340208Y-14749778D01*
X10299500Y-14914940D01*
X10299500Y-15085059D01*
X3495349Y-15085059D01*
X3443709Y-15063670D01*
X3300000Y-15044750D01*
X3156290Y-15063670D01*
X3022375Y-15119137D01*
X2907378Y-15207378D01*
X2819137Y-15322375D01*
X2763670Y-15456290D01*
X2744750Y-15599999D01*
X2744750Y-15600000D01*
X613014Y-15600000D01*
X580862Y-15522375D01*
X492621Y-15407378D01*
X377624Y-15319137D01*
X243709Y-15263670D01*
X100000Y-15244750D01*
X-43709Y-15263670D01*
X-177624Y-15319137D01*
X-292621Y-15407378D01*
X-380862Y-15522375D01*
X-413014Y-15600000D01*
X-436330Y-15656291D01*
X-455250Y-15800000D01*
X-4249500Y-15800000D01*
X-4249500Y-14250000D01*
X-505250Y-14250000D01*
X-486330Y-14393709D01*
X-453977Y-14471817D01*
X-430862Y-14527624D01*
X-342621Y-14642621D01*
X-227624Y-14730862D01*
X-181964Y-14749774D01*
X-93709Y-14786330D01*
X50000Y-14805250D01*
X193709Y-14786330D01*
X281964Y-14749774D01*
X327624Y-14730862D01*
X442621Y-14642621D01*
X530862Y-14527624D01*
X553977Y-14471817D01*
X586330Y-14393709D01*
X598667Y-14300000D01*
X4344750Y-14300000D01*
X4363670Y-14443709D01*
X4419137Y-14577624D01*
X4507378Y-14692621D01*
X4622375Y-14780862D01*
X4706821Y-14815839D01*
X4756291Y-14836330D01*
X4900000Y-14855250D01*
X5043709Y-14836330D01*
X5128155Y-14801351D01*
X5177624Y-14780862D01*
X5292621Y-14692621D01*
X5380862Y-14577624D01*
X5401572Y-14527624D01*
X5436330Y-14443709D01*
X5455250Y-14300000D01*
X5436330Y-14156291D01*
X5415619Y-14106290D01*
X5380862Y-14022375D01*
X5292621Y-13907378D01*
X5177624Y-13819137D01*
X5043709Y-13763670D01*
X4900000Y-13744750D01*
X4756290Y-13763670D01*
X4622375Y-13819137D01*
X4507378Y-13907378D01*
X4419137Y-14022375D01*
X4363670Y-14156290D01*
X4344750Y-14299999D01*
X4344750Y-14300000D01*
X598667Y-14300000D01*
X605250Y-14250000D01*
X586330Y-14106291D01*
X563402Y-14050936D01*
X530862Y-13972375D01*
X442621Y-13857378D01*
X327624Y-13769137D01*
X193709Y-13713670D01*
X50000Y-13694750D01*
X-93709Y-13713670D01*
X-227624Y-13769137D01*
X-342621Y-13857378D01*
X-430862Y-13972375D01*
X-463402Y-14050936D01*
X-486330Y-14106291D01*
X-505250Y-14250000D01*
X-4249500Y-14250000D01*
X-4249500Y-9174759D01*
X-3000500Y-9174759D01*
X-2959923Y-9521914D01*
X-2879319Y-9862011D01*
X-2759777Y-10190451D01*
X-2602913Y-10502793D01*
X-2410849Y-10794811D01*
X-2186183Y-11062558D01*
X-1931953Y-11302412D01*
X-1651596Y-11511130D01*
X-1348904Y-11685889D01*
X-1027971Y-11824326D01*
X-693136Y-11924569D01*
X-348927Y-11985262D01*
X-87305Y-12000500D01*
X-87299Y-12000500D01*
X87299Y-12000500D01*
X87305Y-12000500D01*
X348927Y-11985262D01*
X410540Y-11974398D01*
X4569760Y-11974398D01*
X4588680Y-12118107D01*
X4644147Y-12252022D01*
X4732388Y-12367019D01*
X4847385Y-12455260D01*
X4931831Y-12490237D01*
X4981301Y-12510728D01*
X5125010Y-12529648D01*
X5268719Y-12510728D01*
X5353165Y-12475749D01*
X5402634Y-12455260D01*
X5517631Y-12367019D01*
X5605872Y-12252022D01*
X5626361Y-12202553D01*
X5661340Y-12118107D01*
X5680260Y-11974398D01*
X5661340Y-11830689D01*
X5640849Y-11781219D01*
X5605872Y-11696773D01*
X5517631Y-11581776D01*
X5402634Y-11493535D01*
X5268719Y-11438068D01*
X5125010Y-11419148D01*
X4981300Y-11438068D01*
X4847385Y-11493535D01*
X4732388Y-11581776D01*
X4644147Y-11696773D01*
X4588680Y-11830688D01*
X4569760Y-11974397D01*
X4569760Y-11974398D01*
X410540Y-11974398D01*
X693136Y-11924569D01*
X1027971Y-11824326D01*
X1348904Y-11685889D01*
X1651596Y-11511130D01*
X1931953Y-11302412D01*
X2162333Y-11085059D01*
X10299500Y-11085059D01*
X10340208Y-11250221D01*
X10340210Y-11250225D01*
X10419265Y-11400851D01*
X10419270Y-11400857D01*
X10532069Y-11528181D01*
X10532071Y-11528183D01*
X10672070Y-11624818D01*
X10672074Y-11624820D01*
X10761172Y-11658609D01*
X10831128Y-11685140D01*
X10957628Y-11700500D01*
X10957632Y-11700500D01*
X11042368Y-11700500D01*
X11042372Y-11700500D01*
X11168872Y-11685140D01*
X11327930Y-11624818D01*
X11467929Y-11528183D01*
X11580734Y-11400852D01*
X11659790Y-11250225D01*
X11700500Y-11085056D01*
X11700500Y-11085053D01*
X11700869Y-11083556D01*
X11736592Y-11022201D01*
X11799815Y-10989900D01*
X11848565Y-10990287D01*
X11898259Y-11000500D01*
X11898263Y-11000500D01*
X12050741Y-11000500D01*
X12050742Y-11000500D01*
X12050743Y-11000499D01*
X12050760Y-11000499D01*
X12138411Y-10991584D01*
X12164192Y-10988963D01*
X12233986Y-11001970D01*
X12285670Y-11050646D01*
X12299279Y-11084162D01*
X12340209Y-11250222D01*
X12340210Y-11250225D01*
X12419265Y-11400851D01*
X12419270Y-11400857D01*
X12532069Y-11528181D01*
X12532071Y-11528183D01*
X12672070Y-11624818D01*
X12672074Y-11624820D01*
X12761172Y-11658609D01*
X12831128Y-11685140D01*
X12957628Y-11700500D01*
X12957632Y-11700500D01*
X13042368Y-11700500D01*
X13042372Y-11700500D01*
X13168872Y-11685140D01*
X13327930Y-11624818D01*
X13467929Y-11528183D01*
X13580734Y-11400852D01*
X13659790Y-11250225D01*
X13700500Y-11085056D01*
X13700500Y-10914944D01*
X13659790Y-10749775D01*
X13580734Y-10599148D01*
X13495377Y-10502800D01*
X13467930Y-10471818D01*
X13467928Y-10471816D01*
X13327929Y-10375181D01*
X13327925Y-10375179D01*
X13168870Y-10314859D01*
X13101442Y-10306672D01*
X13036229Y-10278605D01*
X12996542Y-10219737D01*
X12994898Y-10158871D01*
X12993096Y-10158595D01*
X12994064Y-10152278D01*
X13004369Y-9949064D01*
X12987363Y-9838058D01*
X12996818Y-9767698D01*
X13042814Y-9713616D01*
X13096718Y-9693901D01*
X13168872Y-9685140D01*
X13327930Y-9624818D01*
X13467929Y-9528183D01*
X13580734Y-9400852D01*
X13659790Y-9250225D01*
X13700500Y-9085056D01*
X13700500Y-9000000D01*
X15844750Y-9000000D01*
X15863670Y-9143709D01*
X15919137Y-9277624D01*
X16007378Y-9392621D01*
X16122375Y-9480862D01*
X16206821Y-9515839D01*
X16256291Y-9536330D01*
X16400000Y-9555250D01*
X16543709Y-9536330D01*
X16628155Y-9501351D01*
X16677624Y-9480862D01*
X16792621Y-9392621D01*
X16880862Y-9277624D01*
X16901351Y-9228155D01*
X16936330Y-9143709D01*
X16955250Y-9000000D01*
X16936330Y-8856291D01*
X16892212Y-8749778D01*
X16880862Y-8722375D01*
X16792621Y-8607378D01*
X16677624Y-8519137D01*
X16543709Y-8463670D01*
X16400000Y-8444750D01*
X16256290Y-8463670D01*
X16122375Y-8519137D01*
X16007378Y-8607378D01*
X15919137Y-8722375D01*
X15863670Y-8856290D01*
X15844750Y-8999999D01*
X15844750Y-9000000D01*
X13700500Y-9000000D01*
X13700500Y-8914944D01*
X13686043Y-8856290D01*
X13659791Y-8749778D01*
X13659790Y-8749776D01*
X13659790Y-8749775D01*
X13580734Y-8599148D01*
X13509852Y-8519139D01*
X13467930Y-8471818D01*
X13467928Y-8471816D01*
X13327929Y-8375181D01*
X13327925Y-8375179D01*
X13168870Y-8314859D01*
X13042378Y-8299500D01*
X13042372Y-8299500D01*
X12957628Y-8299500D01*
X12957621Y-8299500D01*
X12831129Y-8314859D01*
X12672074Y-8375179D01*
X12672070Y-8375181D01*
X12532071Y-8471816D01*
X12532069Y-8471818D01*
X12419270Y-8599142D01*
X12419265Y-8599148D01*
X12340210Y-8749774D01*
X12340209Y-8749777D01*
X12299130Y-8916443D01*
X12263406Y-8977797D01*
X12200183Y-9010099D01*
X12151430Y-9009710D01*
X12101742Y-8999500D01*
X12101741Y-8999500D01*
X11949258Y-8999500D01*
X11949256Y-8999500D01*
X11835806Y-9011037D01*
X11766011Y-8998029D01*
X11714329Y-8949352D01*
X11700720Y-8915836D01*
X11659791Y-8749778D01*
X11659790Y-8749776D01*
X11659790Y-8749775D01*
X11580734Y-8599148D01*
X11509852Y-8519139D01*
X11467930Y-8471818D01*
X11467928Y-8471816D01*
X11327929Y-8375181D01*
X11327925Y-8375179D01*
X11168870Y-8314859D01*
X11042378Y-8299500D01*
X11042372Y-8299500D01*
X10957628Y-8299500D01*
X10957621Y-8299500D01*
X10831129Y-8314859D01*
X10672074Y-8375179D01*
X10672070Y-8375181D01*
X10532071Y-8471816D01*
X10532069Y-8471818D01*
X10419270Y-8599142D01*
X10419265Y-8599148D01*
X10340210Y-8749774D01*
X10340208Y-8749778D01*
X10299500Y-8914940D01*
X10299500Y-9085059D01*
X10340208Y-9250221D01*
X10340210Y-9250225D01*
X10419265Y-9400851D01*
X10419270Y-9400857D01*
X10532069Y-9528181D01*
X10532071Y-9528183D01*
X10672070Y-9624818D01*
X10672074Y-9624820D01*
X10831125Y-9685139D01*
X10831128Y-9685140D01*
X10898560Y-9693327D01*
X10963769Y-9721393D01*
X11003457Y-9780261D01*
X11005111Y-9841131D01*
X11006904Y-9841406D01*
X11005936Y-9847722D01*
X10995630Y-10050936D01*
X11012636Y-10161938D01*
X11003180Y-10232302D01*
X10957184Y-10286384D01*
X10903276Y-10306099D01*
X10831129Y-10314859D01*
X10672074Y-10375179D01*
X10672070Y-10375181D01*
X10532071Y-10471816D01*
X10532069Y-10471818D01*
X10419270Y-10599142D01*
X10419265Y-10599148D01*
X10340210Y-10749774D01*
X10340208Y-10749778D01*
X10299500Y-10914940D01*
X10299500Y-11085059D01*
X2162333Y-11085059D01*
X2186183Y-11062558D01*
X2410849Y-10794811D01*
X2602913Y-10502793D01*
X2759777Y-10190451D01*
X2879319Y-9862011D01*
X2959923Y-9521914D01*
X3000500Y-9174759D01*
X3000500Y-8825241D01*
X2991679Y-8749777D01*
X2974073Y-8599148D01*
X2959923Y-8478086D01*
X2879319Y-8137989D01*
X2759777Y-7809549D01*
X2602913Y-7497207D01*
X2410849Y-7205189D01*
X2281049Y-7050499D01*
X2186186Y-6937445D01*
X1931954Y-6697589D01*
X1651600Y-6488873D01*
X1651596Y-6488870D01*
X1497674Y-6400003D01*
X11544722Y-6400003D01*
X11563761Y-6556815D01*
X11591771Y-6630670D01*
X11619780Y-6704523D01*
X11619781Y-6704525D01*
X11619782Y-6704526D01*
X11619783Y-6704529D01*
X11709516Y-6834529D01*
X11709517Y-6834530D01*
X11827760Y-6939283D01*
X11967635Y-7012696D01*
X11967636Y-7012696D01*
X11967638Y-7012697D01*
X12044325Y-7031598D01*
X12121015Y-7050500D01*
X12121017Y-7050500D01*
X12278983Y-7050500D01*
X12278985Y-7050500D01*
X12432365Y-7012696D01*
X12572240Y-6939283D01*
X12690483Y-6834530D01*
X12780220Y-6704523D01*
X12836237Y-6556818D01*
X12836237Y-6556817D01*
X12836238Y-6556815D01*
X12855278Y-6400003D01*
X12855278Y-6399996D01*
X12836238Y-6243184D01*
X12828392Y-6222498D01*
X12780220Y-6095477D01*
X12780216Y-6095472D01*
X12780216Y-6095470D01*
X12690483Y-5965470D01*
X12690481Y-5965468D01*
X12572240Y-5860717D01*
X12432365Y-5787304D01*
X12432361Y-5787302D01*
X12278987Y-5749500D01*
X12278985Y-5749500D01*
X12121015Y-5749500D01*
X12121012Y-5749500D01*
X11967638Y-5787302D01*
X11967634Y-5787304D01*
X11827759Y-5860717D01*
X11709518Y-5965468D01*
X11709516Y-5965470D01*
X11619783Y-6095470D01*
X11619782Y-6095473D01*
X11563761Y-6243184D01*
X11544722Y-6399996D01*
X11544722Y-6400003D01*
X1497674Y-6400003D01*
X1348906Y-6314112D01*
X1348901Y-6314109D01*
X1027978Y-6175677D01*
X1027977Y-6175676D01*
X1027971Y-6175674D01*
X693136Y-6075431D01*
X348927Y-6014738D01*
X348922Y-6014737D01*
X348916Y-6014737D01*
X216290Y-6007012D01*
X87305Y-5999500D01*
X-87305Y-5999500D01*
X-216290Y-6007012D01*
X-348916Y-6014737D01*
X-348922Y-6014737D01*
X-348927Y-6014738D01*
X-693136Y-6075431D01*
X-1027971Y-6175674D01*
X-1027977Y-6175676D01*
X-1027978Y-6175677D01*
X-1348901Y-6314109D01*
X-1348906Y-6314112D01*
X-1497674Y-6400003D01*
X-1651596Y-6488870D01*
X-1651600Y-6488873D01*
X-1931954Y-6697589D01*
X-2186186Y-6937445D01*
X-2281049Y-7050499D01*
X-2410849Y-7205189D01*
X-2602913Y-7497207D01*
X-2759777Y-7809549D01*
X-2879319Y-8137989D01*
X-2959923Y-8478086D01*
X-2974073Y-8599148D01*
X-2991679Y-8749777D01*
X-3000500Y-8825241D01*
X-3000500Y-9174759D01*
X-4249500Y-9174759D01*
X-4249500Y-5901587D01*
X-4257072Y-5853780D01*
X-4280291Y-5707174D01*
X-4280291Y-5707173D01*
X-4280292Y-5707168D01*
X-4341114Y-5519978D01*
X-4341117Y-5519972D01*
X-4430478Y-5344591D01*
X-4546173Y-5185351D01*
X-4685351Y-5046173D01*
X-4844591Y-4930478D01*
X-5019972Y-4841117D01*
X-5019978Y-4841114D01*
X-5207168Y-4780292D01*
X-5207174Y-4780291D01*
X-5401584Y-4749500D01*
X-5401587Y-4749500D01*
X-8996448Y-4749500D01*
X-9002667Y-4749192D01*
X-9133468Y-4736224D01*
X-9157662Y-4731398D01*
X-9274557Y-4695886D01*
X-9297350Y-4686437D01*
X-9405079Y-4628827D01*
X-9425593Y-4615118D01*
X-9520036Y-4537613D01*
X-9537485Y-4520168D01*
X-9615009Y-4425750D01*
X-9628723Y-4405240D01*
X-9686360Y-4297525D01*
X-9695815Y-4274736D01*
X-9731359Y-4157848D01*
X-9736191Y-4133653D01*
X-9749191Y-4002861D01*
X-9749500Y-3996626D01*
X-9749500Y-174759D01*
X-9000500Y-174759D01*
X-8959923Y-521914D01*
X-8879319Y-862011D01*
X-8759777Y-1190451D01*
X-8602913Y-1502793D01*
X-8410849Y-1794811D01*
X-8186183Y-2062558D01*
X-7931953Y-2302412D01*
X-7651596Y-2511130D01*
X-7348904Y-2685889D01*
X-7027971Y-2824326D01*
X-6693136Y-2924569D01*
X-6348927Y-2985262D01*
X-6087305Y-3000500D01*
X-6087299Y-3000500D01*
X-5912701Y-3000500D01*
X-5912695Y-3000500D01*
X-5651073Y-2985262D01*
X-5306864Y-2924569D01*
X-4972029Y-2824326D01*
X-4651096Y-2685889D01*
X-4348404Y-2511130D01*
X-4068047Y-2302412D01*
X-3813817Y-2062558D01*
X-3813816Y-2062556D01*
X-3813813Y-2062554D01*
X-3589147Y-1794806D01*
X-3397091Y-1502800D01*
X-3388819Y-1486330D01*
X-3240223Y-1190451D01*
X-3240219Y-1190441D01*
X-3120683Y-862019D01*
X-3120681Y-862010D01*
X-3040078Y-521919D01*
X-3040076Y-521909D01*
X-2999500Y-174761D01*
X2999500Y-174761D01*
X3040076Y-521909D01*
X3040078Y-521919D01*
X3120681Y-862010D01*
X3120683Y-862019D01*
X3240219Y-1190441D01*
X3240223Y-1190451D01*
X3388819Y-1486330D01*
X3397091Y-1502800D01*
X3589147Y-1794806D01*
X3813813Y-2062554D01*
X3813816Y-2062556D01*
X3813817Y-2062558D01*
X4068047Y-2302412D01*
X4348404Y-2511130D01*
X4651096Y-2685889D01*
X4972029Y-2824326D01*
X5306864Y-2924569D01*
X5651073Y-2985262D01*
X5912695Y-3000500D01*
X5912701Y-3000500D01*
X6087299Y-3000500D01*
X6087305Y-3000500D01*
X6348927Y-2985262D01*
X6693136Y-2924569D01*
X7027971Y-2824326D01*
X7348904Y-2685889D01*
X7651596Y-2511130D01*
X7931953Y-2302412D01*
X8186183Y-2062558D01*
X8410849Y-1794811D01*
X8602913Y-1502793D01*
X8759777Y-1190451D01*
X8879319Y-862011D01*
X8959923Y-521914D01*
X9000500Y-174759D01*
X9000500Y174759D01*
X8959923Y521914D01*
X8953267Y549999D01*
X10044750Y549999D01*
X10063670Y406290D01*
X10119137Y272375D01*
X10207378Y157378D01*
X10322375Y69137D01*
X10456290Y13670D01*
X10600000Y-5250D01*
X10743709Y13670D01*
X10877624Y69137D01*
X10992621Y157378D01*
X11080862Y272375D01*
X11115839Y356821D01*
X11136330Y406291D01*
X11155250Y550000D01*
X11136330Y693709D01*
X11100225Y780876D01*
X11080862Y827624D01*
X10992621Y942621D01*
X10877624Y1030862D01*
X10828155Y1051351D01*
X10743709Y1086330D01*
X10600000Y1105250D01*
X10456291Y1086330D01*
X10406821Y1065839D01*
X10322375Y1030862D01*
X10207378Y942621D01*
X10119137Y827624D01*
X10063670Y693709D01*
X10044750Y550000D01*
X10044750Y549999D01*
X8953267Y549999D01*
X8879319Y862011D01*
X8759777Y1190451D01*
X8729871Y1249999D01*
X13944750Y1249999D01*
X13963670Y1106290D01*
X14019137Y972375D01*
X14107378Y857378D01*
X14222374Y769138D01*
X14303601Y735494D01*
X14358882Y690946D01*
X14381303Y623583D01*
X14363745Y554791D01*
X14332087Y519123D01*
X14232388Y442621D01*
X14144147Y327624D01*
X14088680Y193709D01*
X14069760Y50000D01*
X14069760Y49999D01*
X14088680Y-93709D01*
X14144147Y-227624D01*
X14232388Y-342621D01*
X14347385Y-430862D01*
X14430983Y-465488D01*
X14481301Y-486330D01*
X14625010Y-505250D01*
X14768719Y-486330D01*
X14800715Y-473076D01*
X14871304Y-465488D01*
X14934791Y-497268D01*
X14971018Y-558326D01*
X14968484Y-629277D01*
X14948896Y-666188D01*
X14944147Y-672376D01*
X14888680Y-806290D01*
X14869760Y-949999D01*
X14869760Y-950000D01*
X14888680Y-1093709D01*
X14944147Y-1227624D01*
X15032388Y-1342621D01*
X15147385Y-1430862D01*
X15231831Y-1465839D01*
X15281301Y-1486330D01*
X15425010Y-1505250D01*
X15568719Y-1486330D01*
X15653165Y-1451351D01*
X15702634Y-1430862D01*
X15817631Y-1342621D01*
X15905872Y-1227624D01*
X15926361Y-1178155D01*
X15961340Y-1093709D01*
X15980260Y-950000D01*
X15961340Y-806291D01*
X15940849Y-756821D01*
X15905872Y-672375D01*
X15817631Y-557378D01*
X15702634Y-469137D01*
X15568719Y-413670D01*
X15425010Y-394750D01*
X15281302Y-413669D01*
X15249301Y-426924D01*
X15178711Y-434510D01*
X15115225Y-402729D01*
X15079000Y-341669D01*
X15081536Y-270718D01*
X15101125Y-233809D01*
X15105871Y-227625D01*
X15161340Y-93709D01*
X15180260Y50000D01*
X15161340Y193709D01*
X15126361Y278155D01*
X15105872Y327624D01*
X15017631Y442621D01*
X14902635Y530861D01*
X14821407Y564506D01*
X14766128Y609052D01*
X14743706Y676415D01*
X14761263Y745206D01*
X14792922Y780876D01*
X14892621Y857378D01*
X14980862Y972375D01*
X15015839Y1056821D01*
X15036330Y1106291D01*
X15055250Y1250000D01*
X15036330Y1393709D01*
X14991144Y1502800D01*
X14980862Y1527624D01*
X14892621Y1642621D01*
X14777624Y1730862D01*
X14716233Y1756290D01*
X14643709Y1786330D01*
X14500000Y1805250D01*
X14356291Y1786330D01*
X14306821Y1765839D01*
X14222375Y1730862D01*
X14107378Y1642621D01*
X14019137Y1527624D01*
X13963670Y1393709D01*
X13944750Y1250000D01*
X13944750Y1249999D01*
X8729871Y1249999D01*
X8602913Y1502793D01*
X8410849Y1794811D01*
X8186183Y2062558D01*
X7931953Y2302412D01*
X7651596Y2511130D01*
X7348904Y2685889D01*
X7316193Y2699999D01*
X9394750Y2699999D01*
X9413670Y2556290D01*
X9469137Y2422375D01*
X9557378Y2307378D01*
X9672374Y2219138D01*
X9695915Y2209388D01*
X9751196Y2164840D01*
X9773617Y2097476D01*
X9765376Y2051800D01*
X9765807Y2051685D01*
X9764426Y2046531D01*
X9764107Y2044763D01*
X9763669Y2043707D01*
X9744750Y1900000D01*
X9744750Y1899999D01*
X9763670Y1756290D01*
X9819137Y1622375D01*
X9907378Y1507378D01*
X10022375Y1419137D01*
X10156290Y1363670D01*
X10300000Y1344750D01*
X10443709Y1363670D01*
X10577624Y1419137D01*
X10692621Y1507378D01*
X10780862Y1622375D01*
X10815839Y1706821D01*
X10836330Y1756291D01*
X10855250Y1900000D01*
X10836330Y2043709D01*
X10787007Y2162787D01*
X10780862Y2177624D01*
X10692621Y2292621D01*
X10673388Y2307379D01*
X10577625Y2380861D01*
X10554086Y2390610D01*
X10498806Y2435155D01*
X10476382Y2502518D01*
X10484624Y2548199D01*
X10484193Y2548315D01*
X10485576Y2553478D01*
X10485894Y2555239D01*
X10486330Y2556291D01*
X10505250Y2700000D01*
X10486330Y2843709D01*
X10451351Y2928155D01*
X10430862Y2977624D01*
X10342621Y3092621D01*
X10227624Y3180862D01*
X10178155Y3201351D01*
X10093709Y3236330D01*
X9950000Y3255250D01*
X9806291Y3236330D01*
X9756821Y3215839D01*
X9672375Y3180862D01*
X9557378Y3092621D01*
X9469137Y2977624D01*
X9413670Y2843709D01*
X9394750Y2700000D01*
X9394750Y2699999D01*
X7316193Y2699999D01*
X7027971Y2824326D01*
X6693136Y2924569D01*
X6348927Y2985262D01*
X6087305Y3000500D01*
X5912695Y3000500D01*
X5651073Y2985262D01*
X5306864Y2924569D01*
X4972029Y2824326D01*
X4715282Y2713576D01*
X4683807Y2699999D01*
X4651096Y2685889D01*
X4348404Y2511130D01*
X4068047Y2302412D01*
X3920054Y2162787D01*
X3813813Y2062554D01*
X3797999Y2043707D01*
X3597911Y1805250D01*
X3589147Y1794806D01*
X3397091Y1502800D01*
X3397089Y1502796D01*
X3397087Y1502793D01*
X3240223Y1190451D01*
X3240221Y1190447D01*
X3240221Y1190446D01*
X3240219Y1190441D01*
X3120683Y862019D01*
X3120681Y862012D01*
X3120681Y862011D01*
X3112531Y827624D01*
X3040078Y521919D01*
X3040076Y521909D01*
X2999500Y174761D01*
X2999500Y-174761D01*
X-2999500Y-174761D01*
X-2999500Y174761D01*
X-3040076Y521909D01*
X-3040078Y521919D01*
X-3112531Y827624D01*
X-3120681Y862011D01*
X-3120681Y862012D01*
X-3120683Y862019D01*
X-3240219Y1190441D01*
X-3240221Y1190446D01*
X-3240221Y1190447D01*
X-3240223Y1190451D01*
X-3397087Y1502793D01*
X-3397089Y1502796D01*
X-3397091Y1502800D01*
X-3589147Y1794806D01*
X-3597911Y1805250D01*
X-3797999Y2043707D01*
X-3813813Y2062554D01*
X-3920054Y2162787D01*
X-4068047Y2302412D01*
X-4348404Y2511130D01*
X-4651096Y2685889D01*
X-4683807Y2699999D01*
X-4715282Y2713576D01*
X-4972029Y2824326D01*
X-5306864Y2924569D01*
X-5651073Y2985262D01*
X-5912695Y3000500D01*
X-6087305Y3000500D01*
X-6348927Y2985262D01*
X-6693136Y2924569D01*
X-7027971Y2824326D01*
X-7348904Y2685889D01*
X-7651596Y2511130D01*
X-7931953Y2302412D01*
X-8186183Y2062558D01*
X-8410849Y1794811D01*
X-8602913Y1502793D01*
X-8759777Y1190451D01*
X-8879319Y862011D01*
X-8959923Y521914D01*
X-9000500Y174759D01*
X-9000500Y-174759D01*
X-9749500Y-174759D01*
X-9749500Y4549999D01*
X9794750Y4549999D01*
X9813670Y4406290D01*
X9869137Y4272375D01*
X9957378Y4157378D01*
X10072375Y4069137D01*
X10206290Y4013670D01*
X10350000Y3994750D01*
X10493709Y4013670D01*
X10627624Y4069137D01*
X10742621Y4157378D01*
X10830862Y4272375D01*
X10865839Y4356821D01*
X10886330Y4406291D01*
X10905250Y4550000D01*
X10886330Y4693709D01*
X10851351Y4778155D01*
X10830862Y4827624D01*
X10742621Y4942621D01*
X10627624Y5030862D01*
X10578155Y5051351D01*
X10493709Y5086330D01*
X10350000Y5105250D01*
X10206291Y5086330D01*
X10156821Y5065839D01*
X10072375Y5030862D01*
X9957378Y4942621D01*
X9869137Y4827624D01*
X9813670Y4693709D01*
X9794750Y4550000D01*
X9794750Y4549999D01*
X-9749500Y4549999D01*
X-9749500Y6732332D01*
X-9749431Y6733121D01*
X-9749437Y6785491D01*
X-9749254Y6790297D01*
X-9741454Y6892442D01*
X-9738532Y6911443D01*
X-9716923Y7004174D01*
X-9711148Y7022500D01*
X-9675682Y7110872D01*
X-9667185Y7128108D01*
X-9615014Y7216265D01*
X-9612402Y7220317D01*
X-8488590Y8825241D01*
X-3000500Y8825241D01*
X-2959923Y8478086D01*
X-2879319Y8137989D01*
X-2759777Y7809549D01*
X-2602913Y7497207D01*
X-2602908Y7497200D01*
X-2602908Y7497199D01*
X-2410852Y7205193D01*
X-2250055Y7013561D01*
X-2186183Y6937442D01*
X-1931953Y6697588D01*
X-1651596Y6488870D01*
X-1651585Y6488863D01*
X-1651584Y6488863D01*
X-1348906Y6314112D01*
X-1348901Y6314109D01*
X-1027978Y6175677D01*
X-1027971Y6175674D01*
X-693136Y6075431D01*
X-348927Y6014738D01*
X-348922Y6014737D01*
X-348916Y6014737D01*
X-216290Y6007012D01*
X-87305Y5999500D01*
X-87299Y5999500D01*
X87299Y5999500D01*
X87305Y5999500D01*
X216290Y6007012D01*
X348916Y6014737D01*
X348922Y6014737D01*
X348927Y6014738D01*
X693136Y6075431D01*
X1027971Y6175674D01*
X1027978Y6175677D01*
X1348901Y6314109D01*
X1348906Y6314112D01*
X1651584Y6488863D01*
X1651585Y6488863D01*
X1651596Y6488870D01*
X1931953Y6697588D01*
X2186183Y6937442D01*
X2250055Y7013561D01*
X2410852Y7205193D01*
X2602908Y7497199D01*
X2602908Y7497200D01*
X2602913Y7497207D01*
X2759777Y7809549D01*
X2879319Y8137989D01*
X2959923Y8478086D01*
X3000500Y8825241D01*
X3000500Y8885050D01*
X3020502Y8953171D01*
X3063832Y8990717D01*
X3186144Y8990717D01*
X3209012Y8980274D01*
X3247396Y8920548D01*
X3251360Y8901963D01*
X3275925Y8720609D01*
X3345484Y8506532D01*
X3452144Y8308324D01*
X3452148Y8308317D01*
X3592493Y8132332D01*
X3762001Y7984237D01*
X3955235Y7868785D01*
X4165980Y7789691D01*
X4359841Y7754510D01*
X4387453Y7749500D01*
X4387454Y7749500D01*
X4556151Y7749500D01*
X4556155Y7749500D01*
X4597870Y7753254D01*
X4724189Y7764622D01*
X4724189Y7764623D01*
X4941167Y7824505D01*
X5143968Y7922168D01*
X5143976Y7922173D01*
X5326078Y8054478D01*
X5326079Y8054479D01*
X5481630Y8217172D01*
X5605632Y8405027D01*
X5605632Y8405028D01*
X5605635Y8405032D01*
X5694103Y8612012D01*
X5744191Y8831463D01*
X5754290Y9056330D01*
X5724075Y9279387D01*
X5654517Y9493464D01*
X5547852Y9691681D01*
X5407508Y9867666D01*
X5237996Y10015765D01*
X5044764Y10131215D01*
X4834024Y10210307D01*
X4834019Y10210307D01*
X4834019Y10210308D01*
X4695885Y10235376D01*
X4612547Y10250500D01*
X4443845Y10250500D01*
X4296669Y10237254D01*
X4275810Y10235377D01*
X4275810Y10235376D01*
X4184978Y10210308D01*
X4058832Y10175494D01*
X4058830Y10175493D01*
X3856027Y10077829D01*
X3856023Y10077826D01*
X3673921Y9945521D01*
X3673920Y9945520D01*
X3518369Y9782827D01*
X3394367Y9594972D01*
X3394363Y9594964D01*
X3305897Y9387988D01*
X3305896Y9387986D01*
X3255809Y9168538D01*
X3255809Y9168536D01*
X3252373Y9092029D01*
X3229335Y9024874D01*
X3186144Y8990717D01*
X3063832Y8990717D01*
X3066175Y8992747D01*
X3039798Y9006255D01*
X3004133Y9067644D01*
X3000500Y9097682D01*
X3000500Y9174761D01*
X2963248Y9493464D01*
X2959923Y9521914D01*
X2879319Y9862011D01*
X2759777Y10190451D01*
X2602913Y10502793D01*
X2410849Y10794811D01*
X2186183Y11062558D01*
X1931953Y11302412D01*
X1651596Y11511130D01*
X1348904Y11685889D01*
X1027971Y11824326D01*
X693136Y11924569D01*
X348927Y11985262D01*
X87305Y12000500D01*
X-87305Y12000500D01*
X-348927Y11985262D01*
X-693136Y11924569D01*
X-1027971Y11824326D01*
X-1348904Y11685889D01*
X-1651596Y11511130D01*
X-1931953Y11302412D01*
X-2186183Y11062558D01*
X-2410849Y10794811D01*
X-2602913Y10502793D01*
X-2759777Y10190451D01*
X-2879319Y9862011D01*
X-2959923Y9521914D01*
X-3000500Y9174759D01*
X-3000500Y8825241D01*
X-8488590Y8825241D01*
X-5616091Y12927477D01*
X-5612389Y12932258D01*
X-5529218Y13029641D01*
X-5511842Y13046420D01*
X-5418244Y13120870D01*
X-5397988Y13134024D01*
X-5291904Y13189248D01*
X-5269510Y13198296D01*
X-5154836Y13232264D01*
X-5131127Y13236873D01*
X-5022023Y13247379D01*
X-5003010Y13249210D01*
X-4996971Y13249500D01*
X-4955830Y13249500D01*
X17944217Y13249500D01*
X17945275Y13249408D01*
G37*
%TD.AperFunction*%
%TD*%
M02*
