%TF.GenerationSoftware,KiCad,Pcbnew,7.99.0-1.20230926git54171ec.fc37*%
%TF.CreationDate,2023-10-10T16:27:55+01:00*%
%TF.ProjectId,bugg-led-r5,62756767-2d6c-4656-942d-72352e6b6963,rev?*%
%TF.SameCoordinates,Original*%
%TF.FileFunction,Legend,Bot*%
%TF.FilePolarity,Positive*%
%FSLAX46Y46*%
G04 Gerber Fmt 4.6, Leading zero omitted, Abs format (unit mm)*
G04 Created by KiCad (PCBNEW 7.99.0-1.20230926git54171ec.fc37) date 2023-10-10 16:27:55*
%MOMM*%
%LPD*%
G01*
G04 APERTURE LIST*
%ADD10C,0.150000*%
%ADD11C,0.120000*%
G04 APERTURE END LIST*
D10*
X10121428Y5537704D02*
X10578571Y5537704D01*
X10349999Y5537704D02*
X10349999Y6337704D01*
X10349999Y6337704D02*
X10426190Y6223419D01*
X10426190Y6223419D02*
X10502380Y6147228D01*
X10502380Y6147228D02*
X10578571Y6109133D01*
X7616666Y-14662295D02*
X7083332Y-14662295D01*
X7083332Y-14662295D02*
X7426190Y-15462295D01*
X7616666Y-10662295D02*
X7121428Y-10662295D01*
X7121428Y-10662295D02*
X7388094Y-10967057D01*
X7388094Y-10967057D02*
X7273809Y-10967057D01*
X7273809Y-10967057D02*
X7197618Y-11005152D01*
X7197618Y-11005152D02*
X7159523Y-11043247D01*
X7159523Y-11043247D02*
X7121428Y-11119438D01*
X7121428Y-11119438D02*
X7121428Y-11309914D01*
X7121428Y-11309914D02*
X7159523Y-11386104D01*
X7159523Y-11386104D02*
X7197618Y-11424200D01*
X7197618Y-11424200D02*
X7273809Y-11462295D01*
X7273809Y-11462295D02*
X7502380Y-11462295D01*
X7502380Y-11462295D02*
X7578571Y-11424200D01*
X7578571Y-11424200D02*
X7616666Y-11386104D01*
X7121428Y-9462295D02*
X7578571Y-9462295D01*
X7349999Y-9462295D02*
X7349999Y-8662295D01*
X7349999Y-8662295D02*
X7426190Y-8776580D01*
X7426190Y-8776580D02*
X7502380Y-8852771D01*
X7502380Y-8852771D02*
X7578571Y-8890866D01*
X7159523Y-12662295D02*
X7540475Y-12662295D01*
X7540475Y-12662295D02*
X7578571Y-13043247D01*
X7578571Y-13043247D02*
X7540475Y-13005152D01*
X7540475Y-13005152D02*
X7464285Y-12967057D01*
X7464285Y-12967057D02*
X7273809Y-12967057D01*
X7273809Y-12967057D02*
X7197618Y-13005152D01*
X7197618Y-13005152D02*
X7159523Y-13043247D01*
X7159523Y-13043247D02*
X7121428Y-13119438D01*
X7121428Y-13119438D02*
X7121428Y-13309914D01*
X7121428Y-13309914D02*
X7159523Y-13386104D01*
X7159523Y-13386104D02*
X7197618Y-13424200D01*
X7197618Y-13424200D02*
X7273809Y-13462295D01*
X7273809Y-13462295D02*
X7464285Y-13462295D01*
X7464285Y-13462295D02*
X7540475Y-13424200D01*
X7540475Y-13424200D02*
X7578571Y-13386104D01*
D11*
%TO.C,R206*%
X-803641Y-28020000D02*
X-496359Y-28020000D01*
X-803641Y-28780000D02*
X-496359Y-28780000D01*
%TO.C,R203*%
X3070000Y-29453641D02*
X3070000Y-29146359D01*
X3830000Y-29453641D02*
X3830000Y-29146359D01*
%TO.C,R209*%
X-803641Y-26420000D02*
X-496359Y-26420000D01*
X-803641Y-27180000D02*
X-496359Y-27180000D01*
%TO.C,LED203*%
X-2500000Y-32500000D02*
X-2500000Y-31700000D01*
X1950000Y-29500000D02*
X-1950000Y-29500000D01*
X1950000Y-32500000D02*
X-2500044Y-32500000D01*
%TO.C,J201*%
X7560000Y-8240000D02*
X9940000Y-8240000D01*
X9940000Y-7940000D02*
X14060000Y-7940000D01*
X9940000Y-8240000D02*
X9940000Y-7940000D01*
X9940000Y-10240000D02*
X9940000Y-9760000D01*
X9940000Y-12240000D02*
X9940000Y-11760000D01*
X9940000Y-14240000D02*
X9940000Y-13760000D01*
X9940000Y-16060000D02*
X9940000Y-15760000D01*
X9940000Y-16060000D02*
X14060000Y-16060000D01*
X14060000Y-8240000D02*
X14060000Y-7940000D01*
X14060000Y-10240000D02*
X14060000Y-9760000D01*
X14060000Y-12240000D02*
X14060000Y-11760000D01*
X14060000Y-14240000D02*
X14060000Y-13760000D01*
X14060000Y-16060000D02*
X14060000Y-15760000D01*
%TO.C,R201*%
X3170000Y-13553641D02*
X3170000Y-13246359D01*
X3930000Y-13553641D02*
X3930000Y-13246359D01*
%TO.C,LED202*%
X-2500000Y-24500000D02*
X-2500000Y-23700000D01*
X1950000Y-21500000D02*
X-1950000Y-21500000D01*
X1950000Y-24500000D02*
X-2500044Y-24500000D01*
%TO.C,R205*%
X-803641Y-20120000D02*
X-496359Y-20120000D01*
X-803641Y-20880000D02*
X-496359Y-20880000D01*
%TO.C,R202*%
X2970000Y-21553641D02*
X2970000Y-21246359D01*
X3730000Y-21553641D02*
X3730000Y-21246359D01*
%TO.C,LED201*%
X-2500000Y-16500000D02*
X-2500000Y-15700000D01*
X1950000Y-13500000D02*
X-1950000Y-13500000D01*
X1950000Y-16500000D02*
X-2500044Y-16500000D01*
%TO.C,R208*%
X-803641Y-18620000D02*
X-496359Y-18620000D01*
X-803641Y-19380000D02*
X-496359Y-19380000D01*
%TO.C,R204*%
X4070000Y-16603641D02*
X4070000Y-16296359D01*
X4830000Y-16603641D02*
X4830000Y-16296359D01*
%TO.C,R207*%
X-803641Y-17070000D02*
X-496359Y-17070000D01*
X-803641Y-17830000D02*
X-496359Y-17830000D01*
%TO.C,J202*%
X11500000Y5160000D02*
X12700000Y5160000D01*
X12700000Y6650000D02*
X12700000Y5160000D01*
X12700000Y-6650000D02*
X12700000Y-5160000D01*
X14040000Y6650000D02*
X12700000Y6650000D01*
X14040000Y-6650000D02*
X12700000Y-6650000D01*
X16760000Y-6650000D02*
X18500000Y-6650000D01*
X18500000Y6650000D02*
X16760000Y6650000D01*
X18500000Y-6650000D02*
X18500000Y6650000D01*
%TD*%
M02*
