%TF.GenerationSoftware,KiCad,Pcbnew,7.99.0-1.20230926git54171ec.fc37*%
%TF.CreationDate,2023-10-03T14:23:04+01:00*%
%TF.ProjectId,bugg-led-r5,62756767-2d6c-4656-942d-72352e6b6963,rev?*%
%TF.SameCoordinates,Original*%
%TF.FileFunction,Soldermask,Bot*%
%TF.FilePolarity,Negative*%
%FSLAX46Y46*%
G04 Gerber Fmt 4.6, Leading zero omitted, Abs format (unit mm)*
G04 Created by KiCad (PCBNEW 7.99.0-1.20230926git54171ec.fc37) date 2023-10-03 14:23:04*
%MOMM*%
%LPD*%
G01*
G04 APERTURE LIST*
G04 Aperture macros list*
%AMRoundRect*
0 Rectangle with rounded corners*
0 $1 Rounding radius*
0 $2 $3 $4 $5 $6 $7 $8 $9 X,Y pos of 4 corners*
0 Add a 4 corners polygon primitive as box body*
4,1,4,$2,$3,$4,$5,$6,$7,$8,$9,$2,$3,0*
0 Add four circle primitives for the rounded corners*
1,1,$1+$1,$2,$3*
1,1,$1+$1,$4,$5*
1,1,$1+$1,$6,$7*
1,1,$1+$1,$8,$9*
0 Add four rect primitives between the rounded corners*
20,1,$1+$1,$2,$3,$4,$5,0*
20,1,$1+$1,$4,$5,$6,$7,0*
20,1,$1+$1,$6,$7,$8,$9,0*
20,1,$1+$1,$8,$9,$2,$3,0*%
G04 Aperture macros list end*
%ADD10C,0.200000*%
%ADD11C,2.000000*%
%ADD12C,5.500000*%
%ADD13RoundRect,0.135000X0.135000X0.185000X-0.135000X0.185000X-0.135000X-0.185000X0.135000X-0.185000X0*%
%ADD14RoundRect,0.135000X-0.185000X0.135000X-0.185000X-0.135000X0.185000X-0.135000X0.185000X0.135000X0*%
%ADD15R,1.500000X1.100000*%
%ADD16C,0.900000*%
%ADD17C,1.500000*%
%ADD18R,2.000000X1.000000*%
%ADD19R,1.300000X0.300000*%
%ADD20R,2.200000X1.800000*%
G04 APERTURE END LIST*
D10*
X17282707Y10921223D02*
X17282707Y12121223D01*
X17282707Y11664080D02*
X17168422Y11721223D01*
X17168422Y11721223D02*
X16939850Y11721223D01*
X16939850Y11721223D02*
X16825564Y11664080D01*
X16825564Y11664080D02*
X16768422Y11606937D01*
X16768422Y11606937D02*
X16711279Y11492651D01*
X16711279Y11492651D02*
X16711279Y11149794D01*
X16711279Y11149794D02*
X16768422Y11035508D01*
X16768422Y11035508D02*
X16825564Y10978366D01*
X16825564Y10978366D02*
X16939850Y10921223D01*
X16939850Y10921223D02*
X17168422Y10921223D01*
X17168422Y10921223D02*
X17282707Y10978366D01*
X15682708Y11721223D02*
X15682708Y10921223D01*
X16196993Y11721223D02*
X16196993Y11092651D01*
X16196993Y11092651D02*
X16139850Y10978366D01*
X16139850Y10978366D02*
X16025565Y10921223D01*
X16025565Y10921223D02*
X15854136Y10921223D01*
X15854136Y10921223D02*
X15739850Y10978366D01*
X15739850Y10978366D02*
X15682708Y11035508D01*
X14596994Y11721223D02*
X14596994Y10749794D01*
X14596994Y10749794D02*
X14654136Y10635508D01*
X14654136Y10635508D02*
X14711279Y10578366D01*
X14711279Y10578366D02*
X14825565Y10521223D01*
X14825565Y10521223D02*
X14996994Y10521223D01*
X14996994Y10521223D02*
X15111279Y10578366D01*
X14596994Y10978366D02*
X14711279Y10921223D01*
X14711279Y10921223D02*
X14939851Y10921223D01*
X14939851Y10921223D02*
X15054136Y10978366D01*
X15054136Y10978366D02*
X15111279Y11035508D01*
X15111279Y11035508D02*
X15168422Y11149794D01*
X15168422Y11149794D02*
X15168422Y11492651D01*
X15168422Y11492651D02*
X15111279Y11606937D01*
X15111279Y11606937D02*
X15054136Y11664080D01*
X15054136Y11664080D02*
X14939851Y11721223D01*
X14939851Y11721223D02*
X14711279Y11721223D01*
X14711279Y11721223D02*
X14596994Y11664080D01*
X13511280Y11721223D02*
X13511280Y10749794D01*
X13511280Y10749794D02*
X13568422Y10635508D01*
X13568422Y10635508D02*
X13625565Y10578366D01*
X13625565Y10578366D02*
X13739851Y10521223D01*
X13739851Y10521223D02*
X13911280Y10521223D01*
X13911280Y10521223D02*
X14025565Y10578366D01*
X13511280Y10978366D02*
X13625565Y10921223D01*
X13625565Y10921223D02*
X13854137Y10921223D01*
X13854137Y10921223D02*
X13968422Y10978366D01*
X13968422Y10978366D02*
X14025565Y11035508D01*
X14025565Y11035508D02*
X14082708Y11149794D01*
X14082708Y11149794D02*
X14082708Y11492651D01*
X14082708Y11492651D02*
X14025565Y11606937D01*
X14025565Y11606937D02*
X13968422Y11664080D01*
X13968422Y11664080D02*
X13854137Y11721223D01*
X13854137Y11721223D02*
X13625565Y11721223D01*
X13625565Y11721223D02*
X13511280Y11664080D01*
X12939851Y11378366D02*
X12025566Y11378366D01*
X11282709Y10921223D02*
X11396994Y10978366D01*
X11396994Y10978366D02*
X11454137Y11092651D01*
X11454137Y11092651D02*
X11454137Y12121223D01*
X10368423Y10978366D02*
X10482709Y10921223D01*
X10482709Y10921223D02*
X10711281Y10921223D01*
X10711281Y10921223D02*
X10825566Y10978366D01*
X10825566Y10978366D02*
X10882709Y11092651D01*
X10882709Y11092651D02*
X10882709Y11549794D01*
X10882709Y11549794D02*
X10825566Y11664080D01*
X10825566Y11664080D02*
X10711281Y11721223D01*
X10711281Y11721223D02*
X10482709Y11721223D01*
X10482709Y11721223D02*
X10368423Y11664080D01*
X10368423Y11664080D02*
X10311281Y11549794D01*
X10311281Y11549794D02*
X10311281Y11435508D01*
X10311281Y11435508D02*
X10882709Y11321223D01*
X9282710Y10921223D02*
X9282710Y12121223D01*
X9282710Y10978366D02*
X9396995Y10921223D01*
X9396995Y10921223D02*
X9625567Y10921223D01*
X9625567Y10921223D02*
X9739852Y10978366D01*
X9739852Y10978366D02*
X9796995Y11035508D01*
X9796995Y11035508D02*
X9854138Y11149794D01*
X9854138Y11149794D02*
X9854138Y11492651D01*
X9854138Y11492651D02*
X9796995Y11606937D01*
X9796995Y11606937D02*
X9739852Y11664080D01*
X9739852Y11664080D02*
X9625567Y11721223D01*
X9625567Y11721223D02*
X9396995Y11721223D01*
X9396995Y11721223D02*
X9282710Y11664080D01*
X8711281Y11378366D02*
X7796996Y11378366D01*
X7225567Y10921223D02*
X7225567Y11721223D01*
X7225567Y11492651D02*
X7168424Y11606937D01*
X7168424Y11606937D02*
X7111282Y11664080D01*
X7111282Y11664080D02*
X6996996Y11721223D01*
X6996996Y11721223D02*
X6882710Y11721223D01*
X5911282Y12121223D02*
X6482710Y12121223D01*
X6482710Y12121223D02*
X6539853Y11549794D01*
X6539853Y11549794D02*
X6482710Y11606937D01*
X6482710Y11606937D02*
X6368425Y11664080D01*
X6368425Y11664080D02*
X6082710Y11664080D01*
X6082710Y11664080D02*
X5968425Y11606937D01*
X5968425Y11606937D02*
X5911282Y11549794D01*
X5911282Y11549794D02*
X5854139Y11435508D01*
X5854139Y11435508D02*
X5854139Y11149794D01*
X5854139Y11149794D02*
X5911282Y11035508D01*
X5911282Y11035508D02*
X5968425Y10978366D01*
X5968425Y10978366D02*
X6082710Y10921223D01*
X6082710Y10921223D02*
X6368425Y10921223D01*
X6368425Y10921223D02*
X6482710Y10978366D01*
X6482710Y10978366D02*
X6539853Y11035508D01*
X17282707Y8989290D02*
X17282707Y10189290D01*
X17282707Y10189290D02*
X16882707Y9332147D01*
X16882707Y9332147D02*
X16482707Y10189290D01*
X16482707Y10189290D02*
X16482707Y8989290D01*
X15739850Y8989290D02*
X15854135Y9046433D01*
X15854135Y9046433D02*
X15911278Y9103575D01*
X15911278Y9103575D02*
X15968421Y9217861D01*
X15968421Y9217861D02*
X15968421Y9560718D01*
X15968421Y9560718D02*
X15911278Y9675004D01*
X15911278Y9675004D02*
X15854135Y9732147D01*
X15854135Y9732147D02*
X15739850Y9789290D01*
X15739850Y9789290D02*
X15568421Y9789290D01*
X15568421Y9789290D02*
X15454135Y9732147D01*
X15454135Y9732147D02*
X15396993Y9675004D01*
X15396993Y9675004D02*
X15339850Y9560718D01*
X15339850Y9560718D02*
X15339850Y9217861D01*
X15339850Y9217861D02*
X15396993Y9103575D01*
X15396993Y9103575D02*
X15454135Y9046433D01*
X15454135Y9046433D02*
X15568421Y8989290D01*
X15568421Y8989290D02*
X15739850Y8989290D01*
X14825564Y9789290D02*
X14825564Y8989290D01*
X14825564Y9675004D02*
X14768421Y9732147D01*
X14768421Y9732147D02*
X14654136Y9789290D01*
X14654136Y9789290D02*
X14482707Y9789290D01*
X14482707Y9789290D02*
X14368421Y9732147D01*
X14368421Y9732147D02*
X14311279Y9617861D01*
X14311279Y9617861D02*
X14311279Y8989290D01*
X13225565Y8989290D02*
X13225565Y9617861D01*
X13225565Y9617861D02*
X13282707Y9732147D01*
X13282707Y9732147D02*
X13396993Y9789290D01*
X13396993Y9789290D02*
X13625565Y9789290D01*
X13625565Y9789290D02*
X13739850Y9732147D01*
X13225565Y9046433D02*
X13339850Y8989290D01*
X13339850Y8989290D02*
X13625565Y8989290D01*
X13625565Y8989290D02*
X13739850Y9046433D01*
X13739850Y9046433D02*
X13796993Y9160718D01*
X13796993Y9160718D02*
X13796993Y9275004D01*
X13796993Y9275004D02*
X13739850Y9389290D01*
X13739850Y9389290D02*
X13625565Y9446433D01*
X13625565Y9446433D02*
X13339850Y9446433D01*
X13339850Y9446433D02*
X13225565Y9503575D01*
X12139851Y8989290D02*
X12139851Y10189290D01*
X12139851Y9046433D02*
X12254136Y8989290D01*
X12254136Y8989290D02*
X12482708Y8989290D01*
X12482708Y8989290D02*
X12596993Y9046433D01*
X12596993Y9046433D02*
X12654136Y9103575D01*
X12654136Y9103575D02*
X12711279Y9217861D01*
X12711279Y9217861D02*
X12711279Y9560718D01*
X12711279Y9560718D02*
X12654136Y9675004D01*
X12654136Y9675004D02*
X12596993Y9732147D01*
X12596993Y9732147D02*
X12482708Y9789290D01*
X12482708Y9789290D02*
X12254136Y9789290D01*
X12254136Y9789290D02*
X12139851Y9732147D01*
X10711279Y10075004D02*
X10654136Y10132147D01*
X10654136Y10132147D02*
X10539851Y10189290D01*
X10539851Y10189290D02*
X10254136Y10189290D01*
X10254136Y10189290D02*
X10139851Y10132147D01*
X10139851Y10132147D02*
X10082708Y10075004D01*
X10082708Y10075004D02*
X10025565Y9960718D01*
X10025565Y9960718D02*
X10025565Y9846433D01*
X10025565Y9846433D02*
X10082708Y9675004D01*
X10082708Y9675004D02*
X10768422Y8989290D01*
X10768422Y8989290D02*
X10025565Y8989290D01*
X9282708Y10189290D02*
X9168422Y10189290D01*
X9168422Y10189290D02*
X9054136Y10132147D01*
X9054136Y10132147D02*
X8996994Y10075004D01*
X8996994Y10075004D02*
X8939851Y9960718D01*
X8939851Y9960718D02*
X8882708Y9732147D01*
X8882708Y9732147D02*
X8882708Y9446433D01*
X8882708Y9446433D02*
X8939851Y9217861D01*
X8939851Y9217861D02*
X8996994Y9103575D01*
X8996994Y9103575D02*
X9054136Y9046433D01*
X9054136Y9046433D02*
X9168422Y8989290D01*
X9168422Y8989290D02*
X9282708Y8989290D01*
X9282708Y8989290D02*
X9396994Y9046433D01*
X9396994Y9046433D02*
X9454136Y9103575D01*
X9454136Y9103575D02*
X9511279Y9217861D01*
X9511279Y9217861D02*
X9568422Y9446433D01*
X9568422Y9446433D02*
X9568422Y9732147D01*
X9568422Y9732147D02*
X9511279Y9960718D01*
X9511279Y9960718D02*
X9454136Y10075004D01*
X9454136Y10075004D02*
X9396994Y10132147D01*
X9396994Y10132147D02*
X9282708Y10189290D01*
X8425565Y10075004D02*
X8368422Y10132147D01*
X8368422Y10132147D02*
X8254137Y10189290D01*
X8254137Y10189290D02*
X7968422Y10189290D01*
X7968422Y10189290D02*
X7854137Y10132147D01*
X7854137Y10132147D02*
X7796994Y10075004D01*
X7796994Y10075004D02*
X7739851Y9960718D01*
X7739851Y9960718D02*
X7739851Y9846433D01*
X7739851Y9846433D02*
X7796994Y9675004D01*
X7796994Y9675004D02*
X8482708Y8989290D01*
X8482708Y8989290D02*
X7739851Y8989290D01*
X7339851Y10189290D02*
X6596994Y10189290D01*
X6596994Y10189290D02*
X6996994Y9732147D01*
X6996994Y9732147D02*
X6825565Y9732147D01*
X6825565Y9732147D02*
X6711280Y9675004D01*
X6711280Y9675004D02*
X6654137Y9617861D01*
X6654137Y9617861D02*
X6596994Y9503575D01*
X6596994Y9503575D02*
X6596994Y9217861D01*
X6596994Y9217861D02*
X6654137Y9103575D01*
X6654137Y9103575D02*
X6711280Y9046433D01*
X6711280Y9046433D02*
X6825565Y8989290D01*
X6825565Y8989290D02*
X7168422Y8989290D01*
X7168422Y8989290D02*
X7282708Y9046433D01*
X7282708Y9046433D02*
X7339851Y9103575D01*
D11*
%TO.C,H205*%
X4500000Y9000000D03*
%TD*%
%TO.C,H206*%
X0Y-35500000D03*
%TD*%
D12*
%TO.C,H204*%
X0Y-9000000D03*
%TD*%
%TO.C,H201*%
X6000000Y0D03*
%TD*%
%TO.C,H203*%
X0Y9000000D03*
%TD*%
%TO.C,H202*%
X-6000000Y0D03*
%TD*%
D13*
%TO.C,R206*%
X-140000Y-28400000D03*
X-1160000Y-28400000D03*
%TD*%
D11*
%TO.C,FID1*%
X-5000000Y9000000D03*
%TD*%
%TO.C,FID2*%
X3000000Y-35500000D03*
%TD*%
D14*
%TO.C,R203*%
X3450000Y-28790000D03*
X3450000Y-29810000D03*
%TD*%
D13*
%TO.C,R209*%
X-140000Y-26800000D03*
X-1160000Y-26800000D03*
%TD*%
D15*
%TO.C,LED203*%
X-1500000Y-31750000D03*
X1500000Y-31750000D03*
X1500000Y-30250000D03*
X-1500000Y-30250000D03*
%TD*%
D16*
%TO.C,J201*%
X13000000Y-15000000D03*
X13000000Y-13000000D03*
X13000000Y-11000000D03*
X13000000Y-9000000D03*
D17*
X12000000Y-14000000D03*
X12000000Y-10000000D03*
D16*
X11000000Y-15000000D03*
X11000000Y-13000000D03*
X11000000Y-11000000D03*
X11000000Y-9000000D03*
D18*
X9325000Y-9000000D03*
X14675000Y-9000000D03*
X9325000Y-11000000D03*
X14675000Y-11000000D03*
X9325000Y-13000000D03*
X14675000Y-13000000D03*
X9325000Y-15000000D03*
X14675000Y-15000000D03*
%TD*%
D14*
%TO.C,R201*%
X3550000Y-12890000D03*
X3550000Y-13910000D03*
%TD*%
D15*
%TO.C,LED202*%
X-1500000Y-23750000D03*
X1500000Y-23750000D03*
X1500000Y-22250000D03*
X-1500000Y-22250000D03*
%TD*%
D13*
%TO.C,R205*%
X-140000Y-20500000D03*
X-1160000Y-20500000D03*
%TD*%
D14*
%TO.C,R202*%
X3350000Y-20890000D03*
X3350000Y-21910000D03*
%TD*%
D15*
%TO.C,LED201*%
X-1500000Y-15750000D03*
X1500000Y-15750000D03*
X1500000Y-14250000D03*
X-1500000Y-14250000D03*
%TD*%
D13*
%TO.C,R208*%
X-140000Y-19000000D03*
X-1160000Y-19000000D03*
%TD*%
D14*
%TO.C,R204*%
X4450000Y-15940000D03*
X4450000Y-16960000D03*
%TD*%
D13*
%TO.C,R207*%
X-140000Y-17450000D03*
X-1160000Y-17450000D03*
%TD*%
D19*
%TO.C,J202*%
X12150000Y4750000D03*
X12150000Y4250000D03*
X12150000Y3750000D03*
X12150000Y3250000D03*
X12150000Y2750000D03*
X12150000Y2250000D03*
X12150000Y1750000D03*
X12150000Y1250000D03*
X12150000Y750000D03*
X12150000Y250000D03*
X12150000Y-250000D03*
X12150000Y-750000D03*
X12150000Y-1250000D03*
X12150000Y-1750000D03*
X12150000Y-2250000D03*
X12150000Y-2750000D03*
X12150000Y-3250000D03*
X12150000Y-3750000D03*
X12150000Y-4250000D03*
X12150000Y-4750000D03*
D20*
X15400000Y6650000D03*
X15400000Y-6650000D03*
%TD*%
M02*
